<svg width='30px'
        height='30px'
        viewBox='66 -2 30 30' xmlns="http://www.w3.org/2000/svg">
<style>
  @media (prefers-color-scheme: dark) {
    #favicon {
      fill: white;
    }
  }
</style>
<path id="favicon" fill="violet" d="M80.514 28.35h-.157a.4.4 0 0 1-.13-.026 1 1 0 0 1-.393-.132 1.6 1.6 0 0 1-.916-1.443v-9.896c0-.893.707-1.602 1.596-1.602s1.622.709 1.622 1.601v8.427a11.36 11.36 0 0 0 9.469-11.209c0-6.274-5.075-11.366-11.326-11.366a11.62 11.62 0 0 0-8.37 3.596c-2.041 2.126-3.061 4.856-2.93 7.718.13 3.228.915 6.72 5.597 10.106.602.42.785 1.26.366 1.89a1.35 1.35 0 0 1-1.91.341c-5.675-4.121-6.591-8.689-6.748-12.232-.183-3.57 1.125-7.01 3.662-9.687C72.641 1.628 76.407 0 80.28 0 87.996 0 94.3 6.326 94.3 14.07c0 7.639-6.095 14.096-13.68 14.28zm2.537-18.322a2.52 2.52 0 0 1-2.537 2.52 2.516 2.516 0 0 1-2.511-2.52c0-1.418 1.125-2.547 2.511-2.547a2.53 2.53 0 0 1 2.537 2.547"/></svg>