<svg version="1.2" fill="currentColor" xmlns="http://www.w3.org/2000/svg" viewBox="0 0 800 800" width="800" height="800"><defs><clipPath clipPathUnits="userSpaceOnUse" id="cp1"><path d="m799.56 800h-800v-800h800z"/></clipPath></defs><style>.a{fill:#f4f6f0}.b{fill:none;stroke:#c8c8e5;stroke-miterlimit:10}.c{fill:#3c3c3b}.d{fill:#fd0}.e{fill:#36a8e0}.f{fill:#00973a}.g{fill:#e20613}.h{fill:#e95b0c}.i{fill:#81368b}.j{fill:#27348a}.k{fill:#1d1d1b;stroke:#e20613;stroke-linecap:round;stroke-linejoin:round;stroke-width:.4}.l{fill:#1d1d1b}</style><g style="display:none"><g clip-path="url(#cp1)"><path class="a" d="m799.6 800h-800v-800h800z"/><path class="b" d="m-225.1 5.3h1142"/><path class="b" d="m-225.1 40.1h1142"/><path class="b" d="m-225.1 74.8h1142"/><path class="b" d="m-225.1 109.6h1142"/><path class="b" d="m-225.1 144.3h1142"/><path class="b" d="m-225.1 179.1h1142"/><path class="b" d="m-225.1 213.8h1142"/><path class="b" d="m-225.1 248.6h1142"/><path class="b" d="m-225.1 283.3h1142"/><path class="b" d="m-225.1 318.1h1142"/><path class="b" d="m-225.1 352.8h1142"/><path class="b" d="m-225.1 387.6h1142"/><path class="b" d="m-225.1 422.3h1142"/><path class="b" d="m-225.1 457.1h1142"/><path class="b" d="m-225.1 491.8h1142"/><path class="b" d="m-225.1 526.6h1142"/><path class="b" d="m-225.1 561.3h1142"/><path class="b" d="m-225.1 596.1h1142"/><path class="b" d="m-225.1 630.8h1142"/><path class="b" d="m-225.1 665.6h1142"/><path class="b" d="m-225.1 700.3h1142"/><path class="b" d="m-225.1 735.1h1142"/><path class="b" d="m-225.1 769.8h1142"/><path class="b" d="m-225.1 804.6h1142"/><path class="b" d="m-225.1 839.3h1142"/><path class="b" d="m-71.1 993.3v-1142"/><path class="b" d="m-36.3 993.3v-1142"/><path class="b" d="m-1.6 993.3v-1142"/><path class="b" d="m33.2 993.3v-1142"/><path class="b" d="m67.9 993.3v-1142"/><path class="b" d="m102.7 993.3v-1142"/><path class="b" d="m137.4 993.3v-1142"/><path class="b" d="m172.2 993.3v-1142"/><path class="b" d="m206.9 993.3v-1142"/><path class="b" d="m241.7 993.3v-1142"/><path class="b" d="m276.4 993.3v-1142"/><path class="b" d="m311.2 993.3v-1142"/><path class="b" d="m345.9 993.3v-1142"/><path class="b" d="m380.7 993.3v-1142"/><path class="b" d="m415.4 993.3v-1142"/><path class="b" d="m450.2 993.3v-1142"/><path class="b" d="m484.9 993.3v-1142"/><path class="b" d="m519.7 993.3v-1142"/><path class="b" d="m554.4 993.3v-1142"/><path class="b" d="m589.2 993.3v-1142"/><path class="b" d="m623.9 993.3v-1142"/><path class="b" d="m658.7 993.3v-1142"/><path class="b" d="m693.4 993.3v-1142"/><path class="b" d="m728.2 993.3v-1142"/><path class="b" d="m762.9 993.3v-1142"/></g><path fill-rule="evenodd" class="c" d="m303.3 777.1v-0.2q-0.4 0.5-0.8 0.8-0.4 0.2-0.9 0.4-0.4 0.1-1 0.1-0.7 0-1.3-0.3-0.6-0.3-1-0.8-0.5-0.6-0.7-1.4-0.3-0.7-0.3-1.6 0-1.9 1-2.9 0.9-1.1 2.4-1.1 0.8 0 1.4 0.3 0.6 0.3 1.2 0.9v-2.9q0-0.6 0.2-0.9 0.3-0.4 0.7-0.4 0.5 0 0.7 0.3 0.3 0.3 0.3 0.9v8.8q0 0.6-0.3 0.9-0.3 0.2-0.7 0.2-0.4 0-0.7-0.3-0.2-0.3-0.2-0.8zm-4-2.9q0 0.8 0.3 1.3 0.3 0.6 0.7 0.9 0.4 0.3 1 0.3 0.5 0 0.9-0.3 0.5-0.3 0.7-0.8 0.3-0.6 0.3-1.4 0-0.8-0.3-1.4-0.2-0.6-0.7-0.9-0.4-0.3-1-0.3-0.5 0-0.9 0.3-0.5 0.3-0.7 0.9-0.3 0.6-0.3 1.4z"/><path fill-rule="evenodd" class="c" d="m312.8 774.7h-4q0.1 0.6 0.3 1.2 0.3 0.5 0.7 0.8 0.5 0.2 1 0.2 0.4 0 0.7-0.1 0.3-0.1 0.5-0.2 0.3-0.2 0.6-0.4 0.2-0.2 0.6-0.6 0.1-0.1 0.4-0.1 0.3 0 0.5 0.2 0.2 0.1 0.2 0.4 0 0.3-0.2 0.7-0.2 0.3-0.7 0.7-0.4 0.3-1 0.5-0.7 0.2-1.5 0.2-2 0-3-1.1-1.1-1.1-1.1-2.9 0-0.9 0.3-1.7 0.2-0.7 0.7-1.3 0.5-0.5 1.3-0.8 0.7-0.3 1.6-0.3 1.2 0 2 0.5 0.9 0.5 1.3 1.3 0.4 0.8 0.4 1.6 0 0.7-0.4 0.9-0.5 0.3-1.2 0.3zm-4-1.2h3.7q-0.1-1-0.6-1.5-0.5-0.5-1.2-0.5-0.8 0-1.3 0.5-0.5 0.5-0.6 1.5z"/><path class="c" d="m322.5 775.6q0 0.9-0.4 1.4-0.4 0.6-1.2 0.9-0.8 0.3-1.9 0.3-1.1 0-1.8-0.3-0.8-0.3-1.2-0.8-0.3-0.5-0.3-1 0-0.3 0.2-0.6 0.2-0.2 0.6-0.2 0.3 0 0.5 0.2 0.2 0.1 0.3 0.4 0.3 0.5 0.7 0.8 0.5 0.2 1.2 0.2 0.6 0 1-0.2 0.4-0.3 0.4-0.6 0-0.6-0.4-0.8-0.4-0.2-1.3-0.5-1.1-0.2-1.7-0.5-0.7-0.3-1.1-0.7-0.3-0.5-0.3-1.2 0-0.6 0.3-1.1 0.4-0.6 1.1-0.9 0.7-0.3 1.7-0.3 0.7 0 1.4 0.2 0.6 0.1 1 0.4 0.4 0.3 0.6 0.6 0.2 0.3 0.2 0.6 0 0.4-0.2 0.6-0.2 0.2-0.6 0.2-0.4 0-0.6-0.1-0.2-0.2-0.5-0.6-0.2-0.3-0.5-0.4-0.3-0.2-0.8-0.2-0.6 0-0.9 0.2-0.4 0.2-0.4 0.6 0 0.3 0.3 0.5 0.2 0.2 0.7 0.3 0.4 0.2 1.2 0.4 0.9 0.2 1.5 0.5 0.6 0.3 0.9 0.7 0.3 0.5 0.3 1z"/><path class="c" d="m325.2 769.2q-0.4 0-0.7-0.3-0.3-0.2-0.3-0.7 0-0.4 0.3-0.7 0.3-0.3 0.7-0.3 0.4 0 0.7 0.3 0.3 0.2 0.3 0.7 0 0.5-0.3 0.7-0.3 0.3-0.7 0.3zm1 2v5.8q0 0.6-0.3 0.9-0.3 0.3-0.7 0.3-0.4 0-0.7-0.3-0.3-0.3-0.3-0.9v-5.7q0-0.6 0.3-0.9 0.3-0.3 0.7-0.3 0.4 0 0.7 0.3 0.3 0.3 0.3 0.8z"/><path fill-rule="evenodd" class="c" d="m335.6 771.6v5.8q0 1-0.2 1.7-0.2 0.7-0.7 1.2-0.4 0.5-1.2 0.7-0.7 0.2-1.9 0.2-1 0-1.8-0.3-0.8-0.3-1.3-0.7-0.4-0.5-0.4-1 0-0.3 0.2-0.6 0.3-0.2 0.6-0.2 0.5 0 0.8 0.4 0.2 0.2 0.3 0.4 0.2 0.2 0.4 0.3 0.2 0.2 0.5 0.2 0.3 0.1 0.7 0.1 0.8 0 1.2-0.2 0.4-0.2 0.6-0.6 0.2-0.4 0.2-0.8 0-0.5 0.1-1.5-0.5 0.7-1.1 1-0.6 0.4-1.5 0.4-1 0-1.7-0.6-0.8-0.5-1.2-1.4-0.4-0.9-0.4-2.1 0-0.9 0.3-1.6 0.2-0.8 0.7-1.3 0.4-0.5 1-0.7 0.6-0.3 1.3-0.3 0.9 0 1.5 0.4 0.6 0.3 1.2 1v-0.3q0-0.5 0.2-0.8 0.3-0.3 0.7-0.3 0.6 0 0.7 0.4 0.2 0.4 0.2 1.1zm-5.8 2.5q0 1.2 0.6 1.8 0.5 0.7 1.3 0.7 0.5 0 1-0.3 0.4-0.3 0.7-0.8 0.3-0.5 0.3-1.3 0-1.2-0.6-1.9-0.5-0.7-1.4-0.7-0.8 0-1.3 0.7-0.6 0.6-0.6 1.8z"/><path class="c" d="m339.5 771.2v0.3q0.5-0.7 1.1-1.1 0.7-0.3 1.5-0.3 0.8 0 1.4 0.4 0.6 0.3 0.9 0.9 0.2 0.4 0.3 0.8 0 0.4 0 1.1v3.7q0 0.6-0.3 0.9-0.2 0.3-0.7 0.3-0.4 0-0.7-0.3-0.3-0.3-0.3-0.9v-3.3q0-1-0.2-1.5-0.3-0.5-1.1-0.5-0.6 0-1 0.3-0.5 0.3-0.7 0.8-0.1 0.5-0.1 1.7v2.5q0 0.6-0.3 0.9-0.3 0.3-0.7 0.3-0.4 0-0.7-0.3-0.3-0.3-0.3-0.9v-5.8q0-0.5 0.2-0.8 0.3-0.3 0.7-0.3 0.3 0 0.5 0.1 0.2 0.2 0.3 0.4 0.2 0.3 0.2 0.6z"/><path fill-rule="evenodd" class="c" d="m352.3 774.7h-3.9q0 0.6 0.3 1.2 0.2 0.5 0.7 0.8 0.4 0.2 0.9 0.2 0.4 0 0.7-0.1 0.3-0.1 0.6-0.2 0.3-0.2 0.5-0.4 0.2-0.2 0.6-0.6 0.2-0.1 0.4-0.1 0.3 0 0.5 0.2 0.2 0.1 0.2 0.4 0 0.3-0.2 0.7-0.2 0.3-0.6 0.7-0.5 0.3-1.1 0.5-0.7 0.2-1.5 0.2-1.9 0-3-1.1-1.1-1.1-1.1-2.9 0-0.9 0.3-1.7 0.3-0.7 0.8-1.3 0.5-0.5 1.2-0.8 0.8-0.3 1.7-0.3 1.1 0 2 0.5 0.8 0.5 1.2 1.3 0.4 0.8 0.4 1.6 0 0.7-0.4 0.9-0.4 0.3-1.2 0.3zm-3.9-1.2h3.6q-0.1-1-0.5-1.5-0.5-0.5-1.3-0.5-0.8 0-1.2 0.5-0.5 0.5-0.6 1.5z"/><path fill-rule="evenodd" class="c" d="m361.1 777.1v-0.2q-0.4 0.5-0.8 0.8-0.4 0.2-0.8 0.4-0.5 0.1-1 0.1-0.8 0-1.4-0.3-0.6-0.3-1-0.8-0.5-0.6-0.7-1.4-0.2-0.7-0.2-1.6 0-1.9 0.9-2.9 0.9-1.1 2.4-1.1 0.9 0 1.4 0.3 0.6 0.3 1.2 0.9v-2.9q0-0.6 0.3-0.9 0.2-0.4 0.7-0.4 0.4 0 0.7 0.3 0.2 0.3 0.2 0.9v8.8q0 0.6-0.3 0.9-0.2 0.2-0.6 0.2-0.5 0-0.7-0.3-0.3-0.3-0.3-0.8zm-3.9-2.9q0 0.8 0.2 1.3 0.3 0.6 0.7 0.9 0.5 0.3 1 0.3 0.5 0 0.9-0.3 0.5-0.3 0.7-0.8 0.3-0.6 0.3-1.4 0-0.8-0.3-1.4-0.2-0.6-0.7-0.9-0.4-0.3-0.9-0.3-0.6 0-1 0.3-0.5 0.3-0.7 0.9-0.2 0.6-0.2 1.4z"/><path fill-rule="evenodd" class="c" d="m370.6 768.3v3q0.6-0.6 1.1-0.9 0.6-0.3 1.5-0.3 1 0 1.7 0.5 0.8 0.5 1.2 1.4 0.4 0.9 0.4 2.1 0 0.9-0.2 1.7-0.2 0.7-0.7 1.3-0.4 0.5-1 0.8-0.7 0.3-1.4 0.3-0.5 0-0.9-0.1-0.4-0.1-0.7-0.3-0.3-0.1-0.5-0.3-0.2-0.2-0.5-0.6v0.2q0 0.6-0.3 0.9-0.2 0.2-0.7 0.2-0.4 0-0.6-0.2-0.3-0.3-0.3-0.9v-8.7q0-0.6 0.3-1 0.2-0.3 0.6-0.3 0.5 0 0.7 0.3 0.3 0.3 0.3 0.9zm0.1 5.9q0 1.2 0.5 1.9 0.6 0.6 1.5 0.6 0.7 0 1.3-0.7 0.5-0.6 0.5-1.8 0-0.8-0.2-1.4-0.2-0.6-0.7-0.9-0.4-0.3-0.9-0.3-0.6 0-1 0.3-0.5 0.3-0.8 0.9-0.2 0.6-0.2 1.4z"/><path class="c" d="m379.8 778.5l0.2-0.5-2.5-6.2q-0.2-0.5-0.2-0.7 0-0.3 0.1-0.5 0.1-0.2 0.4-0.4 0.2-0.1 0.4-0.1 0.5 0 0.7 0.3 0.2 0.3 0.4 0.8l1.7 4.9 1.6-4.6q0.2-0.5 0.3-0.9 0.2-0.3 0.4-0.4 0.1-0.1 0.4-0.1 0.3 0 0.5 0.1 0.2 0.2 0.3 0.4 0.1 0.2 0.1 0.4 0 0.1-0.1 0.4-0.1 0.2-0.1 0.5l-2.7 6.8q-0.3 0.9-0.6 1.4-0.3 0.6-0.9 0.8-0.5 0.3-1.4 0.3-0.9 0-1.3-0.2-0.5-0.2-0.5-0.7 0-0.3 0.3-0.5 0.2-0.2 0.6-0.2 0.1 0 0.3 0 0.2 0.1 0.3 0.1 0.4 0 0.6-0.1 0.2-0.1 0.3-0.4 0.2-0.2 0.4-0.7z"/><path class="c" d="m416.8 770.3h0.4v-0.6q0-1 0.3-1.5 0.2-0.6 0.8-0.8 0.6-0.3 1.5-0.3 1.8 0 1.8 0.9 0 0.3-0.2 0.5-0.2 0.2-0.4 0.2-0.1 0-0.4-0.1-0.3 0-0.5 0-0.5 0-0.7 0.3-0.2 0.3-0.2 0.9v0.5h0.5q1.2 0 1.2 0.7 0 0.5-0.3 0.6-0.3 0.1-0.9 0.1h-0.5v5.3q0 0.6-0.2 0.9-0.3 0.3-0.8 0.3-0.4 0-0.7-0.3-0.3-0.3-0.3-0.9v-5.3h-0.5q-0.4 0-0.7-0.2-0.2-0.2-0.2-0.5 0-0.7 1-0.7z"/><path class="c" d="m423.9 775.4v1.6q0 0.6-0.3 0.9-0.3 0.3-0.7 0.3-0.4 0-0.7-0.3-0.3-0.3-0.3-0.9v-5.5q0-1.4 1-1.4 0.5 0 0.7 0.3 0.2 0.3 0.2 1 0.4-0.7 0.8-1 0.4-0.3 1-0.3 0.6 0 1.2 0.3 0.6 0.3 0.6 0.9 0 0.3-0.2 0.6-0.3 0.2-0.6 0.2-0.1 0-0.5-0.1-0.4-0.2-0.8-0.2-0.4 0-0.7 0.3-0.3 0.2-0.4 0.6-0.2 0.5-0.2 1.1-0.1 0.7-0.1 1.6z"/><path fill-rule="evenodd" class="c" d="m433.7 774.7h-3.9q0 0.6 0.3 1.2 0.2 0.5 0.7 0.8 0.4 0.2 1 0.2 0.3 0 0.6-0.1 0.3-0.1 0.6-0.2 0.3-0.2 0.5-0.4 0.2-0.2 0.6-0.6 0.2-0.1 0.4-0.1 0.3 0 0.5 0.2 0.2 0.1 0.2 0.4 0 0.3-0.2 0.7-0.2 0.3-0.6 0.7-0.4 0.3-1.1 0.5-0.6 0.2-1.5 0.2-1.9 0-3-1.1-1.1-1.1-1.1-2.9 0-0.9 0.3-1.7 0.3-0.7 0.8-1.3 0.5-0.5 1.2-0.8 0.8-0.3 1.7-0.3 1.1 0 2 0.5 0.8 0.5 1.2 1.3 0.4 0.8 0.4 1.6 0.1 0.7-0.4 0.9-0.4 0.3-1.2 0.3zm-3.9-1.2h3.6q-0.1-1-0.5-1.5-0.5-0.5-1.3-0.5-0.7 0-1.2 0.5-0.5 0.5-0.6 1.5z"/><path fill-rule="evenodd" class="c" d="m442.6 774.7h-3.9q0 0.6 0.3 1.2 0.2 0.5 0.7 0.8 0.4 0.2 1 0.2 0.3 0 0.6-0.1 0.3-0.1 0.6-0.2 0.3-0.2 0.5-0.4 0.2-0.2 0.6-0.6 0.2-0.1 0.5-0.1 0.3 0 0.5 0.2 0.1 0.1 0.1 0.4 0 0.3-0.2 0.7-0.2 0.3-0.6 0.7-0.4 0.3-1.1 0.5-0.6 0.2-1.5 0.2-1.9 0-3-1.1-1-1.1-1-2.9 0-0.9 0.2-1.7 0.3-0.7 0.8-1.3 0.5-0.5 1.2-0.8 0.8-0.3 1.7-0.3 1.1 0 2 0.5 0.8 0.5 1.2 1.3 0.5 0.8 0.5 1.6 0 0.7-0.5 0.9-0.4 0.3-1.2 0.3zm-3.9-1.2h3.6q0-1-0.5-1.5-0.5-0.5-1.3-0.5-0.7 0-1.2 0.5-0.5 0.5-0.6 1.5z"/><path fill-rule="evenodd" class="c" d="m447.6 771.2v0.3q0.6-0.7 1.2-1 0.6-0.4 1.3-0.4 1 0 1.7 0.5 0.8 0.5 1.3 1.4 0.4 0.9 0.4 2.2 0 0.9-0.2 1.7-0.3 0.7-0.8 1.3-0.4 0.5-1 0.8-0.6 0.2-1.4 0.2-0.8 0-1.4-0.3-0.6-0.3-1.1-1v3q0 1.3-1 1.3-0.5 0-0.7-0.3-0.2-0.4-0.2-1v-8.7q0-0.5 0.3-0.8 0.2-0.3 0.6-0.3 0.5 0 0.7 0.3 0.3 0.3 0.3 0.8zm3.9 2.9q0-0.8-0.2-1.3-0.3-0.6-0.7-0.9-0.4-0.3-0.9-0.3-0.9 0-1.4 0.7-0.6 0.6-0.6 1.9 0 1.2 0.6 1.8 0.5 0.7 1.4 0.7 0.4 0 0.9-0.3 0.4-0.3 0.7-0.9 0.2-0.5 0.2-1.4z"/><path class="c" d="m456.1 769.2q-0.4 0-0.7-0.3-0.3-0.2-0.3-0.7 0-0.4 0.3-0.7 0.3-0.3 0.7-0.3 0.4 0 0.7 0.3 0.3 0.2 0.3 0.7 0 0.5-0.3 0.7-0.3 0.3-0.7 0.3zm1 2v5.8q0 0.6-0.3 0.9-0.2 0.3-0.7 0.3-0.4 0-0.7-0.3-0.3-0.3-0.3-0.9v-5.7q0-0.6 0.3-0.9 0.3-0.3 0.7-0.3 0.5 0 0.7 0.3 0.3 0.3 0.3 0.8z"/><path class="c" d="m464.2 777.3l-1.8-2.9-1.1 1.1v1.5q0 0.6-0.3 0.9-0.3 0.3-0.7 0.3-0.4 0-0.7-0.3-0.3-0.3-0.3-0.9v-8.5q0-0.7 0.3-1 0.2-0.4 0.7-0.4 0.5 0 0.7 0.4 0.3 0.3 0.3 0.9v4.8l2.3-2.3q0.4-0.5 0.6-0.6 0.2-0.2 0.5-0.2 0.4 0 0.7 0.2 0.2 0.3 0.2 0.6 0 0.5-0.8 1.2l-1.1 1 2.1 3.2q0.2 0.4 0.3 0.6 0.1 0.1 0.1 0.3 0 0.5-0.3 0.8-0.2 0.2-0.6 0.2-0.4 0-0.6-0.2-0.2-0.2-0.5-0.7z"/><path class="c" d="m469.1 778.2q-0.4 0-0.8-0.3-0.3-0.2-0.3-0.8 0-0.4 0.3-0.7 0.3-0.4 0.8-0.4 0.4 0 0.8 0.4 0.3 0.3 0.3 0.7 0 0.6-0.3 0.8-0.3 0.3-0.8 0.3z"/><path class="c" d="m479.7 775.8q0 0.3-0.3 0.8-0.2 0.4-0.7 0.8-0.4 0.4-1.1 0.6-0.7 0.2-1.6 0.2-1.8 0-2.9-1.1-1-1-1-2.9 0-1.2 0.5-2.1 0.4-1 1.3-1.5 0.9-0.5 2.2-0.5 0.8 0 1.4 0.2 0.7 0.2 1.1 0.6 0.5 0.4 0.7 0.8 0.2 0.4 0.2 0.7 0 0.4-0.2 0.6-0.3 0.3-0.7 0.3-0.2 0-0.4-0.1-0.1-0.2-0.3-0.5-0.4-0.5-0.8-0.8-0.4-0.3-1-0.3-0.9 0-1.5 0.7-0.5 0.7-0.5 1.9 0 0.6 0.1 1.1 0.2 0.4 0.4 0.8 0.3 0.3 0.7 0.5 0.4 0.1 0.8 0.1 0.6 0 1-0.2 0.5-0.3 0.8-0.9 0.2-0.3 0.4-0.5 0.2-0.2 0.5-0.2 0.4 0 0.6 0.3 0.3 0.3 0.3 0.6z"/><path fill-rule="evenodd" class="c" d="m488.9 774.2q0 0.9-0.3 1.6-0.3 0.8-0.8 1.3-0.5 0.6-1.3 0.9-0.7 0.2-1.6 0.2-0.9 0-1.6-0.3-0.8-0.2-1.3-0.8-0.5-0.5-0.8-1.3-0.3-0.7-0.3-1.6 0-0.9 0.3-1.7 0.3-0.7 0.8-1.3 0.5-0.5 1.3-0.8 0.7-0.3 1.6-0.3 0.9 0 1.6 0.3 0.8 0.3 1.3 0.8 0.5 0.6 0.8 1.3 0.3 0.8 0.3 1.7zm-2 0q0-1.2-0.6-1.9-0.5-0.7-1.4-0.7-0.6 0-1 0.3-0.5 0.3-0.7 0.9-0.3 0.6-0.3 1.4 0 0.8 0.3 1.3 0.2 0.6 0.6 0.9 0.5 0.4 1.1 0.4 0.9 0 1.4-0.7 0.6-0.7 0.6-1.9z"/><path class="c" d="m497.1 774.3v2.7q0 0.6-0.3 0.9-0.3 0.3-0.7 0.3-0.5 0-0.8-0.3-0.3-0.3-0.3-0.9v-3.2q0-0.8 0-1.2-0.1-0.4-0.3-0.7-0.2-0.2-0.7-0.2-1 0-1.3 0.6-0.3 0.7-0.3 2v2.7q0 0.6-0.3 0.9-0.3 0.3-0.7 0.3-0.5 0-0.8-0.3-0.3-0.3-0.3-0.9v-5.7q0-0.6 0.3-0.9 0.3-0.3 0.7-0.3 0.4 0 0.7 0.3 0.2 0.3 0.2 0.7v0.2q0.6-0.6 1.1-0.9 0.6-0.3 1.4-0.3 0.7 0 1.3 0.3 0.5 0.3 0.9 0.9 0.5-0.6 1-0.9 0.6-0.3 1.3-0.3 0.8 0 1.4 0.3 0.6 0.4 0.9 1 0.3 0.5 0.3 1.7v3.9q0 0.6-0.3 0.9-0.3 0.3-0.8 0.3-0.4 0-0.7-0.3-0.3-0.3-0.3-0.9v-3.4q0-0.6 0-1-0.1-0.4-0.3-0.7-0.3-0.2-0.8-0.2-0.4 0-0.7 0.2-0.4 0.2-0.6 0.6-0.2 0.5-0.2 1.8z"/><path class="c" d="m401 765q0-0.2-0.1-0.4c0.7-0.1 1.1-0.9 0.8-1.5-0.3-0.7-1.3-0.7-1.7-0.1-0.5 0.5-0.1 1.4 0.5 1.5q0.1 0.3 0.1 0.5c-1 0-2 0.3-2.8 0.8q0.1 0.4 0.2 0.8c1.7-0.8 3.6-0.6 5.4-0.4q0.1-0.4 0.2-0.8c-0.8-0.3-1.7-0.5-2.6-0.4z"/><path class="c" d="m411.2 767.7c-0.3 0.1-0.4 0.5-0.4 0.7-0.3 0.3-0.1 0.8-0.1 1.1-0.1 0.2-0.4 0.3-0.5 0.3q-0.4-0.5-0.8-1-0.5-0.5-1.1-0.8-0.5 0.5-1 1 0.9 1 1.7 2.1 0.5 0.9 0.8 1.8 0.8-0.4 1.5-0.8-0.4-0.9-0.9-1.8c0.2-0.1 0.5-0.3 0.6-0.6 0-0.3-0.1-0.6 0.1-0.9 0.4 0.2 1-0.1 1-0.5 0.1-0.5-0.5-0.9-0.9-0.6z"/><path fill-rule="evenodd" class="c" d="m409.8 774.7c-2.1 1.3-4.5 2.1-6.9 2.4-1.8 0.2-3.6 0.2-5.4 0.1-1.8 0-3.6-0.4-5.3-0.9-0.4-1.6-0.4-3.3 0.3-4.8 0.8-1.7 2.2-3 3.9-3.7 1.7-0.8 3.7-1.1 5.6-1.1 1.5 0 2.9 0.7 4.1 1.7 0.9 0.8 1.7 1.9 2.3 3 1.2 1.7 1.4 3.3 1.4 3.3zm-9.7-3.5c-0.1-0.6-0.5-1.2-1-1.5q-0.4-0.3-0.9-0.4c-0.7-0.2-1.4-0.2-2.1 0.2-0.8 0.4-1.4 1.3-1.5 2.3 0 0.8 0.3 1.5 0.8 2.1 0.7 0.8 2 1.1 3 0.7 0.6-0.2 1-0.6 1.4-1.1 0.4-0.6 0.6-1.5 0.3-2.3zm6-1.3c-0.4-0.1-0.8-0.2-1.1-0.1-0.9 0.2-1.4 1.1-1.3 1.9 0 0.4 0.2 0.7 0.4 1 0.4 0.4 0.8 0.6 1.3 0.6 0.9 0 1.7-0.7 1.8-1.5 0.1-0.8-0.4-1.7-1.1-1.9z"/><path class="c" d="m392.6 768.9c-0.8 0.5-1.3 1.1-1.8 1.7-0.2-0.2-0.2-0.5-0.4-0.8-0.1-0.1-0.3-0.1-0.4-0.1-0.2 0.1-0.4 0-0.6 0 0.2-0.3 0.2-0.8-0.2-1-0.3-0.2-0.8 0-0.9 0.4-0.2 0.4 0.3 0.9 0.7 0.8 0.3 0.3 0.7 0.3 1.1 0.3 0.1 0.2 0.2 0.6 0.4 0.8-0.3 0.8-0.6 1.6-0.6 2.5q0.8 0.3 1.5 0.6 0-0.8 0.2-1.6c0.1-1.2 0.8-2.2 1.6-3q-0.3-0.3-0.6-0.6z"/><path class="c" d="m404.1 777.6c-1.9 0.4-3.7 0.5-5.6 0.4-1.2 0-2.5-0.2-3.7-0.4-0.9-0.2-1.7-0.5-2.6-0.7 0.2 1.1 0.6 2.1 1.2 3 0.8 1.1 1.8 2 3 2.4 1 0.3 2.1 0.6 4.1 0.6 1.6-0.1 3.2-0.3 4.7-0.9 0.9-0.4 1.8-0.9 2.5-1.6 0.7-0.6 1.2-1.4 1.5-2.2 0.4-0.7 0.7-2.1 0.6-2.8-1.7 1-3.7 1.8-5.7 2.2z"/></g><path class="d" d="m260.6 62.8c-1.4-1.1-2.7-2.3-4-3.5q3.3-7.8 6.2-15.8c2.2-6.4 5.1-13.2 6.2-19.9 0.1-1-1.3-1.8-1.7-0.7-2.6 5.8-4 12.2-6 18.2-1.8 5.5-3.7 11-5.6 16.5q-0.1-6.7-0.2-13.3c-0.1-7.1 0.5-14.5-0.7-21.5-0.1-0.7-1.3-0.7-1.4 0-1 7-0.3 14.4-0.2 21.5q0.2 11.5 0.3 23.1c0 1.5 2.4 1.5 2.4 0q-0.1-3-0.1-6.1 0-0.1 0.1-0.3c1 1.2 2.1 2.3 3.1 3.4 1.4 1.5 3 3.4 4.9 4.1 0.9 0.3 1.6-0.8 1.2-1.6-1-1.7-3-2.9-4.5-4.1z"/><path fill-rule="evenodd" class="d" d="m282.1 63.6c-1.3 3.8-6.6 4.2-9.7 2.4-4.3-2.5-5.5-8.5-5-13.1 0.4-4 3.6-8.6 8.3-7.2 5.1 1.6 3.4 7.7 1.6 11.1-0.2 0.4-0.7 0.7-1.1 0.7q-2.9-0.1-5.8-0.2c1.1 4.9 4.9 9.5 9.9 5.2 0.7-0.7 2.2 0 1.8 1.1zm-12-9.1q0 0.5 0 1.1c2.8-0.3 5.5 0.2 6.3-3 1-3.8-3.5-6-5.5-2.4-0.7 1.3-0.8 2.9-0.8 4.3z"/><path class="d" d="m299.3 63.3c-0.1-4.1-0.4-8.1-1.1-12.1q0-0.8-0.2-1.4c-0.3-1.7-2.8-1-2.5 0.7q0.2 1.2 0.3 2.4c0.2 2.1 0.1 4.1-0.6 6.2-0.8 2.7-3.1 8.4-6.9 2.5-2-3.1-1-10.2-0.7-13.7 0-0.8-1.3-0.9-1.4-0.2-1.1 4.5-3.4 20.2 4.8 19.7 2.5-0.2 4.2-1.7 5.4-3.7q0 0.3 0 0.5-0.1 2.9-0.2 5.7c-0.1 0.8-0.5 9.7-3.9 6.6-1-1-2.6 0.2-1.9 1.5 2.2 4.2 7 1.3 8.1-2.2 1.2-3.8 0.8-8.6 0.8-12.5z"/><path class="d" d="m324.3 54c-0.1-1.6-2.6-1.6-2.5 0 0.1 2 0.1 3.8-0.3 5.8q-0.1 1.1-0.5 2.1-0.9 3.8-5.7 1.8c-0.8-0.9-1.1-2.3-1.3-3.8 0.6-3.2 0.5-6.6 0.4-8.5 0-1.2-2.1-1.7-2.3-0.3-0.3 1.4-0.5 3.5-0.6 5.8-0.7 4.5-2.2 9.7-5.1 5.9-1.2-1.5-1.3-5-1.5-6.7-0.1-2.4 0-4.7 0.3-7.1 0.1-0.9-1.4-1.1-1.7-0.2-1.3 4.5-2.9 17.5 4.1 18.5 2.4 0.3 4-1 5-2.9 0.9 2 2.4 3.4 4.9 3.5 6.5 0.3 7.1-9.5 6.8-13.9z"/><path fill-rule="evenodd" class="d" d="m332.9 66.9c-8.3-1.1-5.7-18.8 1.6-15.8q0.2 0.2 0.4 0.4c5.8-0.7 7 16.5-2 15.4zm3-12.2c-0.6-0.6-1.6-0.9-2.2-1.3q-0.3-0.2-0.4-0.5c-3.7 1.6-4 11.5 0.7 11.2 2.3-0.1 2.8-4 2.8-5.7 0.1-1.2 0-2.8-0.9-3.7z"/><path class="d" d="m351 51.2c-2.1 0.1-4.1 2.2-5.3 3.7q-0.2 0.3-0.4 0.5c0-1.9-0.2-3.8-0.7-5.5-0.2-0.8-1.6-0.9-1.8 0-0.6 2.7-0.3 5.5-0.4 8.3q-0.1 4.6-0.5 9.3c0 0.9 1.6 1.2 1.8 0.2 0.4-2.1 0.9-4.4 1.2-6.8 0.7-1.7 1.6-3.2 2.8-4.6q0.9-0.9 2-1.7c0.7-0.5 1.5-0.8 2-1.5 0.6-0.7 0.3-1.9-0.7-1.9z"/><path fill-rule="evenodd" class="d" d="m372 45c-0.4 7.2-0.6 14.5-1.6 21.6-0.2 1.3-2 1.1-2.4 0-1.4 2.1-4.4 3-6.9 2.3-3.9-1.3-5.7-5.7-5.4-9.5 0.2-3.8 1.9-8.5 5.5-10.2 2.9-1.3 5.6-0.1 7.4 2q0.4-4.1 0.7-8.1c0.5-7.1 0.7-14.4 2.1-21.4 0.2-0.9 1.4-0.6 1.4 0.2 0.5 7.6-0.4 15.5-0.8 23.1zm-4 18c0-3.1 0.2-6.1 0.4-9.2-1.9-2.1-4.8-3.7-7.2-1.1-1.4 1.5-2.1 3.6-2.5 5.7-0.4 2.4-0.2 5.6 2.1 7.1 2.6 1.6 4.7 0.4 5.9-2.1 0.3-0.5 0.8-0.6 1.3-0.4z"/><path class="d" d="m386.1 62c-0.3-2-1.7-3.1-3.4-3.9-1.1-0.5-2.8-0.7-3.7-1.5-3-2.8 1.3-5.4 4.1-5 0.7 0.1 1.2-0.8 0.5-1.2-4-2.5-9.4 0.8-8.2 5.7 0.6 2.1 2.3 3.2 4.2 3.9 0.6 0.3 1.3 0.4 1.8 0.7 0.8 0.5 2 1.4 1.5 2.7-0.9 2.5-5.1 1.2-7 1.3-1 0.1-1.7 1.7-0.6 2.3 3.8 1.8 11.4 0.7 10.8-5z"/><path class="e" d="m51.7 414.1c-0.4 2.8 0.7 8-2.3 9.6q-1.9 1.9-2.9-1.6 0-1.3 0-2.6-0.1-1.2-0.1-2.4c0.1-1 0.1-2 0-2.7-0.2-1.5-2.4-1.6-2.4 0 0 1.2-0.3 3.1-0.3 4.9q0 0.1-0.1 0.3-0.3 1.3-1 2.6-4.1 1.8-4.8-1c-1.5-2.6-0.6-7 0-9.6 0.3-0.8-1-1.5-1.4-0.6-1.8 4.2-3.2 12.5 2.3 14.8 2.5 1 4.3 0.2 5.5-1.5 0.7 1.7 2 2.9 4.5 2.7 6.3-0.4 5.3-8.6 5.5-12.9 0.1-1.7-2.4-1.6-2.5 0z"/><path class="e" d="m82.4 414.1c-0.2-1.1-1.8-0.9-2.1 0-0.8 2.7 0.3 13.9-5 11.9-2.3-0.9-2.7-3.6-2.7-6.3 0.1-1.9 0.3-3.8 0.1-5.6-0.1-1.1-1.7-1.5-2-0.3-0.5 2.7 0.3 11.7-3.8 11.4-5.1-0.5-3.3-7.9-2.7-10.9 0.2-0.8-1-1.5-1.4-0.6-1.9 4.4-3.3 12.5 3.1 13.9 2.2 0.5 4.4-0.3 5.5-2.1 0.7 1.9 2 3.2 4.6 3.4 6.8 0.4 7.1-10.3 6.4-14.8z"/><path class="e" d="m112.4 414.3c-0.6-1-1.9-0.5-2 0.5-0.2 2 0.2 3.9-0.2 5.9-0.4 2-1.4 4.9-3.7 5.3-4.6 0.7-4-8-4.1-10.8 0-0.7-0.9-1-1.3-0.6-0.5-0.7-1.8-0.5-2 0.3-0.8 3.5 0.1 8.7-2.8 11.3-2.3 2-4-2.2-4.4-4.1-0.4-2.5-0.1-5.1 0.1-7.6 0-0.7-1.1-0.8-1.3-0.2-1 3.5-1.7 7.1-0.6 10.7 0.7 2.2 2.6 5.4 5.4 5 2.7-0.4 4.4-3.1 5.3-6.2 0.6 3.2 2.3 5.7 5.9 5.3 5.9-0.6 8.6-10.5 5.7-14.8z"/><path class="f" d="m44.2 287.6c-0.8-5.3-4.9-8.9-7.7-13.1-3.1-4.8-7.3-22.6 4.2-19.8 1 0.2 1.5-1.1 0.7-1.7-7.7-5.2-11.7 6.3-11.3 12.1 0.4 4.5 2.2 8.5 4.8 12.1 1.9 2.6 4 4.8 5.4 7.7 2.3 4.9 0.4 11.3-6.3 9.1-1.2-0.4-1.9 1.2-1.2 2 2.1 2.4 5.5 2.4 8.1 0.6 2.9-2 3.8-5.7 3.3-9z"/><path class="f" d="m53.6 267.3q-1.1-0.2-2.2-0.3-0.1-6-0.3-11.8c0-1.4-2.1-1.4-2.2 0q-0.3 5.8-0.7 11.7c-1.1 0-2.3 0-3.4 0-1.4-0.1-1.4 2 0 2.2 1 0.1 2.1 0.2 3.3 0.4-0.5 8.9-0.9 17.9-0.6 26.7 0 1 1.7 1.4 1.9 0.2 1.4-8.6 1.9-17.7 2-26.6q0.9 0 1.8-0.1c1.3-0.2 1.8-2 0.4-2.4z"/><path class="f" d="m63.9 279.9c-2.3 0.9-3.9 2.8-5 5q-0.1-2.8-0.3-5.5c-0.1-1-1.4-1-1.5 0-0.5 5.2-0.6 10.6-0.7 15.9 0 1.6 2.5 2 2.8 0.4 0.6-4.4 1.3-11.2 5.8-13.3 1.4-0.6 0.4-3-1.1-2.5z"/><path fill-rule="evenodd" class="f" d="m76.5 298.7c-4.4 0.6-9.7-4.3-8.7-8.8 1.2-5.5 7.2-5.1 11.4-3.7-0.8-3.8-3.2-7.2-7.3-6.5-1.3 0.2-1.8-1.6-0.5-2 11.3-3.1 15.5 19.4 5.1 21zm3-9.4q-0.1-0.1-0.3-0.1c-2.5-1-10.8-2.3-7.7 3.5 1.7 3.3 6.3 3.5 7.5-0.3 0.3-0.9 0.5-2 0.5-3.1z"/><path class="f" d="m91.8 267c-0.6-0.4-1.2-0.6-1.9-0.7 0.5-4.6 1-9.1 1.1-13.7 0-0.8-1.1-0.9-1.4-0.2-1.3 4.4-2.1 9.1-2.6 13.7q-2.5-0.1-4.9 0.5c-1.2 0.2-0.9 2.1 0.2 2 1.5 0 3-0.1 4.5 0q-0.3 2.9-0.5 5.7c-0.5 7.2-1.3 15.1 0.2 22.2 0.2 0.9 1.7 0.9 1.8 0 1.1-6.9 0.4-14.2 0.8-21.2q0.2-3.1 0.5-6.2c0.6 0.1 1.3 0.2 1.9 0 1.1-0.2 1-1.5 0.3-2.1z"/><path fill-rule="evenodd" class="f" d="m107.5 296.1c-2 3.4-6.8 2.9-9.5 0.8-3.8-3-4.1-8.9-3.2-13.3 0.8-4 4.3-7 8.5-5.1 3.9 1.8 4.2 6.3 2.6 9.9-0.2 0.4-0.7 0.6-1.1 0.6q-3.9 0.1-7.7-0.6c0.3 4.9 3.8 9.3 8.9 6.3 0.9-0.6 2 0.5 1.5 1.4zm-10.4-9.8c2.2 0.3 4.4 0.3 6.7 0.1 0.9-2.9-0.6-7.1-4.2-5.5-2 0.8-2.5 3.3-2.5 5.4z"/><path class="f" d="m127.5 295.3c-0.7-5.1-1.2-10.3-2.6-15.2-0.2-0.8-1.4-0.6-1.4 0.2 0 4.1 0.4 8.2 0.9 12.2-0.3 0-0.6 0.2-0.8 0.5-1.3 1.9-3.1 3.4-5.5 2.7-2.8-0.7-3.5-3.4-3.4-6 0.1-4.3 2.5-7.9 6.9-8.6 0.8-0.1 0.8-1.5 0-1.6-7.6-1.6-11.3 8-9.3 14 1.8 5.6 9.9 7 12.5 2q0.1 1 0.2 1.9c0.7 6 2.3 17.4-5.9 18.5-0.8-0.7-1.4-1.6-1.7-2.6-0.7-3 2.1-3.7 4-5 0.5-0.3 0.6-1.2 0-1.5-3.4-1.8-6.9 2.7-6.9 5.8 0.1 1.8 0.9 3.6 2.4 4.6q0.2 0.2 0.4 0.3 0.2 0.4 0.6 0.6c6.2 2.6 9.8-4.6 10.4-9.5 0.6-4.5-0.2-9-0.8-13.3z"/><path class="f" d="m145.7 290.2c0.2-3-0.2-6.1-0.7-8.4q-0.1-0.2-0.1-0.5 0-0.4-0.2-0.5c-0.4-0.6-1.6-0.6-1.7 0.2-0.7 4.3 2 13.3-3.1 15.5-4.6 2-6.1-5.2-6.4-8-0.3-2.8 0-5.6 0.1-8.4 0.1-1-1.5-1.2-1.8-0.2-1.4 5.5-2.2 19.7 6.5 19.8 2.1 0 3.6-0.7 4.7-1.8q0 0.8 0 1.6c-0.1 2.9-0.2 5.8-0.4 8.6-0.1 1.2-0.2 2.6-0.6 3.7q-3.5 6.7-5 0.9-3.2-2.7 0.6-4.1c1.3-0.7 0.4-2.7-0.9-2.3-8.4 2.5-3.7 15 4.2 11.4 4.3-1.9 4.5-7.5 4.7-11.5 0.3-5.3 0.4-10.7 0.1-16z"/><path class="g" d="m55 136.4c-1.8-0.6-3.8-0.3-5.7-0.4-2 0-4.1 0-6.2 0.1-1.6 0.1-1.5 2.3 0 2.5 1.5 0.2 2.9 0.3 4.4 0.4-0.5 6.9-0.3 13.9-0.3 20.9 0 6.7-0.6 14.1 0.7 20.7 0.3 1.5 2.2 1 2.4-0.3 0.9-6.9-0.1-14.4-0.3-21.4-0.2-6.6-0.1-13.2-0.5-19.8 1.8 0.2 3.7 0.5 5.5 0 1.4-0.3 1.2-2.2 0-2.7z"/><path class="g" d="m67.6 163c-3.2 0.3-5.3 3.4-6.7 7q-0.2-2.7-0.5-5.4c-0.1-1.1-1.7-1.2-1.8 0-0.2 5.1-0.1 10.3 0 15.5 0 1.5 2.6 2 2.9 0.3 1-5.9 2.6-11.2 6.9-15.5 0.6-0.6 0.2-2-0.8-1.9z"/><path fill-rule="evenodd" class="g" d="m77.1 183.8c-5.1-0.2-7.6-6.1-5-10.2 2-3 6.2-4 9.2-2.4-0.5-3.8-2.6-7.5-6.8-7.2-1.3 0.1-1.6-1.9-0.3-2.2 12.4-2.8 14.5 22.5 2.9 22zm4.1-8.1q0.1-0.6 0.2-1.2c-2.5-1-5.6-1.8-6.7 1.5q-1.4 1.7 0.6 2.9 0.8 2.6 2.9 1c2.2-0.7 2.6-2 3-4.2z"/><path class="g" d="m99.7 135.4c-8.6 4.5-8.1 17.4-7.9 25.7q0.1 6.7 0.4 13.6-1.2-0.1-2.4 0c-1 0-1.4 1.7-0.2 1.9q1.4 0.3 2.8 0.4c0.4 8 1.2 16.1 2.1 23.9 0.3 1.9 3.1 2.1 3.1 0-0.1-7.9-0.9-15.8-1.5-23.7q0.2-0.1 0.4-0.2c0.7-0.4 0.6-1.3 0-1.8q-0.3-0.2-0.6-0.3-0.3-3.6-0.5-7.1c-0.6-9.2-2.8-24.4 5.3-31 0.8-0.7-0.2-1.9-1-1.4z"/><path class="g" d="m113.7 137.1c0.5-0.5 0.1-1.7-0.8-1.4-3.7 1.6-5 5.2-5.8 9-1.2 6.4-1.7 13-1.7 19.5q-0.1 5.4 0.3 10.7-1.4 0-2.8 0c-1.2 0-1.6 2-0.3 2.1q1.6 0.3 3.3 0.5 0.3 3.5 0.8 7.1c0.8 6.2 1.7 13.1 4.4 18.8 0.5 1.2 2.6 0.7 2.5-0.7-0.5-5-2.1-9.9-3-14.9q-0.8-4.9-1.2-9.8c0.9 0.1 1.7 0.1 2.5-0.4 0.6-0.4 0.8-1.3 0.2-1.8-0.9-0.8-1.9-0.9-3-0.8q-0.2-2.6-0.2-5.2-0.3-7.9 0.3-15.7c0.5-5.8 0.5-12.4 4.5-17z"/><path class="g" d="m119.9 161.5c-0.1-0.9-1.4-1.1-1.7-0.2-1.5 6-1.6 12.8-1.2 19 0.2 2.1 3.4 2.1 3.4 0-0.2-6.2 0-12.6-0.5-18.8z"/><path class="g" d="m121.1 152.1c-0.3-0.9-1-1.6-2-1.6-0.7 0-1.3 0.3-1.8 0.7-0.6 0.7-0.7 1.5-0.6 2.4 0.2 0.7 0.9 1.3 1.5 1.5 0.7 0.1 1.2 0.1 1.8-0.2q-0.3 0.1 0 0 0.3-0.1 0.6-0.2c0.9-0.5 1.2-1.8 0.5-2.6z"/><path class="g" d="m135.4 178.8c-1.6 0.1-3.1 0.6-4.7 0-2.2-0.9-3.4-3.1-4-5.3-1.1-4.6 1-9.4 6-10.2 0.9-0.1 0.9-1.8 0-1.9-7.2-1.1-10.7 6.3-9.4 12.5 0.7 3.2 2.5 6.2 5.4 7.7 2.4 1.2 5.8 1.5 7.6-0.7 0.6-0.8 0.3-2.1-0.9-2.1z"/><path class="h" d="m82.2 532.6c0-7.5-0.1-15.1 0-22.6 0-1.4-1.9-1.8-2.5-0.7q-3 4.8-5.6 9.7c-1.3-3.4-2.6-6.9-4.2-10.2-0.1-0.4-0.5-0.5-0.8-0.4-0.7-0.6-2.2-0.3-2.1 0.9 0.4 15-0.6 29.8-1.1 44.8 0 0.9 1.5 1.2 1.7 0.2 2.2-13.1 2.5-26.7 2.1-40.1 0.9 3 1.9 5.9 2.8 8.8 0.4 1.1 2.1 1.6 2.7 0.4q2.1-4.2 4.3-8.3c0.1 5.9 0.1 11.7 0.1 17.5 0 6.9-0.6 14.2 0.4 21 0.1 1 1.9 1 2 0 0.9-6.8 0.3-14.1 0.2-21z"/><path fill-rule="evenodd" class="h" d="m93.6 554.7q-0.3-0.1-0.5-0.3c-3.4-1-5.7-5.1-4.2-9.1 1.7-4.7 8.7-7.3 12.9-4.4q0-0.2-0.1-0.4c-2-5.1-6.5-8.2-12-8.1-1.1 0.1-1.1-1.6 0-1.7 8.1-0.9 14.7 5 15.6 13 0.7 6.3-4.7 13.8-11.7 11zm9-10.8q-0.2 0-0.5 0c-1.9-0.5-3.4-1.6-5.5-1.5-2 0.2-3.9 1.2-4.9 3-1.8 3.1 0.1 6.6 3.1 7.5 3.3-0.5 6.7-1.6 7.7-5.2 0.3-1.3 0.3-2.5 0.1-3.8z"/><path class="h" d="m117.6 534.4c-2.9 2-4.8 4.6-6 7.5q-0.2-5.2-0.3-10.4c0-1-1.4-1-1.5 0-0.7 7.1-0.8 14.2-0.6 21.3 0 1.8 2.6 1.7 2.7 0 0.6-6 1.7-12.4 7.1-16.1 1.3-1 0-3.3-1.4-2.3z"/><path class="h" d="m142.4 553.8c-0.5-3.1-3.2-5.9-5.1-8.3-2.2-2.6-4.5-5.2-7.1-7.5 1-3.4 1.9-6.8 2.9-10.2 1.7-5.5 4.3-11.1 5.2-16.7 0.2-0.9-1-1.6-1.5-0.7-2.8 4.8-4 10.7-5.5 16-1 3.6-2 7.3-2.9 11.1q-0.1 0.1-0.1 0.3-0.2 0.8-0.3 1.6c-0.2-2.8-0.5-5.6-0.6-8.3-0.4-7.2-0.9-14.4-1.9-21.6-0.1-0.8-1.4-0.6-1.4 0.2 0.1 7.8 0.5 15.6 0.8 23.3 0.3 7.2-0.2 14.7 0.9 21.8 0.2 1.3 2 0.8 2.1-0.3 0.4-3.2 0.4-6.5 0.3-9.8q0 0 0 0 0.8-2.5 1.5-5c2.1 2.6 4.1 5.1 6 7.8 1.6 2.5 3 5.5 5.3 7.3 0.7 0.6 1.5-0.3 1.4-1z"/><path fill-rule="evenodd" class="h" d="m159.1 551.4c-1.5 4.1-7.2 4.8-10.5 2.7-4.7-3.1-4.4-9.8-3.4-14.5 0.9-4.7 3.6-10.8 9.4-9.6 4.5 0.9 6.1 5.6 4 9.4-0.2 0.3-0.5 0.4-0.8 0.4q-0.1 0.1-0.2 0.2c-1.5 0.7-3.1 0.5-4.7 0.5q-2.7 0-5.3 0-0.3 1.9-0.4 3.7c-0.1 3.2 0.6 7.3 4.2 8.3 2.5 0.6 4.5-0.8 6.5-2 0.6-0.3 1.4 0.2 1.2 0.9zm-11.1-12.8q2.2-0.2 4.5-0.4c1.5-0.2 3.3-0.6 4.7-0.1 0.7-2.7-0.8-5.5-3.9-5.8-2-0.2-3.8 2.3-4.4 3.8q-0.6 1.2-0.9 2.5z"/><path class="h" d="m170.7 524.2q-1.6-0.4-3.3-0.5c-0.4-4.7-0.8-9.4-1.5-14-0.1-1-1.5-1-1.5 0-0.2 4.6-0.2 9.2-0.1 13.9-1.5 0-3.1 0-4.5-0.1-1 0-1 1.4 0 1.5 1.5 0.1 3 0.4 4.6 0.6 0.3 9.6 0.9 19.3 1.7 28.8-0.2 1.6 2.7 2 2.7 0.1-0.2-9.4-0.5-19-1.2-28.5q1.5 0.1 2.9 0c1 0 1.3-1.6 0.2-1.8z"/><path class="h" d="m177.4 530.7c-0.1-1-1.4-0.9-1.5 0-0.9 7.4-1.1 15.7 0.5 23 0.3 1.4 2.4 1 2.4-0.3 0-7.5-0.9-15.2-1.4-22.7z"/><path class="h" d="m179.5 522.7q-0.1-0.4-0.4-0.7c-0.5-0.7-1.5-0.7-2.2-0.3-0.7 0.3-1.3 0.9-1.3 1.8-0.1 0.9 0.5 1.6 1.2 2.1 0.5 0.3 1.3 0.3 1.8 0q0.2-0.2 0.3-0.3c0.5-0.2 1-0.6 1.1-1.1 0.1-0.5-0.1-1.1-0.5-1.5z"/><path class="h" d="m193.2 533.4c-2.1-1.3-4.5-1.3-6.3 0.4-0.5 0.5-1.1 1.2-1.6 2.1q-0.1-1.5-0.2-2.9c0-0.9-1.3-0.9-1.4 0-0.8 6.4-1.9 15.2 0.3 21.4 0.3 0.8 1.7 1 1.9 0 0.7-3.3 0.1-6.7-0.1-10q-0.1-2.1-0.2-4.2c0.3-0.1 0.5-0.4 0.4-0.7q0.2-1.5 1-2.8 5.1-3.2 6.9 1c1 1.8 1.5 3.9 1.9 6 0.6 3.6 0.1 7.2 0.3 10.8 0.1 1.1 1.9 1.5 2.1 0.2 1.1-6.2 1-17.3-5-21.3z"/><path class="h" d="m215.8 535.3c0.6 0 0.8-0.8 0.3-1.1-7.5-4.9-13.3 5.7-12.7 11.9 0.4 3.3 1.9 6.8 5.1 8.2 2.5 1.2 6.3 0.8 7.6-2 0.4-0.8-0.5-2-1.4-1.4-5.2 3.4-8.8-1.3-8.8-6.6 0-6 4.2-9.2 9.9-9z"/><path class="h" d="m219.3 548.5c-0.4-4.7-0.7-9.5-1.8-14-0.1-0.6-1-0.5-1 0.1-0.4 4.9 0.2 9.9 0.5 14.9 0.3 4.1 2.5 14-4.8 13.4-0.4-0.3-0.7-0.7-0.8-1.2-0.2-1.3 1.1-2 2.2-2.2 0.9-0.1 0.8-1.5 0-1.7-2.4-0.6-4.8 1.9-4.2 4.3 0.3 0.9 0.9 1.7 1.8 2.1q0.1 0.3 0.3 0.5c4.1 2.8 7.9-1.8 8.5-5.6 0.5-3.4-0.3-7.3-0.7-10.6z"/><path class="f" d="m329.8 175.9c-0.3-7-0.3-14-0.7-21-0.1-1.1-1.6-1.1-1.7 0-0.4 7.3-0.1 14.7 0.1 22q0 2.4 0 5-0.2-0.3-0.5-0.4c-2.8-0.7-6.5-0.1-9.3 0.5q-0.1 0-0.2 0.1c-0.1-2.9-0.2-5.3-0.1-6.1 0.1-7 0.5-14.1 0.1-21.1 0-1-1.4-1-1.5 0-0.8 7.6-0.9 15.4-1.1 23q-0.2 5.8-0.3 11.5c-0.1 2.6-0.8 6.2 0.1 8.7 0.2 0.5 0.8 1.1 1.4 0.8q0.2-0.1 0.3-0.1c0.7-0.3 0.9-0.9 0.6-1.5q0-0.1 0-0.2c-0.2-0.3-0.6-0.4-0.9-0.4 1.3-0.3 1.5-7.2 1.4-13q0.2 0.1 0.4 0.1c1.6-0.1 3.2-0.2 4.8-0.3 1.4 0 2.9 0.2 4.3-0.1q0.3-0.1 0.5-0.3c0 4.7 0.1 9.6 1.1 14.1 0.2 1.2 1.8 0.8 1.9-0.2 0.6-6.9-0.5-14.2-0.7-21.1z"/><path class="f" d="m343.3 153.7c-1.7-0.8-4-0.3-5.8-0.3-1.3 0.1-3.3-0.3-3.9 1.1-0.3 0.7 0.2 1.4 1 1.3q0.2-0.1 0.5-0.2 0-0.1 0-0.1c1-0.3 2.7 0.1 3.6 0.2q0.5 0 0.9 0c-0.3 7.1-0.5 14.1-0.6 21.2-0.2 7.1-0.9 14.6-0.1 21.6 0.1 1 1.8 1.5 2 0.3 1-6.8 0.5-14 0.5-20.9 0-7.4 0-14.8-0.2-22.1 0.8 0 1.5-0.1 2.1-0.4 0.7-0.3 0.7-1.4 0-1.7z"/><path class="f" d="m359.2 190.5c0-4.2 0.1-8.4 0.1-12.6 0.1-8-0.1-16.1 0-24.1 0-1.3-1.7-1.7-2.3-0.7q-1.9 3.3-3.8 6.6c-1-1.6-1.9-3.2-2.8-4.9q0-0.4 0-0.7c0-1.3-1.9-1.3-2 0-0.7 14.5-1.1 29.6 0 44 0 0.8 1.1 0.8 1.2 0 1.2-12.7 1.3-26 1-38.9q0.8 1.6 1.8 3.2c0.4 0.8 1.5 0.8 2 0q1.3-2 2.5-4.1c0.1 7.8 0 15.7 0.1 23.5 0 4.5 0.5 9.3-0.3 13.7-0.2 1.4-0.8 2.3 0.2 3.5 0.5 0.5 1.5 0.4 1.9-0.3q0.1-0.1 0.2-0.3c0.1-0.3 0.1-0.7 0-1.1 0.1-0.3 0.3-0.9 0.3-1 0.6-0.8-0.1-4.5-0.1-5.8z"/><path class="f" d="m374.9 197.4c-1.9-0.3-3.7-0.4-5.6-0.4-1.4-14-2.5-28-4.9-41.9-0.1-0.7-1.4-0.6-1.3 0.2 0.8 14.3 2.6 28.6 3.7 42.9 0.1 0.8 0.6 1.3 1.3 1.3 2.2 0.2 4.3 0.4 6.5 0.3 1.3-0.1 1.7-2.2 0.3-2.4z"/><path class="i" d="m113.7 664.1c-3.6-2.2-8.2-3.9-10.2-7.8-3.1-6.2 2.4-15.2 9.6-12.8 0.6 0.2 1.1-0.6 0.6-1-7.9-6.3-15.9 6.6-13.2 13.8 2.2 5.8 8.4 7.8 13.1 11 3.9 2.7 7.3 7.2 6 12.2-1.7 6-8.1 6.8-12.1 2.6-0.6-0.6-1.9 0.1-1.6 1 4.1 9.7 16.8 2.8 16.7-5.9 0-5.9-4.1-10.2-8.9-13.1z"/><path fill-rule="evenodd" class="i" d="m140.2 684.9c-2.6 3.2-7.8 2-10.2-0.8-3.2-3.6-3.3-9.8-2.1-14.1 1.2-4 5.2-8 9.7-6.1 4.6 1.8 3.6 7.5 2.3 11.1-0.3 0.8-1.3 0.6-1.4 0-1.6 0-3.2-0.3-4.8-0.4-1.3-0.1-2.6 0-3.9-0.1-0.1 5.2 2.8 12.3 9 8.7 1.2-0.7 2.1 0.8 1.4 1.7zm-10.3-11.9c1.5-0.4 3.1-0.3 4.6-0.3 1.4 0 2.9 0 4.3 0.4 0.2-1.1 0.4-2.2 0.3-3.2-0.2-2.9-3.3-5.1-6-3.5-2.2 1.4-3 4.1-3.2 6.6z"/><path class="i" d="m157 670.6c-0.9-2.5-8.1-11.1-10.6-5.9-0.2 0.5 0.4 1.1 0.9 0.6 1.2-1.3 4.8 1.8 5.4 2.5 0.9 1 1.3 1.8 1.8 3 1.1 2.5 1.6 5.4 1.1 8.1-0.3 1.7-0.7 3-2 4.2-2.1 1.8-6.9 1.4-6.4-2.1 0.5-4.2 4.3-3.9 7.2-2.8 0.8 0.3 1.3-0.8 0.8-1.4-3-3.5-9.4-1.6-10.3 2.9-1 4.7 3.4 8.6 7.9 6.9 6.3-2.3 6.2-10.8 4.2-16z"/><path class="i" d="m172.1 666c-3.9 1.9-6.5 6-8 10.4q-0.7-6.3-1.2-12.7c-0.1-0.8-1.3-0.8-1.4 0-0.2 7.1 0.3 14 1.3 21q0 0.2 0 0.3c0.2 1.5 2.5 1.1 2.5-0.3 0.1-3.7 0.9-7.2 2.7-10.4 1.4-2.7 3.6-4.7 5.3-7.1 0.6-0.8-0.5-1.5-1.2-1.2z"/><path class="i" d="m189.3 683.9c-4.9 2.3-9.9-1.3-10.5-6.6-0.5-5.6 4.3-9.4 9.5-9.7 0.7-0.1 1-1.3 0.2-1.4-7.3-1.2-13.8 5.4-12.3 12.6 0.8 3.5 3.2 6.6 6.4 8.1 2.7 1.2 6.6 1.4 8.1-1.6 0.5-0.9-0.4-1.8-1.4-1.4z"/><path class="i" d="m206.9 665.9c-2.5-2-6.4-1.8-8 0.4q-0.1-0.6-0.1-1.3c-0.7-7.6-1-15.3-2.4-22.8-0.1-0.7-1.1-0.5-1.1 0.1-0.3 7.5 0.6 15.2 1.1 22.7 0.5 7.1 0.2 14.3 0.8 21.3 0.1 1 1.4 1.2 1.7 0.2 1.5-5.1 0.9-10.9 0.4-16.5q0-0.1 0-0.2 4.9-5.1 7-1.3 1.1 1.2 1.5 2.9c0.4 1.2 0.7 2.6 0.9 3.9 0.7 3.6 0.6 7.1 0.8 10.7 0.1 1.1 1.7 1.4 2 0.2 1.4-5.6 0.4-16.3-4.6-20.3z"/><path class="j" d="m389.5 578q-2.5-0.2-4.9-0.3c-0.3-0.3-0.6-0.3-0.9-0.1q-0.2 0-0.4 0c-1.6-0.1-3.4-0.6-4.8 0.3-0.4 0.2-0.5 0.7-0.2 1 1.3 1.1 3 1 4.6 1.2q0.2 0 0.4 0c-0.5 7.1-0.4 14.3-0.4 21.4 0 7-0.8 14.7 0.5 21.6 0.1 0.8 1.4 0.8 1.6 0 1.2-6.9 0.4-14.5 0.4-21.6 0-7.1 0.1-14.2-0.4-21.2q2.2 0.3 4.5 0.5c1.8 0.1 1.8-2.7 0-2.8z"/><path class="j" d="m407.4 605.7c-1.3-6.5-6.3-13.8-13.9-11.6-0.2 0.1-0.2 0.5 0.1 0.5 8.9 0.6 11.3 9.3 11.7 16.8 0 1.5 0.1 3-0.1 4.5q-0.1 2.4-1.8 4.4-2.6 0.5-5.2 1c-3-0.8-5-5.9-2-8.1 2.1-1.5 6.1-0.9 7.8 1 0.5 0.6 1.6-0.2 1.2-0.9-2.7-4.1-10.8-3.9-12.9 0.8-2.4 5.4 4.7 12 9.9 10.4 7.5-2.4 6.4-12.9 5.2-18.8z"/><path fill-rule="evenodd" class="j" d="m426.8 645.8c-8.3 9-18.2-7.7-8.5-8.9 1.2-0.2 1.2 1.6 0.2 2q4.3 9.4 7.3 3.6 0.9-1.9 0.9-3.9c0.2-1.5 0.1-3 0.1-4.6-0.2-3.8-0.4-7.6-0.5-11.5q-0.1-0.6-0.1-1.2c-8.6 9-15.9-3.3-15.5-12.2 0.2-4.3 1.9-9.3 5.8-11.7 3.3-1.9 7.5-1.8 10.1 1.1q0.1 0.2 0.1 0.5c0.2 0 0.4 0.1 0.4 0.4 1.8 8.7 1.6 18.1 2.1 27 0.3 5.9 2.1 14.5-2.4 19.4zm-0.7-26.6c-0.3-6.5-0.9-13.1-0.2-19.5q-0.1-0.1-0.2-0.1c-15.8-9.7-16.8 30.9-0.4 19.7 0.3-0.2 0.6-0.2 0.8-0.1z"/><path class="e" d="m305.7 724.7c-2.2-6.4-9.8-7.2-13.6-12-2.9-3.7-3-8.8-1.8-13.1 0.6-2.2 1.6-4.4 3.3-6.1 0.3-0.3 6.1-3.4 6.2-3 0.1 0.6 0.9 0.5 1.2 0.1l0.2-0.2c0.1-0.2 0.1-0.6 0-0.8-1.9-2.5-6.3-0.6-8.3 0.8-3.9 2.6-5.7 7.5-6.1 12-0.6 4.9 0.4 9.9 4 13.4 1.8 1.7 4.2 2.9 6.3 4.2 2.1 1.2 4.2 2.3 5.2 4.6q2.6 3.1-1.4 6.7-3.7 2.2-7.1-1.2c-0.6-1-1.9-0.2-1.7 0.7 1.1 8.5 16.6 2.9 13.6-6.1z"/><path fill-rule="evenodd" class="e" d="m317.7 734.6c-5.2 2.4-7.9-3.2-8.3-7.5-0.5-5.5 1.8-10.6 6.3-13.7 0.3-0.2 0.6-0.1 0.7 0.2 4.2-0.9 7 4.5 7.5 8.2 0.6 4.7-1.6 10.7-6.2 12.8zm-2-19q-0.2 0-0.4-0.1c-3.1 4.1-5.6 11.2-2.2 15.5 2.7 3.4 5.8-0.4 6.8-2.3 0.9-1.5 1.3-3.2 1.4-5 0.3-3.5-1.2-8.2-5.6-8.1z"/><path class="e" d="m335.3 731c-10.7 5.9-10.8-18.2-1.9-17.1 0.6 0 0.6-0.8 0.3-1-6.8-4.6-9.8 9-9.2 13.3 0.5 3.3 2 6.9 5.3 8.2 2.5 1.1 5.7 0.7 7-1.9 0.5-0.9-0.5-2-1.5-1.5z"/><path class="e" d="m343.6 725.6c-0.6-4.2-0.9-8.4-1.2-12.6-0.1-1-1.4-1-1.5 0-0.2 4.5-0.1 9 0.3 13.4 0.2 2.7 0.2 5.6 1.3 8 0.1 0.3 0.2 0.5 0.3 0.7l0.2 0.1c0.8 0.7 2.1 0.3 2.1-0.9 0-2.7-1.2-5.9-1.5-8.7z"/><path class="e" d="m344.3 705.5c-0.3-1.3-1.6-2.2-2.9-1.8q-0.3 0.1-0.6 0.2c-0.5 0.3-1 0.8-1.2 1.4-0.5 1.5 0.8 2.8 2.2 3 0.9 0.1 1.7-0.1 2.2-0.9 0.4-0.6 0.5-1.2 0.3-1.9z"/><path fill-rule="evenodd" class="e" d="m356 734.9c-0.4 0-0.6-0.3-0.7-0.7-2.7-0.1-5.4-3-5.1-5.8 0.2-2.3 1.9-4.3 4-5.2 2.2-0.9 4.6-0.3 6.6 0.9-1.4-4.4-6-8.7-10.4-9.3-0.9-0.2-0.6-1.5 0.2-1.5 6.2-0.2 11.3 4.5 12.8 10.3 1.3 5-0.9 12.6-7.4 11.3zm5.3-7.7q-0.3 0-0.6-0.1c-1.5-0.7-3-1.9-4.8-1.5-1.3 0.2-2.5 1.3-2.9 2.5-1 3 2.5 4.6 4.9 4.1q0 0 0 0c2.3-1.2 3.3-3 3.4-5z"/><path class="e" d="m371.6 711.9c-0.4-7.5-0.6-14.9-1.1-22.3 0-0.8-1.2-0.8-1.3 0-0.5 7.7-0.5 15.5-0.2 23.2 0.3 7 0 14.8 1.8 21.5 0.3 1.2 2 0.9 2.1-0.3 0.6-7.2-0.9-14.9-1.3-22.1z"/><path class="e" d="m411.2 712.2q-0.3-11.3-0.7-22.7c0-1.1-1.7-1.7-2.2-0.6q-2.1 4.4-4.2 8.7-2-4-4.2-8-0.2-0.2-0.4-0.3c-0.4-0.9-2-0.8-1.9 0.3 0.6 15.1-1.1 30.1-1.6 45.2 0 0.8 1.3 1 1.5 0.2 2.8-13.7 2.6-27.9 2.2-41.9q1.6 3.9 3.4 7.8c0.4 0.8 1.7 0.7 2.1 0q1.5-3.2 3.1-6.4 0.2 9.3 0.5 18.6c0.2 7.3-0.1 14.8 1 22 0.1 1.1 1.9 0.7 1.9-0.3 0.6-7.4-0.2-15.2-0.5-22.6z"/><path fill-rule="evenodd" class="e" d="m428.8 720.4c-0.2 0.5-1.1 0.5-1.2 0q-0.1 0.3-0.5 0.5c-1.3 0.4-2.7 0.2-4 0.2l-3.1-0.1q0 2.7 0 5.5c-0.1 1.6-0.1 3.4 0.4 4.9 0.9 2.8 4 4.9 6.2 1.5 0.5-0.8 1.9-0.6 1.9 0.5-0.4 4.7-6.2 5-8.9 1.9-3.3-3.6-2.6-9.7-1.7-14.8-0.1-0.2-0.2-0.5-0.2-0.8q0-0.1 0-0.3c0.3-3.4 3.2-9.5 7.4-9.1 1.9 0.2 3.4 1.6 4.1 3.3 1 2.3 0.3 4.6-0.4 6.8zm-4.4-7.6c-2.1 0.4-3.4 3.4-4.4 5.6q0 0.2 0 0.4l3.1-0.1c1.3 0 2.7-0.3 4 0.2 0.3 0.1 0.5 0.3 0.6 0.5 0.1-2.6 0-7.3-3.3-6.6z"/><path fill-rule="evenodd" class="e" d="m446.1 734.6q-0.1 0.1-0.3 0.2c-0.6 0.6-1.8 0.5-2.2-0.3q-0.2-0.3-0.3-0.6c-1 0.8-2.4 1.1-3.8 0.9-3.8-0.4-5.7-4-6.2-7.4-0.7-4.1 0.1-8.7 2.6-12 1.6-2 4.1-4 6.6-3.3-0.1-7.6-0.4-15.5 0.6-23 0.1-0.7 1.3-0.7 1.4 0 1.2 6.9 1 14.1 1.2 21.1q0.2 5.4 0.3 10.9c0 3.6-0.6 8 0.1 11.6q0 0 0.1 0.1 0 0.1 0.1 0.2c0.3 0.5 0.2 1.2-0.2 1.6zm-3.4-3.6c-0.1-2.1 0.1-4.2 0.1-5.9q-0.2-5.8-0.2-11.6c-4.9 0.5-6.7 6.5-6.8 10.7-0.2 4.2 2.4 10 6.9 6.8z"/><path class="e" d="m457.8 735.2c-1.3-3.3-1-8.3-1.1-11.7-0.2-3.9-0.1-7.8-0.1-11.7 0-1-1.7-1.3-1.8-0.2-0.8 4.5-1 9.1-0.9 13.6 0 3.6 1 7.4 1 10.9-0.1 1.1 1.5 1.7 2.2 0.9q0.2-0.2 0.4-0.4c0.3-0.3 0.6-0.9 0.3-1.4z"/><path class="e" d="m458.1 703.6c-0.4-0.8-1.4-1.2-2.2-1-0.5 0-0.9 0.2-1.3 0.5-0.5 0.6-0.7 1.5-0.4 2.2 0.3 0.6 0.7 1 1.3 1.4 0.6 0.4 1.5 0.2 2-0.3 0.8-0.7 1.1-1.8 0.6-2.8z"/><path class="e" d="m476.1 723.9c-0.7-6.1-4.3-11.9-10.8-12.9-0.9-0.2-1.3 1.1-0.4 1.3 6.1 1.8 8.9 7.6 8.9 13.6 0 1.2-0.1 2.4-0.4 3.4-0.4 1.8-2.5 4.1-4.4 4.1q-1.8-0.9-3.6-1.9-1.9-3.7 1.6-4.9c2.2-1.6 2.6-1.6 5-0.7 0.8 0.3 1.5-1 0.8-1.5-3.4-2.7-8.8-1.5-10.2 3-1.5 4.8 2.6 9.4 7.5 8.6 5.6-0.9 6.6-7.5 6-12.1z"/><path fill-rule="evenodd" class="j" d="m443.1 115.8c-0.9 2.4-3.7 3.2-6 3.5-1.3 0.2-3.4 0.2-4.7-0.6-0.4 0.1-0.9-0.1-1-0.6-1.2-7.1-0.9-14.6-0.9-21.7 0.1-7.3 0.4-14.5 1.4-21.7 0.1-0.4 0.4-0.6 0.8-0.6 0-0.3 0.3-0.5 0.8-0.4 8 2 10.5 11 10.6 18.4 0.1 5.4-1.8 12.8-6.6 15.9 3.6 1.2 7 4 5.6 7.8zm-10.2-19.4c0 3.6 0.2 7.3 0.3 11 6-3 8.4-8.8 8.4-15.3 0-6.2-1.7-14.2-8-16.9-0.2 7.1-0.6 14.1-0.7 21.2zm5.5 14.1c-1.2-0.7-2.4-1.1-3.7-1.3q-0.5 0.1-1 0.2-0.2 0-0.4-0.1 0.1 3.5 0 6.9c1 0.2 1.9 0.6 2.9 0.6 1.3-0.1 3.6-0.4 4.4-1.7 1.1-1.7-0.9-3.7-2.2-4.6z"/><path fill-rule="evenodd" class="j" d="m460.2 113.5c-0.4 2.4-1.1 5.3-3.7 6.4-1.2 0.5-2.5 0.5-3.5-0.1-1.4 0.3-2.8-0.1-4-1-2.2-1.6-2.8-4.3-1.9-6.8 1-2.6 3.3-4.4 6.1-4.5 1.5 0 3.5 0.5 4.9 1.5q0-0.2 0-0.4c-0.2-4.4-2.4-8.8-7.3-8.9-1 0-0.9-1.5 0-1.6 8.3-0.5 10.4 8.9 9.4 15.4zm-2.3-1.1c-1.2-0.8-2.1-1.9-3.7-2.1-1.8-0.3-3.4 0.5-4.3 2.1-1.3 2.2-0.2 4.4 1.7 5.3 0.1-0.5 0.7-0.9 1.2-0.6 3.3 2 4.6-1.6 5.1-4.7z"/><path class="j" d="m475.1 117.7c-5.6 0.5-10.3-3.5-10.4-9.3-0.1-5.2 4-8.6 8.5-10.1 0.8-0.2 0.7-1.4-0.2-1.4-6.5 0.1-11.6 6.2-11 12.7 0.6 6.1 6.9 12.8 13.4 10.4 1.2-0.5 1.1-2.5-0.3-2.3z"/><path class="j" d="m493.9 119.6c-0.6-3.1-2.8-6-4.4-8.7-1.5-2.3-3-5-5-7q2.4-6.3 4.2-12.8c1.3-4.8 3.2-10 3.1-15.1 0-1-1.4-1.1-1.8-0.2-1.9 4.8-2.4 10.5-3.7 15.6-0.9 3.8-2 7.6-3.1 11.4q0-2.4 0.1-4.7c0.1-7.5 0.6-15.3-0.3-22.8-0.2-1.2-1.8-1.2-1.9 0-0.5 7.5 0 15.3 0 22.8-0.1 6.8-1.2 14.3 0 21 0 0.3 0.6 0.3 0.7 0 1-3.7 1.3-7.8 1.4-11.8q0 0 0-0.1 0.3-0.7 0.6-1.5c1.1 2.2 2.6 4.3 3.7 6.3 1.6 2.8 2.8 6.1 4.9 8.5 0.6 0.8 1.7 0 1.5-0.9z"/><path class="j" d="m520.2 118c-1.2 0-3.9 0.5-5 0-2.3-1.2-1.6-3.8-1.6-5.8q-0.2-6.4-0.2-12.8c-0.1-8.1 0.3-16.3 0.1-24.5 0-1-1.5-1-1.6 0-1.4 11-1.4 22.3-1.3 33.3 0.1 2.7-1.1 9.5 0.9 11.6 1.7 1.9 6.5 0.9 8.7 0.9 1.7 0 1.7-2.7 0-2.7z"/><path class="j" d="m526.3 110.1c-0.3-2.8-0.6-5.5-1.4-8.2-0.2-0.7-1.2-0.5-1.2 0.2-0.2 2.8 0.1 5.7 0.2 8.6 0.1 2.6-0.3 5.3 0.6 7.7 0.3 1 1.5 1 1.9 0 0.8-2.6 0.1-5.6-0.1-8.3z"/><path class="j" d="m524.4 91.6q-0.3 0.1-0.5 0.4c-0.3 0.2-0.6 0.5-0.7 0.9-0.1 0.7-0.1 1.4 0.3 2 0.4 0.5 1 1 1.6 1.1 0.8 0.2 1.4-0.1 1.9-0.7 1.2-1.7-0.4-5-2.6-3.7z"/><path class="j" d="m543.4 107.7c-0.3-2.4-0.8-5.7-3.2-7-3.5-2.1-6.5 0.5-8.3 3.9q-0.1-2.1-0.2-4c0-1.1-1.5-1.1-1.6 0-0.5 6-1.2 13-0.1 19 0.2 1.3 1.9 0.8 2-0.3 0.5-3.7 0.4-7.7 0.1-11.7q0.7-1.5 1.8-2.8c1.3-1.5 2-2 4.1-1.6 2.1 0.3 2.2 0.6 2.7 2.6 1 4.7-0.2 9.2-0.5 13.8-0.1 1 1.6 1.5 2 0.6 1.6-3.8 1.6-8.4 1.2-12.5z"/><path class="j" d="m562.8 76.3c0.3-1.1-1.4-2-2-0.8-4 8.6-6.7 18.4-8.7 27.8-1-11.8-2.7-26.3-3-28.5-0.2-0.7-1.2-0.5-1.3 0.1-0.1 9.4 0.7 18.9 1.3 28.2q0.5 6.8 1 13.6c0.1 1.8-0.2 3.8 1.4 4.9 0.7 0.4 1.6-0.1 1.9-0.8q0-0.1 0.1-0.3c0.1-0.3 0-0.8-0.3-1q-0.1-0.1-0.2-0.2-0.2-0.1-0.4-0.2c0.4-0.6 0.3-5.1-0.2-11.1q0.2-0.3 0.3-0.7 1 2.3 2.2 4.5c1.2 2.3 2.3 4.9 3.9 7 0.4 0.5 0.9 0.8 1.6 0.7q0.1-0.1 0.2-0.1c0.7-0.2 1-0.9 0.9-1.6q0-0.1-0.1-0.1c0-0.4-0.2-0.7-0.5-0.8-3-3.4-5.1-7.9-7.5-11.8 3.3-9.5 6.9-19.1 9.4-28.8z"/><path class="h" d="m152.5 103.1q-1.6 0-3.2 0-2.2 0.5-1.6-1.2c-0.5-1.4 0.3-4.3 0.3-5.8q0.4-6.3 0.6-12.6c0.3-7.7 1-15.8-0.1-23.4-0.1-0.6-1-0.6-1.1 0-1.6 10.4-0.9 21.5-1.4 32.1q-0.2 3.9-0.5 7.7c0 1.2-0.5 3 0 4.1 1.2 2.3 5 1.4 7 1.4 1.4 0 1.4-2.3 0-2.3z"/><path class="h" d="m158.6 97.1c-0.2-2.5-0.3-4.9-0.4-7.4-0.1-1-1.3-0.9-1.4 0q-0.5 3.7-0.5 7.4c0 2.2-0.2 4.6 0.6 6.6 0.3 0.9 1.7 1.1 1.9 0 0.5-2.1 0-4.4-0.2-6.6z"/><path class="h" d="m160.5 80.7c-0.9-1.6-3.6-1.6-4.3 0.2-0.4 1.1 0 2.2 0.9 2.8 1 0.7 2 0.6 2.9-0.1 0.3-0.3 0.4-0.6 0.5-1 0.3-0.6 0.3-1.2 0-1.9z"/><path class="h" d="m176.5 98.7c-0.1-3-0.3-7.4-2.5-9.8-3.3-3.5-7.4-1.2-9.2 2.3-0.1-1.5-0.4-2.9-0.9-4.3-0.1-0.3-0.5-0.3-0.6 0-0.9 2.7-0.6 5.7-0.6 8.5 0 2.9-0.3 5.9 0.4 8.7 0.2 1 1.8 1.1 2 0 0.5-2.7 0.1-5.6-0.1-8.4q0.3-0.1 0.3-0.5c0.4-1.9 1-3.7 2.7-4.8 2.5-1.7 4.6 0.1 5.2 2.7 0.6 2.5 1.3 7.8 0.2 10.5-0.4 0.3-0.5 0.8-0.4 1.3q0 0.1 0 0.2c0.1 0.7 1 1 1.6 0.9 2.4-0.5 1.9-5.7 1.9-7.3z"/><path class="h" d="m196.9 102.7q-0.1 0-0.2-0.1 0 0-0.1 0c-0.7-1-1.2-2.7-1.8-3.8q-1.5-2.8-3.2-5.5c-1.7-2.6-3.6-4.9-5.7-7.1 4.1-8.3 8.6-16.7 11.3-25.3 0.4-1.3-1.5-2.1-2.2-0.9-4.1 6.9-7 15-10 22.8 0.6-7.4 1-14.9 1-22.2 0-1.6-2.2-1.5-2.4 0-1.5 14.9-2 30.2-2.5 45.2 0 0.9 1.4 0.9 1.5 0 0.7-5.5 1.3-11.1 1.9-16.7q0.2-0.6 0.5-1.1c2.4 3.1 4.5 6.4 6.3 9.9 0.9 1.8 2.2 7 4.5 7.4 0.7 0.1 1.4-0.2 1.6-0.9q0-0.2 0.1-0.3c0.1-0.5-0.1-1.1-0.6-1.4z"/><path fill-rule="evenodd" class="d" d="m674.2 592.9c-1 4.8-6.7 4.8-10.5 4.1-0.7-0.1-1-0.8-0.9-1.4-0.5 0.2-1.3-0.2-1.4-0.9-0.7-7.2 0.3-14.9 0.5-22.1 0.1-7.4-0.1-14.9 0.3-22.2 0.1-0.5 0.8-0.7 1-0.4q0 0 0.1 0c9.2-0.6 14.1 7.7 14.9 15.9 0.8 8.1-2.3 14.4-9.4 17 3.2 2.4 6.2 6.1 5.4 10zm-10.8-41.5c0.9 7 1 14.1 1 21.2 0 2.8 0.1 5.7 0 8.6q0.2-0.1 0.5-0.2c7.2-1.4 11-6.1 10.8-13.5-0.2-7.4-3.9-15.8-12.3-16.1zm6.5 36.6c-1.2-2.1-3.3-3.4-5.4-4.3q0 0-0.1-0.1c-0.1 3.7-0.3 7.4-1.1 10.9q0.3-0.2 0.8-0.2 1.7 0.3 3.4 0.4 5.2-3.6 2.4-6.7z"/><path class="d" d="m685.7 572.7c-0.4-7.2-0.9-14.6-2.3-21.8-0.2-0.8-1.4-0.6-1.4 0.2-0.3 7.5 0.4 15.1 0.7 22.6 0.2 6.9-0.3 14.2 0.9 21 0.3 1.1 2.2 1.2 2.4 0 1.1-7.1 0.1-14.8-0.3-22z"/><path fill-rule="evenodd" class="d" d="m709.1 586.2c-0.4 5-3.7 11-9.3 11.5-11.8 1.1-9.7-20.2 0.6-20.1q0.1-0.1 0.2-0.1c5.2-1.6 8.9 4 8.5 8.7zm-8.3-6.6q-0.2-0.1-0.4-0.1c-6.5 1.5-9.3 15.6-1.1 15.6 7.3-0.1 10.6-15.3 1.5-15.5z"/><path class="d" d="m727.5 576.2c-0.3-0.9-1.7-0.7-1.6 0.2 0.5 4.9 1 9.7 1.4 14.5-0.3 0.1-0.6 0.2-0.8 0.6-3.7 5.9-11 3-12.2-3.3-1.2-6.4 4-11.3 10.2-11 1 0 1.2-1.5 0.2-1.7-8.8-1.7-15.7 7.3-12.4 15.6 1.4 3.4 4.5 6.3 8.3 6.6 2.7 0.1 5.5-1 7-3.2 0.3 4.3 0.6 8.7 0.6 13 0.1 2.5 0.4 5.4-0.3 7.7-1.2 4.5-6.3 5.9-10.1 3.9-3.1-1.6-4.7-5.3-3.5-8.6 1.5-4.3 5.5-4.4 9.2-3.8 0.9 0.1 1.8-1 1-1.6-4.7-3.7-11.5-0.8-13.2 4.6-2.2 6.5 2.7 12.9 9.3 13.5 8.1 0.7 10.8-5.9 10.8-12.7 0-11.5-1-23.2-3.9-34.3z"/><path class="h" d="m660.4 432.8c-0.1-1.3-1.9-1.3-2 0-0.8 9.4-1.2 18.7-2.8 28q-0.5 2.8-1.1 5.6c-0.3 1.8-0.5 6-1.7 7.4-2.3 2.8-2.7-0.4-3.2-2.4-0.7-2.4-1.2-4.9-1.7-7.4q0-0.2-0.2-0.3 0.1-0.1 0.1-0.3c0.1-1.3-2-1.5-2.3-0.3-0.3 1.4-1.4 13-2.7 13-2.4 0-2.8-12.8-2.9-14.2-0.6-9.8-0.9-19.7-2.1-29.5-0.1-0.8-1.2-0.8-1.3 0-0.3 7.8 0.2 15.8 0.6 23.6 0.3 6.3-0.1 13.7 2.6 19.6 0.9 1.9 2.6 4.7 5 2.8 1.4-1.1 1.5-3.7 1.7-5.2q0.2-1.4 0.5-2.7c0.3 3.4 1 6.9 2.9 8.1 2.7 1.7 4.8-1.1 5.6-3.3 2.3-6.1 3.1-13.3 4-19.8 1-7.4 1.7-15.2 1-22.7z"/><path fill-rule="evenodd" class="h" d="m680.3 462.2c-0.1 0.4-0.4 0.9-1.1 0.9-4 0.1-8 0-12-0.2q-0.1 0.5-0.1 1c-0.4 6.4 3.9 14.9 11.1 9.9 0.9-0.6 2.1 0.5 1.5 1.4-2.4 3.5-7.4 3.3-10.6 0.9-4.2-3.1-5-9.3-4.3-14.1 0.7-4.4 3.2-9 7.9-9.8 2.2-0.4 4.6 0.1 6.1 1.8 2.2 2.2 1.2 4.5 2 7.2 0.1 0.5-0.1 0.8-0.5 1zm-1.4-1.5c-1-2.7-1.3-6.2-4.9-6.2-3.6 0-5.6 3.2-6.4 6.4 3.7-0.2 7.5-0.3 11.3-0.2z"/><path fill-rule="evenodd" class="h" d="m701.3 474.4c-2.7 3.3-7 3.9-10.9 2.9q-0.5-0.1-0.7-0.4c-0.7 0.1-1.4-0.4-1.5-1.3-1.1-13.9-2.1-28.1-1.4-42 0-1 1.4-1 1.5 0 1 11 1.4 22 2.1 33 0.7-1.1 1.6-2.1 2.8-2.8 2.9-1.6 6.3-1.2 8.4 1.4 2.2 2.7 1.8 6.6-0.3 9.2zm-6.7-8.3c-3 1.4-3.4 5.7-3.6 8.7q0 0 0.1 0 2.5 0.6 5.1-0.1 8.9-4.8-1.6-8.6z"/><path class="e" d="m679.6 35.2c-0.2-1.2-2.1-0.8-2.1 0.3-0.3 7.5 0.3 15.1 0.2 22.6 0 4.2 1.7 21.6-5.3 22.2-7-1.6-5.2-17.9-5.3-23.3 0-7.4 0.6-14.9 0-22.3 0-0.8-1.3-1.1-1.4-0.2-1.7 10.5-1.5 21.6-0.9 32.2 0.2 5.3-0.2 16.1 7.6 15.9q0.3 0 0.5-0.2c1.1 0.1 2.3-0.3 3.4-1.1 2.8-2.1 3.4-5.8 3.7-9.1 1-11.9 1.2-25.1-0.4-37z"/><path fill-rule="evenodd" class="e" d="m696.3 72.3c0.1 3.2-1.3 6.3-4.1 7.8-1.4 0.8-3.1 1.1-4.6 0.9 0.1 2.8 0.1 5.5-0.1 8.2-0.1 1.2-2.1 1.6-2.2 0.3-1.3-9-0.9-18.9-0.4-27.9 0-0.6 0.9-0.6 1 0q0.1 0.9 0.2 1.8c4.9-3.6 10 4.5 10.2 8.9zm-2.6 0c0-4.2-3-8.6-7.4-7.3 0.5 4.2 1 8.6 1.2 13 1.2 0.3 2.3 0.3 3.6-0.5 1.8-1.1 2.6-3.1 2.6-5.2z"/><path fill-rule="evenodd" class="e" d="m709.8 78.5c-0.1 1.1-1.8 1.5-2.1 0.2q-0.1-0.1-0.1-0.3c-0.6 2.7-3.9 3.7-6.3 2.5-3.5-1.7-4.8-6.7-4.1-10.2 0.8-3.6 3.9-6.8 7.8-6.7 0.2 0 0.6 0.1 1.1 0.2 0-2.2 0-4.5 0-6.6-0.1-7.6-0.1-15.3 0.8-22.8 0.1-0.8 1.2-0.8 1.2 0 0.2 7.3 0.1 14.6 0.4 21.8 0.3 7.1 1.9 14.8 1.3 21.9zm-2.6-1.7c-0.8-3.5-1-7.3-1.1-11-0.5 0-1 0-1 0-1 0.2-1.8 0.5-2.6 1.1-1.5 1-2.4 2.5-2.7 4.3-0.4 1.9 0 3.9 0.9 5.5 1.2 1.9 3.7 2.7 4.8 0.4 0.4-0.7 1.1-0.7 1.7-0.3zm-2.1-11q0 0 0 0 0 0 0 0z"/><path fill-rule="evenodd" class="e" d="m719.3 81.9c-4.7 0.9-8.5-3.8-7-8.2 1.5-4.4 6.8-6 10.5-3.6q-0.2-1.6-0.7-3c-0.3-1.1-0.8-2.2-1.5-3.1-1-1.5-3.7-3-5.5-2.5-1.1 0.3-1.5-1.3-0.4-1.6 10.7-3.8 15.5 19.7 4.6 22zm3.4-7.6q0.2-0.9 0.2-1.7-0.1 0-0.2-0.1c-3.3-1.3-7.6-1.3-7.6 3.2q-0.9 2.3 1.4 2.9 1.4 1.6 3 0.2c2-0.9 2.7-2.4 3.2-4.5z"/><path class="e" d="m732.7 48.8c-0.9-0.4-1.9-0.6-2.9-0.9 0.1-4.5 0-9-1-13.1 0-0.2-0.2-0.2-0.3 0-1.2 3.9-1.5 8.3-1.5 12.7-1.2-0.2-2.4-0.3-3.6-0.4-0.9-0.1-1.1 1.4-0.2 1.5 1.3 0.2 2.6 0.5 3.9 0.8 0 3.6 0.2 7.1 0.3 10.4q0.1 6.7 0.4 13.4c0.2 2.9-0.3 6.5 1.1 9.1 0.6 1 1.8 0.8 2.4 0q0.1-0.1 0.2-0.3c0.4-0.5 0.1-1.3-0.4-1.7-1-3-0.5-7.9-0.7-10.9q-0.4-6.3-0.6-12.5c-0.1-2.2 0-4.5 0-6.8q1.2 0.2 2.4 0.4c0.9 0.1 1.2-1.3 0.5-1.7z"/><path class="e" d="m745.8 66.4c-2.9-0.2-5.8-0.5-8.7-0.2-0.5 0-0.7 0.8-0.1 1 3.1 0.9 6.5 1.2 9.7 1.7 0.9 0.1 1.5-0.3 1.6-1.2 0.2-2.5 1.4-5.1 0.4-7.5-0.9-2-2.9-3.3-5-3.6-4.6-0.6-8 3.2-9.3 7.3-1.5 4.6-1.1 10.5 2.8 13.9 2.9 2.5 7.7 3.1 10.5 0.1 0.8-0.9-0.2-2.4-1.3-1.8-6.7 3.8-11-3.6-9.9-9.7 0.5-2.8 2-6.3 5.2-7 3.7-0.9 4.5 2.9 4.2 5.6 0 0.5-0.1 0.9-0.1 1.4z"/><path class="f" d="m589.1 653.4c-0.3-8-1.3-16-0.8-24 0.1-1.6-2.3-1.6-2.4 0-0.7 8.7 0.5 17.2 0.7 25.9 0 4.7 0 9.7-1.4 14.2-1.2 4-5.5 3.3-6.8-0.5-0.9-2.5-1-5-0.8-7.5 0-0.6-0.7-0.8-1.1-0.6-0.4-0.3-1.3-0.2-1.4 0.4-0.2 1.6-0.2 3.8-0.7 5.3q-0.2 4.2-5.5 3.3l-1.6-2.7c-1.6-3.8-1.5-8.5-1.7-12.5-0.4-8.2-0.4-16.4-0.8-24.6-0.1-1-1.5-0.9-1.6 0-0.5 7.9-0.4 15.8-0.1 23.6 0.1 5.3-0.3 12.2 2.9 16.8 1.8 2.6 5.4 4.5 8.3 2.4 1-0.8 1.6-1.8 2-2.9 0.6 1.9 1.5 3.6 3.1 4.8 2.9 2.2 6 0.6 7.5-2.4 2.7-5.5 2.4-13 2.2-19z"/><path fill-rule="evenodd" class="f" d="m605.7 669.8c-0.6 3.7-5.8 4.8-8.8 3.2-4.3-2.5-4.8-10.2-3.6-14.4 1.2-4 5.4-7.6 9.7-5.4 2.9 1.4 4.3 6.8 2.2 9.5 0.2 0.6-0.1 1.4-1 1.4-1.7 0-3.5-0.1-5.3-0.3-1.2 0-2.5 0-3.6-0.4 0.1 2.8 0.7 6.9 3.6 7.7 2.2 0.7 3.8-0.8 5.3-2.2 0.7-0.7 1.7 0 1.5 0.9zm-10.4-7.7c1.1-0.3 2.4-0.2 3.6-0.2 1.8-0.1 3.5-0.2 5.3-0.1 0.7-2.9-1.1-7-4.3-6.7-3.5 0.3-4.5 4.1-4.6 7z"/><path fill-rule="evenodd" class="f" d="m622.8 672.8c-2.6 1.8-6.1 1.5-8.8 0q0 0.3 0 0.5c0.1 1.6-2.7 1.6-2.5 0-0.7-14.5-1.8-29.5-0.8-43.9 0-0.6 1-0.8 1.1-0.2 1.1 8.6 1.6 17.4 1.8 26.2 4.9-4.2 10.8 4.3 11.7 8.7 0.7 3.2 0.4 6.7-2.5 8.7zm0-9.1c-0.9-3.8-4.7-9.8-9.1-6.9 0.1 4.5 0.2 8.9 0.3 13.4q0 0 0 0c2.1 0.7 5 2.2 7.1 0.6 2.3-1.6 2.3-4.6 1.7-7.1z"/><path fill-rule="evenodd" class="f" d="m644.8 672.6c-0.5 0.4-1.5 0.4-1.7-0.5-1.1-6.7-1-13.7-1.4-20.5-0.3-7-0.6-14.1-0.7-21.1-0.6-0.1-1.2-0.6-0.9-1.3 1.5-3.5 5.6-3.7 8.4-1.3 4.7 3.9 6.7 12.7 7.4 18.5 0.9 6.3 0.6 30-11.1 26.2zm9-22.6c-0.2-3.5-0.9-6.9-1.9-10.3-0.7-2.1-4.6-14.1-9.7-9.8 0.7 6.9 1.3 13.8 1.8 20.7 0.5 6.9 1.4 13.9 1.2 20.8 8.6 0.8 8.9-16.2 8.6-21.4z"/><path fill-rule="evenodd" class="f" d="m673.8 659.2c0.2 0.7-0.2 1.6-1.1 1.6-1.9-0.1-3.8-0.4-5.7-0.5-1.2-0.1-2.5 0-3.7-0.2q0 0.1 0 0.2c-0.5 4.6 1.6 13.1 7.8 9.2 0.9-0.5 1.8 0.5 1.3 1.3-1.9 3.6-6.9 2.5-9.2-0.2-2.9-3.4-3-9.2-1.9-13.4 1-3.6 4.2-8.7 8.7-8.1 4.5 0.7 5 6.6 3.8 10.1zm-1.5-0.8c0.3-1.8 0.4-4.7-1-5.7-2-1.4-4.5-0.3-5.8 1.3-1 1.2-1.6 2.7-1.9 4.3 1.1-0.2 2.3-0.2 3.4-0.2 1.7 0 3.6 0 5.3 0.3z"/><path class="f" d="m691.6 667.2c-0.7-2.9-2.8-5.5-5.3-7.1-1.6-1-3.8-1.1-5.3-2-4-2.8 3.2-5.7 5.5-5.7 0.8 0 1.1-1.3 0.2-1.5-3.8-0.9-11.5 2.1-9.5 7.3 1.1 2.7 4.5 2.6 6.7 3.7 1.6 0.8 5.4 3.8 5.1 6-0.1 1.7-2.2 3.1-3.7 3.2-1.3 0.1-3.3-0.7-4.7-1-1.2-0.2-1.9 1.4-0.8 2.1 4.5 2.8 13.8 2.5 11.8-5z"/><path class="f" d="m697 652.3c-0.1-1.1-1.7-1.1-1.8 0-0.6 6.7-1.1 14.4 0.2 21 0.3 1.4 2.2 0.9 2.3-0.3 0.5-6.7-0.3-14-0.7-20.7z"/><path class="f" d="m696 641.2c-0.5-0.5-1.3-0.5-1.8-0.1q-0.2 0-0.5 0.2c-1.1 0.8-1.6 2.3-0.8 3.6 0.7 1.2 2.2 1.5 3.5 0.9 0.5-0.2 0.7-0.7 0.7-1.2 0.1-1.2-0.4-2.4-1.1-3.4z"/><path class="f" d="m718.2 670.1c0.2-5.5-0.8-11.6-1.9-16.8q0 0 0 0c-0.2-0.8-1.6-0.9-1.7 0.2-0.2 4.9-0.2 10.4 0.6 15.4-4.2 3.5-9.1 1.7-10.3-3.8-1.2-5.4 2.3-12 8.6-10.5 0.7 0.1 1.2-0.9 0.5-1.3-8.1-4.1-13.4 6.2-11.5 13 0.9 3.4 3.3 6.4 6.9 7.1 2.2 0.4 4.7-0.1 6.3-1.6q0.1 0.4 0.2 0.8c0.1 0.3 0.3 0.6 0.6 0.7-0.3 1.7-0.6 3.4-1.2 4.9-0.5 1.6-1.4 3.3-3.1 3.9-2.2 0.8-4.2-1.2-2.5-3.2 0.6-0.8 0-2.1-1-1.7-2.1 0.6-2.8 2.7-2.2 4.7 0.7 2.3 2.9 3.4 5.1 3.2 6.9-0.7 7.3-9.5 6.6-15z"/><path class="f" d="m735.2 660.8c-0.4-3.2-1.3-6.9-4.7-8.2-2.7-1-5.5 1-7 3.7q-0.1-1.5-0.4-3c-0.1-0.6-1.1-0.6-1.2 0-1.1 6.7-0.7 13.9-0.8 20.7 0 1.5 2.4 1.9 2.7 0.3 0.3-1.6 0.6-3.1 0.6-4.7 0-0.5-0.2-0.8-0.5-1q0-2.8 0-5.7c0.3 0 0.6-0.4 0.4-0.7-1-2 1.1-6.4 3.1-7.2 3.6-1.6 4.7 2.5 5.2 4.9 0.9 4.6-0.1 9 0.4 13.5 0.1 0.8 1.2 1.3 1.6 0.4 1.8-3.9 1.3-8.9 0.6-13z"/><path class="g" d="m647.7 355c2.2-4.2 5.5-5.3 9-7.9 0.3-0.3 0.4-0.9-0.1-1-11.1-2-14.3 14.5-15.1 22.1-0.9 8.2 1.5 26 13.9 23 1.3-0.3 1-2.4-0.3-2.4-12 0-11.5-15.3-10.2-23.5 0.6-3.4 1.2-7.1 2.8-10.3z"/><path fill-rule="evenodd" class="g" d="m665.6 389.6c-8.6 1.7-9.1-16.6-0.6-19.2q0.1-0.1 0.4-0.2c9.9-2.4 9.1 17.7 0.2 19.4zm0.2-17.1c-0.3 0-0.5-0.1-0.7-0.2-2.4 1.4-3.6 4.1-3.8 6.8-0.2 2.7 0.5 7.7 4.1 7.9 2.7 0.2 4.5-5.5 4.7-7.5 0.2-2.9-0.5-7.3-4.3-7z"/><path class="g" d="m687.5 379.8c-0.3-2.4-0.6-6.5-2.8-7.9-3.3-2.1-6.2 0.9-7.6 4.2q-0.3-2.3-0.5-4.6c-0.1-0.9-1.4-0.9-1.4 0-0.1 6.7-0.2 13.5 0.5 20.2 0.1 1.6 2.4 1.3 2.3-0.1 0-3.7-0.2-7.5-0.5-11.3 0.2-1.6 0.7-3.6 1.9-4.8 1-0.8 3.7-1 4.8-0.2 0.6 0.5 0.6 3 0.7 3.7 0.5 3.9-0.1 7.7 0.2 11.6 0.2 1.2 2.1 1.7 2.3 0.3 0.7-3.6 0.6-7.5 0.1-11.1z"/><path class="g" d="m698.5 357.9c-1-0.4-2.1-0.5-3.2-0.4 0-4.2 0-8.3-0.3-12.4-0.1-0.8-1.4-1.2-1.6-0.2-0.6 4.2-0.8 8.5-0.9 12.7q-2.5 0.2-5 0.5c-1.3 0.2-1.4 2.3 0 2.1q2.5-0.2 5-0.2 0 4.2 0 8.4c0 7.8-0.2 16.1 1.2 23.7 0.2 1.5 2.4 1.1 2.5-0.3 0.3-7.7-0.7-15.6-0.9-23.4 0-2.7 0-5.5 0-8.3 1.1 0 2.2 0.1 3.2-0.2 1.1-0.3 1-1.7 0-2z"/><path fill-rule="evenodd" class="g" d="m700.6 381.4c-0.3 2.2-0.2 4.3 0.7 6.2 1.7 3.5 5.9 4.1 7.6 0.3 0.4-1 1.9-0.4 1.9 0.5 0 4.8-6.2 6-9.4 3.5-3.9-3-3.7-7.7-2.3-11.9-1.3-3.1 2.3-7.3 5.4-7.6 4.4-0.4 7.7 4.1 6.5 8.2-0.1 0.3-0.3 0.5-0.6 0.6q-0.1 0.1-0.2 0.2c-1.3 0.6-2.7 0.4-4.2 0.3q-2.5-0.1-5-0.2-0.2 0-0.3-0.1 0 0-0.1 0zm1.2-4.3c-0.5 0.9-0.4 1.8-0.4 2.8q2.3-0.2 4.6-0.3c1.1 0 2.1-0.1 3.1 0 0.2-2.4-1.9-5.1-4.4-4.7-1.3 0.2-2.3 1.1-2.9 2.2z"/><path class="g" d="m729.2 380.7c-0.5-2.7-1.4-5.7-4.3-6.6-4.4-1.4-6.9 2-8.2 5.6-0.3-2.1-0.6-4.3-1-6.5-0.1-0.8-1.4-0.6-1.4 0.2 0 3.3 0.3 6.6 0.5 9.9 0.3 2.9 0.1 6 1.1 8.7 0.3 0.8 1.6 1 1.8 0 0.4-3-0.2-6.1-0.6-9.1 0.5-1.4 0.9-2.8 1.7-4.1 1.8-3 5.9-4.3 7.5-0.1 1.5 4.1 0.5 8.5 1.1 12.7 0.1 1.1 1.7 1.6 2.1 0.3 1-3.4 0.4-7.6-0.3-11z"/><path class="g" d="m742 361.8c-1.1-0.7-2.5-0.9-3.9-1q-0.3-7.4-0.5-15c-0.1-1.2-1.7-1.1-1.9 0-0.5 4.9-0.8 9.8-0.9 14.9q-2.3 0-4.6 0.3c-1.2 0.1-0.9 2 0.2 2 1.5-0.1 3-0.1 4.4-0.1 0.1 9.6 1 19.4 2.7 28.5 0.2 1.6 2.9 1.2 2.8-0.4-1-9.3-1.6-18.5-2-27.7 1.1 0.2 2.3 0.4 3.5 0.3 0.9-0.2 0.9-1.4 0.2-1.8z"/><path fill-rule="evenodd" class="i" d="m614.6 224.1c-1.8 0.8-5.1 2.1-7.3 1.5-0.3 7.7-0.6 15.5-0.8 23.2q0 0.1 0 0.1 0 0.8 0 1.5c-0.1 1.5-2.4 1.5-2.4 0-0.4-15-0.1-30.8 2.2-45.6 0.1-0.3 0.3-0.5 0.5-0.5 1.3-1.6 4.4-0.1 5.8 0.9 3.1 2.3 4.7 6.1 5.6 9.7 0.9 4.1 0.4 7.3-3.6 9.2zm0.4-10.5c-0.7-2.4-3.6-9-7.3-8.2 0 5.7-0.1 11.3-0.3 17 1.7 0.7 5.6-0.5 6.8-1.4 2.4-1.8 1.5-5.1 0.8-7.4z"/><path fill-rule="evenodd" class="i" d="m632.4 242.7q0.1 0.4 0.1 0.9c0 5-5.2 11.5-10.2 7.2-3-0.9-4.7-4.8-3.1-7.9 1.6-3.4 6.1-5 9.7-3.9-1-4-2.8-8.5-7.5-8.9-1-0.1-1-1.5 0-1.5 6.4-0.2 10 6.6 10.9 12.5q0 0 0.1 0.1c0.3 0.4 0.3 1 0 1.5zm-2.9-0.3c-2.3-0.9-4.5-1.7-6.8 0.2-2 1.7-1.9 4.6-0.2 6 0.3-0.1 0.5-0.1 0.8 0 5.1 1.9 6.3-2.3 6.2-6.2z"/><path fill-rule="evenodd" class="i" d="m645.9 274.6c-5 0.6-9.2-4.1-7.8-9.1 1.5-4.9 7.7-6.1 11.2-2.7 0.9 0.9-0.3 2.5-1.4 1.8-6.2-4-10.5 5.8-3.4 6.7 3.6 0.5 5.2-2.6 5.5-5.7 0.4-3.4 0-7.1-0.1-10.5q-0.2-2.9-0.5-5.8c-2.7 2.6-7.5 3-10.4 0.5-2.9-2.5-3.2-7.1-2.9-10.6 0.3-3.9 1.8-7.9 5.3-9.9 1.6-1 5.4-2 5.8 0.5 0.3 0 0.7 0.1 0.9 0.6 4 9.5 4.8 20.1 5.2 30.3 0.2 5.5-0.4 13.2-7.4 13.9zm3.3-27.1q-0.8-8.4-2.7-16.7 0-0.1 0-0.2-0.1 0-0.2-0.1c-0.9-1.9-4.3 1.3-4.9 2q-1.4 1.5-1.9 3.4c-0.6 1.8-0.7 3.8-0.6 5.7 0.2 2.7 0.6 5.3 3.3 6.5 2.3 0.9 4.1-0.1 6.3-0.7q0.4-0.1 0.7 0.1z"/><path fill-rule="evenodd" class="i" d="m670.7 238.5c0 0.6-0.5 1.4-1.3 1.3-2.9-0.3-5.7-0.5-8.6-0.6-0.2 4.4 1.3 10.9 7 9.3 1.3-0.4 2.1 1.5 0.9 2.2-3.3 2.1-7.1 0.1-8.9-3.1-2.3-4-2.3-9.5-0.7-13.7 1.2-3.2 3.9-6.7 7.7-5.5 4.3 1.3 4.4 6.5 3.9 10.1zm-2.5-1.3c0.1-3.1-0.3-8.6-4.7-5.5-1.6 1.1-2.2 3.7-2.5 5.6q3.6-0.3 7.2-0.1z"/><path fill-rule="evenodd" class="i" d="m710.2 250.4c-2.9-4.1-5.1-8.8-7.7-13.1-2.3-4.1-5-8.1-7.2-12.4q-0.1-0.1-0.3-0.2c-0.1 8.7-0.2 17.5-0.9 26.2-0.1 1-1.6 1-1.6 0-0.8-14.8-0.1-29.7 0.1-44.4 0-0.9 0.7-1.3 1.4-1.2q0.2-0.2 0.5-0.2c5.7 0.2 10.1 6.2 10.1 11.7-0.1 3.3-3.1 8.3-6.7 8.6 2.5 3.4 4.7 7 6.9 10.6 2.7 4.3 5.6 8.8 7.5 13.5 0.5 1.3-1.4 1.9-2.1 0.9zm-15.2-27.5q0.1 0 0.1-0.1c1.7-0.3 3.2-0.2 4.7-1.3 2-1.5 2.5-3.8 2.2-6.3-0.5-4-3.2-7.2-6.9-8.4-0.1 5.3-0.1 10.7-0.1 16.1z"/><path fill-rule="evenodd" class="i" d="m721.5 250.7c-0.3-0.2-0.5-0.4-0.5-0.7-2.8-1-4.6-4.5-3.5-7.8 1.6-4.9 7-6.3 11.5-5q-0.3-1.2-0.9-2.3c-2.8-5-7.5-6.8-12.9-6.1-0.6 0-0.7-0.8-0.3-1.1 7.3-4.3 15.2 2.6 17.3 9.5 1.9 6.5-2.4 17.3-10.7 13.5zm8.2-10.4c-3.1-1.1-6.7-1.5-8.9 1.3-2 2.6-0.8 6 2 6.9 5.3 0.2 7.2-3.9 6.9-8.2z"/><path class="i" d="m746.2 230.4c-3.8-1.9-6.7 1-8.3 4.4q-0.5-3.8-1.2-7.5c-0.2-1.2-2-0.9-2 0.2 0.4 8 1.1 16.1 2.2 24 0.3 1.6 3 1.2 2.9-0.4q0-0.5-0.1-1 0-0.1 0-0.2-0.5-5.8-1.3-11.6c0.5-1.6 1.2-3.2 2.4-4.3 3-3 6.4 0.8 6.9 3.8 0.7 4.1 0.7 8.2 0.4 12.3-0.5 1.8 2.8 2.5 3 0.3 0.4-5.4 1.1-17-4.9-20z"/><path class="i" d="m769 207.1c0.2-1.1-1.3-1.8-1.9-0.8-2.7 4.7-4.3 10.3-6.1 15.4q-2.1 5.7-4 11.5 0-2.7 0-5.5c0-7.5 0.8-15.4-0.1-22.8-0.1-1-1.8-1.5-2-0.2-1.2 7.1-0.6 14.8-0.7 22 0 7.9-0.1 15.9 0.6 23.8 0.1 1.2 1.8 1.2 1.9 0 0.2-3.8 0.3-7.6 0.3-11.4 1.2 1.4 2.5 2.7 3.6 4.2 1.6 2.1 2.8 5.2 4.8 7 0.9 0.8 2.1 0 1.9-1.1-0.5-2.7-3-5.4-4.8-7.4-1.4-1.7-3-3.5-4.8-4.8 1.8-4.6 3.6-9.2 5.4-13.8 2-5.2 4.8-10.6 5.9-16.1z"/><path class="k" d="m291.7 436.5q0 0 0 0"/><path fill-rule="evenodd" class="l" d="m339.8 426.6c-9 8.9-23.3 10.5-35.1 6.6-10.5-3.5-20.8-14.4-17.4-26.3q0 0 0-0.1c0.1-0.3 0.3-0.6 0.7-0.8 2.1-1.1 4.3-1.9 6.5-3 1.6-0.7 3.4-1.9 5.3-2.1 0-1.2 1.7-1.1 2.1-0.1 2.1 5.3 4.7 11.2 10.1 14 5.1 2.7 12.6 1.4 14.4-4.9 2.5-9.4-14.5-14.9-20.7-18.1-12.4-6.4-22.3-15.6-22.9-30.3-0.6-13.2 6.7-25.3 18.1-31.7 11.7-6.4 27.4-8 36.7 3 8.7 10.4 11.8 25.5 2.1 36.4-0.7 0.7-1.5 0.8-2.1 0.5-0.4 0.1-0.9 0-1.4-0.3q-2.9-1.7-6-3c-2-0.9-4-1.6-5.8-2.7-0.8-0.4-1.3-1.1-0.9-2.1 4.1-11-9.2-19.7-17.7-11.6-8.3 8-1 18.6 7.2 22.6 11.9 5.9 25.8 8.1 32.3 21.2 5.3 11 3.2 24.2-5.5 32.8zm-3.1-38.4c-10.1-9.3-28.1-8.3-35.7-20.5-5.8-9.5-0.6-22.7 10.7-24.4 10.4-1.6 19 8.2 15.9 18.1 3.4 0.7 6.8 2.6 9.7 4.3 6.6-8.1 5.1-19.1-0.4-27.4-3-4.5-6.8-8.4-12.2-9.5-4.6-1-9.8-0.4-14.3 0.8-15.6 4.3-27.2 19.3-23.8 35.8 3.5 16.7 19.6 21.9 32.7 29.2 4.7 2.7 9.9 6.2 10.8 11.9 0.8 5.1-2.5 10.1-7 12.2-10.9 5-20.5-5.1-22.9-15-1.2 1-3 1.7-4.4 2.3-2 1-4.1 1.9-6.2 2.6 0.5 9.7 5.9 17.4 15.3 20.9 8.2 3 18.7 3.2 26.5-1 14.9-7.9 17.8-28.8 5.3-40.3z"/><path fill-rule="evenodd" class="l" d="m416.9 430.1c-0.2 0.6-0.7 0.9-1.1 0.9q-0.4 0.2-0.8 0.3c-8.4 0.5-16.9 0.4-25.3 0.5-8.2 0.2-17 1.3-25.2 0.3-0.4 0-0.7-0.2-0.9-0.4-0.6-0.2-1.1-0.7-1.1-1.5-0.3-17.5-0.3-35-0.4-52.5q-0.1-13.3-0.2-26.7c0-7.9-0.6-16.1 0.6-24 0.1-0.7 0.9-0.9 1.5-0.6q0 0 0 0c7.9-0.9 15.9-0.9 23.8-1.1 8-0.2 16-0.7 23.9-0.5 1.1 0 1.6 0.8 1.6 1.6q0.3 0.2 0.4 0.7c0.6 2.3 0.3 4.9 0.3 7.3 0 2.4 0.5 5.1-0.4 7.3-0.1 0.8-0.6 1.6-1.6 1.7-8.9 0.9-17.9 1.2-26.8 0.3 0.3 4.6-0.7 9.4-0.8 14-0.2 4.7-0.1 9.4-0.2 14.1 9.1-1.1 19.1-1.6 28-0.5 0.5 0 1 0.4 1.3 0.8 0.7 0.2 1.3 0.7 1.5 1.6 0.5 4.4 0.6 9.4-0.5 13.7q-0.1 0.2-0.2 0.4c0 0.4-0.3 0.9-0.8 1.1-4.5 1.3-9.8 0.5-14.5 0.6-5 0.1-10 0.4-14.9 0.2 1.1 7.2 0.4 15.4-0.2 22.6 5.2-0.6 10.4-0.8 15.6-0.9 5.3 0 11-0.4 16.3 0.6 0.8 0.2 1 0.9 0.8 1.5 0.3 0.3 0.6 0.7 0.7 1.3 0.6 5 0.9 10.4-0.4 15.3zm-2.7-1.7c-0.3-4.5-0.1-9.1-0.4-13.6q0-0.2 0-0.3c-4.7 0.3-9.6-0.2-14.3-0.1-5.4 0.1-10.7 0.5-16 0.6-0.5 0-0.8-0.2-1.1-0.5-0.6 0-1.1-0.5-1.2-1.3-0.4-7.8-1.2-16.8 0.2-24.6 0.1-0.6 0.7-0.9 1.3-0.9 5.1-1 10.2-1.2 15.4-1.4 4.2-0.1 9.2-0.8 13.5 0-0.2-3.9-0.1-7.8-0.2-11.7-9.3 1.2-19.3 0.4-28.7 0.1-1 0-1.5-1.2-1.2-1.9q-0.1-0.2-0.1-0.3c-0.6-5.2-0.6-10.5-0.5-15.8 0.2-4.6 0.1-9.7 1.7-14.1 0.1-0.4 0.4-0.6 0.6-0.8 0.2-0.4 0.6-0.8 1.3-0.8 8.6-0.3 17.3-0.5 25.9-1-0.3-1.6-0.2-3.3-0.2-5 0-2.2-0.2-4.6 0.3-6.8-7.5 0.6-15.1 0.4-22.7 0.6-7.7 0.2-15.4 0.6-23.1 0.1 1 7.6 0.6 15.5 0.6 23.1q0.1 12.9 0.1 25.7c0.1 17.2 0.4 34.4 0.3 51.6 7.5-1 15.5-0.4 23-0.5 8.5-0.1 17.1-0.6 25.5-0.4z"/><path fill-rule="evenodd" class="l" d="m503.3 391.2c-2 10-5 20.4-11.9 28.1-12.7 14.4-37.9 11.9-50.1-2.1-13.5-15.6-11.7-40.4-7.3-59.2 3.5-14.7 15.3-39.3 33.7-37.6 22.1-3.8 34.2 19.9 36.9 38.6 1.5 10.7 0.8 21.6-1.3 32.2zm-3-36.6c-1.8-8.3-5.1-17.6-11.2-23.7-6.3-6.1-14.7-8-23.2-6.9q-0.3 0-0.6-0.1c-18.4 4.1-26.9 25.7-29.5 42.7-2.6 17-3.3 39.2 11.1 51.5 7.1 6 18.8 8.7 27.9 7.1 9.5-1.6 16.2-9.1 20-17.5 7.2-15.8 9.2-36.1 5.5-53.1z"/><path fill-rule="evenodd" class="l" d="m488.9 372.7c-0.4 12.7-3.7 30.5-16.7 36.4-11.7 5.2-21.7-3.9-23.8-15.1-1.5-7.6-0.9-15.7 0-23.3 0.8-7.2 1.9-14.8 4.6-21.5 1.9-5 4.9-9.9 9.9-12.1 1.9-0.8 5-1.5 7.1-0.7q0.1 0 0.2 0c7-0.4 12.3 6.4 15 12.2 3.3 7.3 4 16.2 3.7 24.1zm-4.9-16.1c-1.4-6.6-5.7-16.8-13.8-16.8q-0.1 0-0.2 0c-1.6 0-3.2-0.2-4.8 0.3-3.6 1.2-6.1 4.4-7.8 7.5-3 5.5-4 12-5 18.1-1.8 11.4-5.2 32.3 6.5 39.7 7.2 4.5 15.5-0.1 19.6-6.4 3.9-6 5.7-13.7 6.5-20.7 0.8-7.2 0.6-14.6-1-21.7z"/><path class="l" d="m552.8 347.9c-16.1-54.9-82.9-64.9-131.3-69.5-7.9-0.8-15.8-1.4-23.8-1.8-2.2-0.1-2.1 3.2 0 3.4 28.4 3.4 57 4.7 84.6 12.7 22.4 6.5 45.1 17.7 58.3 37.7 14.5 22 15.1 51.2 3.4 74.5-11.8 23.3-33 38.6-57.4 46.6-27.3 9.1-56.9 13.5-85.5 16.3-28.5 2.8-58.6 4.7-87 0.4-24.4-3.6-49.7-14.4-62-37.1-13-24.1-6.5-53.7 1.9-78.2 4.8-13.8 11.1-27.7 21.2-38.6 10.5-11.3 24.5-18.4 38.8-23.7 30.5-11.1 62.7-15.4 95-15.7 1.4 0 1.3-2 0-2.1-30.8-2.4-62.1 2.5-91.3 12.4-12.8 4.4-25.5 9.8-36.2 18.2-10.8 8.3-18.6 19.4-24.4 31.6-11 23.5-19.3 52.2-15 78.2 4.3 25.2 23 43.3 46.3 52.3 27.9 10.7 60.3 9.2 89.7 7.6 31.6-1.7 63.3-6 94-13.6 26.1-6.5 50.5-17.7 67-39.7 15.3-20.4 21-47.2 13.7-71.9z"/><path fill-rule="evenodd" class="l" d="m255.8 458.9q-0.5 0.3-1 0.6 0 0.4-0.2 0.8-2 4.1-4 8.3c-0.6 1.2-2.2 1.1-3.1 0.4q-1.6-1.4-3-2.9c-15.9 11.9-27.7 28.7-33.8 47.7-0.6 1.7-3.3 1-2.8-0.8 5.8-19.9 18-37.1 34.3-49.5q-1.5-1.9-2.9-4c-0.8-1.3 0.3-2.8 1.7-3q7-0.5 13.9-1c1.9-0.2 2.5 2.6 0.9 3.4zm-7 4.2q-0.5 0.4-1 0.7 0.2 0.2 0.5 0.5 0.2-0.6 0.5-1.2z"/><path class="l" d="m225.8 408.5c-4.6-1.9-9.3-3.4-14.2-4.3-1.4-0.2-3 0.9-2.5 2.5q0.9 2.5 1.7 5.1c-9.8 2.2-19.7 3.9-29.6 5.1-14.3 1.6-28.3 1.6-42.6 2-1.5 0-1.4 2 0 2.2 24.2 2.9 49.5-0.1 73.5-5.7q0.5 1.5 1 3c0.4 1.3 1.8 1.9 3 1.2 3.3-1.6 6.2-3.6 8.4-6.5q0.3-0.5 0.3-0.9 0.3-0.1 0.5-0.1c1.5-0.4 2.1-2.9 0.5-3.6z"/><path class="l" d="m302.3 511.7q-2.2-9.8-4.3-19.5c-0.4-1.7-2.9-2-3.7-0.5q-4 7.4-8.1 14.8-0.2 0.3-0.3 0.6l-0.5 1c-0.6 1.1-0.2 2.1 0.6 2.6-0.6 1.1-0.1 2.9 1.6 2.9q2.2-0.1 4.4-0.1c-7.2 53.5-28.5 105.7-75.2 136.5-1.4 1-0.1 3.3 1.4 2.4 48.9-28.9 70.4-84.8 77.7-139q0.3-0.1 0.6-0.3 1.5 0.7 3.3 1.1c1.5 0.5 2.9-1 2.5-2.5z"/><path fill-rule="evenodd" class="l" d="m368.5 522.6c-0.2 1.6-1.6 2.4-3.1 1.7q-1.3-0.5-2.6-1.1-0.5 0.3-1 0.5c-13.7 45.6-19.6 92.8-21.1 140.6-0.1 1.6-2.5 1.6-2.5 0-1.4-47.6 6.8-95.4 20.2-141.1-0.8-0.6-1.2-1.5-1.2-2.5q-0.3-0.2-0.7-0.3-0.4-0.2-0.6-0.4c-1.4 1.1-3.9-1-2.7-2.6 4.1-5.3 8.1-10.6 12.2-15.8 1.1-1.4 3.6 0.1 3 1.7q-0.3 0.8-0.6 1.6c0.9 5.9 1.1 11.7 0.7 17.7zm-3.8-8.4q-0.3 1-0.6 2 0 0 0.1 0 0.2 0.1 0.5 0.2 0-1.1 0-2.2zm-3.2-1q-0.8 1-1.6 2 0.5 0 0.9 0.1 0.3-1 0.7-2.1z"/><path class="l" d="m425.3 504.7c-3-3.4-6.2-6.4-9.7-9.3-1.2-1-2.9-0.7-3.4 0.9-1.5 5-2.2 9.9-2 15.1 0.1 2.1 3.6 2.9 3.9 0.5q0.1-0.3 0.1-0.6 0.8-0.2 1.6-0.4c2 8.3 3.2 16.7 3.5 25.3 0.5 13.2-1.5 25.7-4 38.5-0.3 1.5 1.8 2.1 2.3 0.6 7.2-20.4 7.1-44.1 2.1-65.6 1.6-0.5 3.1-1 4.7-1.5 1.5-0.5 2-2.3 0.9-3.5z"/><path fill-rule="evenodd" class="l" d="m548.7 644.5c-25.6-12.4-41.7-41.8-52.8-66.6-9.9-22.2-16.4-45.6-19.5-69.6q-1.9 0.2-3.9 0-0.1 0.3-0.3 0.7c-0.8 2.4-4.3 1.4-3.8-1.1 1.6-7.7 4.1-15.1 7.3-22.3 0.7-1.4 2.8-1.2 3.6 0 3.4 5.5 6.3 11.2 8.7 17.2 0.4 0.8-0.2 2-0.9 2.4-2.2 1-4.5 1.8-6.8 2.4 2.9 23.5 9.2 46.6 18.9 68.3 11.4 25.4 26.5 51.5 50.8 66.3 1.4 0.9 0.2 3.1-1.3 2.3zm-68.9-141.3q0.7-0.2 1.4-0.4-0.5-0.5-0.9-1.1-0.2 0.5-0.5 0.9 0 0.3 0 0.6z"/><path fill-rule="evenodd" class="l" d="m643.2 572.1c-26.9-6-52.6-20.1-74.4-36.8-17.5-13.5-32.9-29.5-45.6-47.5q-0.8 0.5-1.6 1.1c-0.7 0.4-1.4 0.3-2 0q-0.2 0-0.4 0 0 0.1 0 0.2c0.1 2.6-3.7 2.5-4 0l-1.9-17c-0.1-1.5 1.5-2.1 2.7-1.7 0.5-0.1 1-0.1 1.4 0.2q5.4 4 10.7 7.9c0.9 0.7 1.4 1.8 0.8 2.9q-0.5 0.8-1 1.5c-0.1 0.5-0.2 0.9-0.7 1.3q-0.5 0.5-1.1 1 0 0-0.1 0c12.6 17.9 27.8 33.8 45.1 47.1 22.1 17.1 46.6 28.5 72.7 37.7 1.3 0.4 0.8 2.4-0.6 2.1zm-124.4-90.7q0.1 1 0.1 2 0.3-0.5 0.6-1-0.4-0.5-0.7-1z"/><path fill-rule="evenodd" class="l" d="m622.2 434.9c-9.7-11.9-22.5-16.6-36.5-18.9q-0.6 2.1-1.2 4.3c-0.4 1.4-2 1.7-3 1.1-0.7 0.8-2 1.1-2.9 0.2q-4.5-4-9-7.9c-0.7-0.7-0.7-1.7-0.3-2.5q-0.1-0.1-0.3-0.3c-0.8-1.1 0.1-2.7 1.2-3 5.1-1.6 10.2-2.1 15.5-1.5 1.3 0.1 2.4 1.2 2 2.6q-0.4 1.5-0.9 3.1c14.8 2.5 29.7 7.9 37.3 21.3 0.7 1.2-1 2.6-1.9 1.5zm-43.7-19q1 1 2 2 0-0.1 0-0.2-0.3-0.1-0.6-0.4-0.6-0.7-1.2-1.4-0.1 0-0.2 0zm2.6-5.7q-0.5 0.1-1.1 0.1 0.1 0.1 0.2 0.4 0.2 0.2 0.3 0.4 0 0 0.1 0 0.2-0.5 0.5-0.9z"/><path class="l" d="m628.7 363.3c-10.3-4.3-21.4-6.7-32.6-7.4q0.5-2.2 0.6-4.6c0.1-1.7-1.8-2.4-3.1-1.8q-6.8 3.3-13.6 6.5c-1.6 0.7-1.2 2.8 0 3.6 3 2.2 6.2 3.7 9.8 4.9 1.3 0.5 2.3-0.6 2.6-1.7 0.7 0 1.3-0.3 1.7-1.1q0.4-0.8 0.7-1.6c11.1 0.5 21.8 2.6 32.7 5.9 1.6 0.5 2.8-2 1.2-2.7z"/><path fill-rule="evenodd" class="l" d="m224.9 350.3q-5.6 4.4-11.2 8.8c-1.4 1.1-3.4-0.1-3.5-1.4q-0.3-0.5-0.4-1.1 0-0.5 0-1.1c-13.1 3.6-27 3.8-40.4 0.4-9.1-2.2-17.8-6.2-25.5-11.6-5.7-4-14.3-10.8-11.7-18.8 0.4-1 1.8-0.8 1.9 0.3 0.7 9.6 10.1 15.3 17.8 19.6 6.9 3.8 14.4 6.4 22.2 7.9 11.8 2.3 24.1 1.8 35.7-1.5q0.1-4.2 0.9-8.3c0.2-1.4 1.9-1.8 3-1.2 3.3 1.8 6.7 3.3 10.3 4.6 1.2 0.4 2.2 2.4 0.9 3.4zm-7-1.5q-0.6-0.2-1.1-0.4 0.1 0.4 0.1 0.9 0.5-0.2 1-0.5z"/><path class="l" d="m244.6 278.9c-0.5-1.1-2-1.4-2.9-0.8q-2.2 1.3-4.4 2.6c-11.8-15-24.5-29.4-38-42.9-16.4-16.4-35-32.7-57.2-40.5-1.4-0.5-2.4 1.9-1 2.5 21.8 9.6 39.5 24.4 56.1 41.3 13 13.2 25.2 27.1 36.6 41.7l-5.3 3.2c-1.4 0.8-1.3 2.5-0.4 3.4-0.9 1-0.8 3 0.8 3.6q9.1 3.3 18.2 6.6c1.3 0.5 2.8-0.7 2.7-2-0.4-6.7-2.1-12.9-5.2-18.7z"/><path fill-rule="evenodd" class="l" d="m278.3 270.2c0 1.7-2.2 2.8-3.5 1.6q-0.4 0-0.7-0.3-0.5-0.6-1-1.2-0.4-0.2-0.6-0.6c-1.8-2.1-3.6-4.2-5.4-6.3q-2.3-2.6-4.6-5.1c-0.7-0.7-0.7-1.6-0.3-2.3-1.1-1.1-1-3.2 0.8-3.6q1.9-0.5 3.7-0.9c-16.7-48.7-42.9-92.9-75.9-132.6-0.9-1.1 0.6-2.6 1.6-1.5 35.2 37.8 61.5 84.2 78.2 133.2q2.5-0.6 5-1.2c1.3-0.3 2.7 0.7 2.7 2.1q0 9.4 0 18.7zm-11.6-13.5q0.6 0.7 1.3 1.4-0.4-0.8-0.7-1.6-0.3 0.2-0.6 0.2z"/><path class="l" d="m426.8 224.8q-2.5-0.3-5-0.5c-1.7-23.1-6.1-45.8-13.2-67.9-8.7-26.9-21.3-54-38.5-76.7-0.9-1.2-3-0.1-2.1 1.3 15 24.3 28 49.1 36.7 76.5 6.8 21.6 11.1 43.8 12.8 66.3q-1.9-0.2-3.7-0.4c-1.4-0.1-2.1 0.8-2.1 1.8-0.5 0.7-0.7 1.5-0.3 2.4q3.9 8.7 7.8 17.4c0.7 1.4 3.2 1.4 3.8 0 2.6-5.6 4.6-11.4 5.9-17.4 0.4-1.5-0.6-2.6-2.1-2.8z"/><path class="l" d="m352 240q-3.3 0.9-6.6 1.8c-2-9.7-2.8-19.5-2.6-29.6 0.1-1.6-2.3-1.5-2.5 0-1.2 10.2-0.7 20.6 1.3 30.6q-0.8 0.2-1.6 0.4-0.4 0.2-0.7 0.5c-1.5-0.1-3 1.4-2.1 3.1q3.9 7.3 7.9 14.5c0.5 1.1 2.1 1.4 3.1 0.7 1.4 0.4 3.3-0.7 2.6-2.5q-0.3-0.8-0.6-1.7 1.1-3 2.1-6.1c0.8-0.5 1.3-1.5 1.4-2.7q0-0.7-0.2-1.1 0.7-2.6 1.2-5.2c0.4-1.6-1-3.1-2.7-2.7z"/><path class="l" d="m468.3 237.8c8.6-34.9 10.6-72.5 2.8-107.4-0.3-1.3-2.4-1-2.2 0.3 2.4 20.4 4 40.7 2.5 61.3-1.1 14.8-3.4 29.4-6.9 43.7q-0.6-0.3-1.2-0.5c-1.1-0.5-2.3 0-2.9 0.8-1.2-1-3.8-0.3-3.6 1.6l1.5 18.8c0.2 1.9 2.2 2.8 3.7 1.5q6.7-5.8 12.8-12.3c0.7-0.8 0.9-2.2 0-3q-3.1-2.7-6.5-4.8z"/><path fill-rule="evenodd" class="l" d="m654.1 86.9c-12 13-25.6 24.7-38.2 37.1-38.7 38-75.1 80.7-93.5 132.1 2.6 1.7 4.9 4.4 6.5 6.7 0.5 0.8 0.2 1.9-0.4 2.6-4.4 5.3-9.8 9.5-16.1 12.6-1.2 0.5-3.3-0.1-3.1-1.8 0.8-6.3 1-12.6 1.2-18.9-0.2-0.6 0.2-1.3 0.8-1.8 0.3-1.8 2.6-2.3 3.6-1.2 0.5-0.5 1.3-0.6 2.1-0.1q0.1 0.1 0.2 0.2 0.1 0 0.2 0 0.5 0 1.1 0.1c3.5-9.9 7.7-19.6 12.5-29 13.6-26.6 31.6-50.7 51.5-72.9 10.8-12 22.2-23.5 34-34.7 11.6-11 23.5-22.5 36.2-32.4 1-0.8 2.3 0.4 1.4 1.4zm-133.3 176.8q-0.5-0.2-0.9-0.4 0 0.2 0 0.4c-0.1 0.6-0.3 1-0.6 1.4q0 0.2-0.1 0.4 0.8-0.8 1.6-1.8zm-5.4-2.6q0 1.3 0 2.6 0.3-0.9 0.6-1.8-0.2-0.1-0.3-0.3-0.2-0.2-0.3-0.5z"/><path class="l" d="m659.5 272.4c-4.3 7.2-8.9 13.6-15.7 18.7-6.3 4.6-13.5 7.9-21 10-17.3 4.7-35.3 2.6-52.9-0.1 0-2-0.2-4.1-0.3-5.8-0.3-2.5-1.4-4.1-4-4.1-6.8 0.2-14.3 5.4-19.1 9.7-1.3 1.2-0.5 3 0.9 3.5 6.3 2.3 12.7 4.1 19.3 5.2 1.6 0.2 2.5-1 2.4-2.2q0.1 0 0.1-0.1 0.2-0.8 0.4-1.6c18.7 2.9 38.3 4.8 56.5-0.9 14.7-4.7 31.5-15.4 35.5-31.4 0.3-1.3-1.5-2-2.1-0.9z"/></svg>