<svg version="1.2" xmlns="http://www.w3.org/2000/svg" viewBox="0 0 500 500" width="500" height="500"><style>.a{fill:#d1d3d4}.b{fill:#fff}.c{fill:#113a52}.d{fill:#00c3b6}.e{fill:#eee}.f{fill:#416175}.g{fill:#3a4d57}.h{fill:#e6e7e8}</style><path class="a" d="m250 403.7c-70.9 0-128.6-57.7-128.6-128.6 0-70.9 57.7-128.6 128.6-128.6 70.9 0 128.6 57.7 128.6 128.6 0 70.9-57.7 128.6-128.6 128.6zm0-256.2c-70.4 0-127.6 57.2-127.6 127.6 0 70.4 57.2 127.6 127.6 127.6 70.4 0 127.6-57.2 127.6-127.6 0-70.4-57.2-127.6-127.6-127.6z"/><path class="a" d="m250 337.8c-34.6 0-62.7-28.1-62.7-62.7 0-34.6 28.1-62.7 62.7-62.7 34.6 0 62.7 28.1 62.7 62.7 0 34.6-28.1 62.7-62.7 62.7zm0-124.4c-34 0-61.7 27.7-61.7 61.7 0 34 27.7 61.7 61.7 61.7 34 0 61.7-27.7 61.7-61.7 0-34-27.7-61.7-61.7-61.7z"/><path class="a" d="m250.6 398.4c-0.3 0-0.5-0.2-0.5-0.5-0.1-0.3 0.2-0.5 0.4-0.5q1 0 2 0 0 0 0.1 0c0.2 0 0.4 0.2 0.5 0.5 0 0.2-0.3 0.5-0.5 0.5q-1 0-2 0 0 0 0 0zm-3.1 0q0 0 0 0-1 0-2-0.1c-0.3 0-0.5-0.2-0.5-0.5 0.1-0.3 0.3-0.5 0.6-0.5q1 0.1 2 0.1c0.2 0 0.5 0.2 0.4 0.5 0 0.3-0.2 0.5-0.5 0.5zm8.1-0.1c-0.3 0-0.5-0.2-0.5-0.5-0.1-0.3 0.2-0.5 0.4-0.5q1-0.1 2-0.1c0.3-0.1 0.5 0.2 0.6 0.4 0 0.3-0.2 0.6-0.5 0.6q-1 0-2 0.1 0 0 0 0zm-13.1-0.1q0 0 0 0-1-0.1-2-0.2c-0.3 0-0.5-0.2-0.5-0.5 0.1-0.3 0.3-0.5 0.6-0.5q1 0.1 2 0.2c0.2 0 0.5 0.2 0.4 0.5 0 0.3-0.2 0.5-0.5 0.5zm18-0.3c-0.2 0-0.4-0.1-0.4-0.4-0.1-0.3 0.1-0.5 0.4-0.5q1-0.1 2-0.2c0.3-0.1 0.5 0.1 0.5 0.4 0.1 0.3-0.1 0.5-0.4 0.6q-1 0.1-2 0.1 0 0-0.1 0zm-23-0.1q0 0 0 0-1-0.1-2-0.2c-0.3-0.1-0.5-0.3-0.4-0.6 0-0.3 0.2-0.5 0.5-0.4q1 0.1 2 0.2c0.3 0 0.5 0.2 0.4 0.5 0 0.3-0.2 0.5-0.5 0.5zm28-0.4c-0.2 0-0.4-0.2-0.5-0.4 0-0.3 0.2-0.5 0.5-0.6q1-0.1 1.9-0.2c0.3-0.1 0.6 0.1 0.6 0.4 0 0.3-0.1 0.5-0.4 0.5q-1 0.2-2 0.3 0 0-0.1 0zm-32.9-0.2q-0.1 0-0.1 0-1-0.2-2-0.3c-0.3-0.1-0.4-0.3-0.4-0.6 0-0.3 0.3-0.5 0.6-0.4q1 0.1 1.9 0.3c0.3 0 0.5 0.3 0.5 0.5-0.1 0.3-0.3 0.5-0.5 0.5zm37.9-0.5c-0.3 0-0.5-0.2-0.5-0.4-0.1-0.3 0.1-0.6 0.4-0.6q1-0.2 2-0.3c0.2-0.1 0.5 0.1 0.6 0.4 0 0.2-0.2 0.5-0.5 0.5q-0.9 0.2-1.9 0.4-0.1 0-0.1 0zm-42.9-0.3q0 0-0.1 0-1-0.2-1.9-0.4c-0.3-0.1-0.5-0.3-0.4-0.6 0-0.3 0.3-0.5 0.6-0.4q0.9 0.2 1.9 0.4c0.3 0 0.5 0.3 0.4 0.6 0 0.2-0.2 0.4-0.5 0.4zm47.8-0.6c-0.2 0-0.4-0.2-0.5-0.4 0-0.3 0.1-0.6 0.4-0.6q1-0.2 2-0.5c0.2 0 0.5 0.2 0.6 0.4 0 0.3-0.2 0.6-0.4 0.6q-1 0.2-2 0.5 0 0-0.1 0zm-52.7-0.4q0 0-0.1-0.1-1-0.2-1.9-0.4c-0.3-0.1-0.5-0.4-0.4-0.6 0.1-0.3 0.3-0.5 0.6-0.4q1 0.2 1.9 0.5c0.3 0 0.5 0.3 0.4 0.6 0 0.2-0.2 0.4-0.5 0.4zm57.6-0.8c-0.2 0-0.4-0.1-0.5-0.3-0.1-0.3 0.1-0.6 0.4-0.7q0.9-0.2 1.9-0.5c0.3 0 0.5 0.1 0.6 0.4 0.1 0.3-0.1 0.5-0.3 0.6q-1 0.3-2 0.5-0.1 0-0.1 0zm-62.4-0.5q-0.1 0-0.2 0-0.9-0.2-1.9-0.5c-0.3-0.1-0.4-0.4-0.3-0.6 0-0.3 0.3-0.5 0.6-0.4q0.9 0.3 1.9 0.6c0.3 0 0.4 0.3 0.3 0.6 0 0.2-0.2 0.3-0.4 0.3zm67.2-0.8c-0.2 0-0.4-0.1-0.5-0.4 0-0.2 0.1-0.5 0.4-0.6q0.9-0.3 1.9-0.6c0.2 0 0.5 0.1 0.6 0.4 0.1 0.2-0.1 0.5-0.3 0.6q-1 0.3-1.9 0.6-0.1 0-0.2 0zm-72-0.6q-0.1 0-0.2 0-1-0.3-1.9-0.6c-0.3-0.1-0.4-0.4-0.3-0.6 0.1-0.3 0.3-0.4 0.6-0.4q0.9 0.4 1.9 0.7c0.3 0 0.4 0.3 0.3 0.6 0 0.2-0.2 0.3-0.4 0.3zm76.8-0.9c-0.2 0-0.4-0.2-0.5-0.4-0.1-0.2 0.1-0.5 0.3-0.6q1-0.3 1.9-0.7c0.3-0.1 0.6 0.1 0.6 0.3 0.1 0.3 0 0.6-0.3 0.7q-0.9 0.3-1.9 0.6 0 0.1-0.1 0.1zm-81.6-0.7q-0.1 0-0.2 0-0.9-0.3-1.9-0.7c-0.2-0.1-0.4-0.4-0.3-0.6 0.1-0.3 0.4-0.4 0.7-0.3q0.9 0.3 1.9 0.7c0.2 0.1 0.4 0.3 0.3 0.6-0.1 0.2-0.3 0.3-0.5 0.3zm86.3-1.1c-0.2 0-0.4-0.1-0.5-0.3-0.1-0.2 0.1-0.5 0.3-0.6q0.9-0.4 1.9-0.8c0.2-0.1 0.5 0.1 0.6 0.3 0.1 0.3 0 0.6-0.3 0.7q-0.9 0.4-1.8 0.7-0.1 0-0.2 0zm-91-0.7q-0.1 0-0.2 0-0.9-0.4-1.8-0.8c-0.3-0.1-0.4-0.4-0.3-0.6 0.1-0.3 0.4-0.4 0.6-0.3q1 0.4 1.9 0.8c0.2 0.1 0.4 0.4 0.3 0.6-0.1 0.2-0.3 0.3-0.5 0.3zm95.6-1.2c-0.2 0-0.4-0.1-0.4-0.3-0.2-0.2 0-0.5 0.2-0.6q0.9-0.4 1.8-0.8c0.3-0.1 0.6 0 0.7 0.2 0.1 0.3 0 0.6-0.3 0.7q-0.9 0.4-1.8 0.8-0.1 0-0.2 0zm-100.2-0.8q-0.1 0-0.2 0-0.9-0.4-1.8-0.9c-0.3-0.1-0.4-0.4-0.3-0.6 0.1-0.3 0.4-0.4 0.7-0.3q0.9 0.5 1.8 0.9c0.3 0.1 0.4 0.4 0.2 0.6 0 0.2-0.2 0.3-0.4 0.3zm104.7-1.3c-0.1 0-0.3-0.1-0.4-0.2-0.1-0.3 0-0.6 0.2-0.7q0.9-0.4 1.8-0.9c0.2-0.1 0.5 0 0.7 0.2 0.1 0.3 0 0.6-0.2 0.7q-0.9 0.5-1.8 0.9-0.1 0-0.3 0zm-109.2-0.8q-0.1 0-0.3-0.1-0.9-0.5-1.7-0.9c-0.3-0.2-0.4-0.5-0.3-0.7 0.2-0.3 0.5-0.3 0.7-0.2q0.9 0.5 1.8 0.9c0.2 0.1 0.3 0.4 0.2 0.7-0.1 0.2-0.2 0.3-0.4 0.3zm113.7-1.4c-0.2 0-0.4-0.1-0.5-0.3-0.1-0.2 0-0.5 0.2-0.7q0.9-0.4 1.8-0.9c0.2-0.2 0.5-0.1 0.7 0.2 0.1 0.2 0 0.5-0.2 0.6q-0.9 0.5-1.8 1-0.1 0.1-0.2 0.1zm-118.2-1q-0.1 0-0.2-0.1-0.9-0.5-1.8-1c-0.2-0.1-0.3-0.4-0.1-0.7 0.1-0.2 0.4-0.3 0.6-0.1q0.9 0.5 1.8 0.9c0.2 0.2 0.3 0.5 0.2 0.7-0.1 0.2-0.3 0.3-0.5 0.3zm122.5-1.5c-0.1 0-0.3-0.1-0.4-0.2-0.1-0.3-0.1-0.6 0.2-0.7q0.8-0.5 1.7-1.1c0.2-0.1 0.5 0 0.7 0.2 0.1 0.2 0 0.6-0.2 0.7q-0.8 0.5-1.7 1-0.1 0.1-0.3 0.1zm-126.8-1.1q-0.1 0-0.2 0-0.9-0.6-1.8-1.1c-0.2-0.1-0.3-0.5-0.1-0.7 0.1-0.2 0.5-0.3 0.7-0.1q0.8 0.5 1.7 1c0.2 0.2 0.3 0.5 0.1 0.7-0.1 0.2-0.2 0.2-0.4 0.2zm131.1-1.5q-0.3 0-0.4-0.3c-0.2-0.2-0.1-0.5 0.1-0.7q0.8-0.5 1.7-1.1c0.2-0.1 0.5 0 0.7 0.2 0.1 0.2 0.1 0.5-0.2 0.7q-0.8 0.5-1.6 1.1-0.2 0.1-0.3 0.1zm-135.3-1.2q-0.1 0-0.3-0.1-0.8-0.5-1.6-1.1c-0.3-0.2-0.3-0.5-0.2-0.7 0.2-0.2 0.5-0.3 0.7-0.1q0.8 0.6 1.7 1.1c0.2 0.2 0.3 0.5 0.1 0.7q-0.1 0.2-0.4 0.2zm139.4-1.6q-0.2 0-0.4-0.3c-0.1-0.2-0.1-0.5 0.1-0.7q0.8-0.5 1.6-1.1c0.3-0.2 0.6-0.1 0.7 0.1 0.2 0.2 0.2 0.5-0.1 0.7q-0.8 0.6-1.6 1.2-0.1 0.1-0.3 0.1zm-143.5-1.3q-0.2 0-0.3-0.1-0.8-0.5-1.6-1.2c-0.2-0.1-0.3-0.4-0.1-0.7 0.2-0.2 0.5-0.2 0.7-0.1q0.8 0.7 1.6 1.2c0.2 0.2 0.3 0.5 0.1 0.7q-0.2 0.2-0.4 0.2zm147.5-1.7q-0.2 0-0.4-0.2c-0.1-0.2-0.1-0.5 0.1-0.7q0.8-0.6 1.6-1.2c0.2-0.2 0.5-0.2 0.7 0 0.2 0.3 0.1 0.6-0.1 0.7q-0.8 0.7-1.6 1.3-0.1 0.1-0.3 0.1zm-151.5-1.3q-0.2 0-0.3-0.1-0.8-0.6-1.6-1.3c-0.2-0.2-0.2-0.5 0-0.7 0.2-0.2 0.5-0.2 0.7-0.1q0.7 0.7 1.5 1.3c0.2 0.2 0.3 0.5 0.1 0.7q-0.2 0.2-0.4 0.2zm155.4-1.9q-0.2 0-0.3-0.1c-0.2-0.2-0.2-0.6 0-0.7q0.8-0.7 1.5-1.3c0.2-0.2 0.6-0.2 0.7 0 0.2 0.2 0.2 0.5 0 0.7q-0.8 0.7-1.5 1.3-0.2 0.1-0.4 0.1zm-159.2-1.3q-0.2 0-0.4-0.1-0.7-0.7-1.5-1.4c-0.2-0.1-0.2-0.5 0-0.7 0.2-0.2 0.5-0.2 0.7 0q0.7 0.7 1.5 1.3c0.2 0.2 0.2 0.5 0 0.7q-0.1 0.2-0.3 0.2zm163-1.9q-0.2 0-0.4-0.2c-0.1-0.2-0.1-0.5 0.1-0.7q0.7-0.7 1.4-1.4c0.2-0.2 0.6-0.2 0.7 0 0.2 0.3 0.2 0.6 0 0.8q-0.7 0.6-1.5 1.3-0.1 0.2-0.3 0.2zm-166.8-1.5q-0.1 0-0.3-0.1-0.7-0.7-1.4-1.4c-0.2-0.2-0.2-0.5-0.1-0.7 0.2-0.2 0.6-0.2 0.8 0q0.7 0.7 1.4 1.4c0.2 0.2 0.2 0.5 0 0.7q-0.1 0.1-0.3 0.1zm170.3-2q-0.2 0-0.3-0.1c-0.2-0.2-0.2-0.6 0-0.7q0.7-0.7 1.4-1.5c0.2-0.2 0.5-0.2 0.7 0 0.2 0.2 0.2 0.5 0 0.7q-0.7 0.8-1.4 1.5-0.2 0.1-0.4 0.1zm-173.9-1.5q-0.2 0-0.4-0.1-0.7-0.7-1.4-1.5c-0.2-0.2-0.2-0.5 0-0.7 0.2-0.2 0.6-0.2 0.7 0q0.7 0.8 1.4 1.5c0.2 0.2 0.2 0.5 0 0.7q-0.1 0.1-0.3 0.1zm177.4-2.1q-0.1 0-0.3-0.1c-0.2-0.2-0.2-0.5 0-0.7q0.7-0.8 1.3-1.5c0.2-0.2 0.5-0.2 0.7 0 0.2 0.2 0.3 0.5 0.1 0.7q-0.7 0.7-1.4 1.5-0.2 0.1-0.4 0.1zm-180.9-1.5q-0.2 0-0.3-0.2-0.7-0.7-1.4-1.5c-0.1-0.2-0.1-0.5 0.1-0.7 0.2-0.2 0.5-0.2 0.7 0.1q0.6 0.7 1.3 1.4c0.2 0.2 0.2 0.6 0 0.7q-0.2 0.2-0.4 0.2zm184.3-2.2q-0.2 0-0.3-0.1c-0.2-0.2-0.3-0.5-0.1-0.7q0.7-0.8 1.3-1.6c0.2-0.2 0.5-0.2 0.7 0 0.2 0.2 0.2 0.5 0.1 0.7q-0.7 0.8-1.3 1.5-0.2 0.2-0.4 0.2zm-187.5-1.6q-0.3 0-0.4-0.2-0.7-0.8-1.3-1.5c-0.2-0.3-0.1-0.6 0.1-0.7 0.2-0.2 0.5-0.2 0.7 0q0.6 0.8 1.2 1.6c0.2 0.2 0.2 0.5 0 0.7q-0.2 0.1-0.3 0.1zm190.7-2.3q-0.2 0-0.3-0.1c-0.2-0.2-0.3-0.5-0.1-0.7q0.6-0.8 1.2-1.6c0.2-0.2 0.5-0.2 0.7-0.1 0.2 0.2 0.3 0.5 0.1 0.8q-0.6 0.7-1.2 1.5-0.2 0.2-0.4 0.2zm-193.9-1.6q-0.2 0-0.4-0.2-0.6-0.8-1.2-1.6c-0.1-0.2-0.1-0.6 0.1-0.7 0.3-0.2 0.6-0.1 0.7 0.1q0.6 0.8 1.2 1.6c0.2 0.2 0.2 0.5-0.1 0.7q-0.1 0.1-0.3 0.1zm196.9-2.4q-0.1 0-0.3-0.1c-0.2-0.1-0.3-0.4-0.1-0.7q0.6-0.8 1.2-1.6c0.1-0.2 0.4-0.3 0.7-0.1 0.2 0.2 0.2 0.5 0.1 0.7q-0.6 0.8-1.2 1.6-0.1 0.2-0.4 0.2zm-199.8-1.6q-0.3-0.1-0.4-0.3-0.6-0.8-1.2-1.6c-0.1-0.2-0.1-0.6 0.2-0.7 0.2-0.2 0.5-0.1 0.7 0.1q0.5 0.8 1.1 1.7c0.1 0.2 0.1 0.5-0.1 0.7q-0.2 0.1-0.3 0.1zm202.7-2.5q-0.2 0-0.3-0.1c-0.2-0.1-0.3-0.4-0.1-0.7q0.5-0.8 1.1-1.6c0.1-0.3 0.4-0.3 0.7-0.2 0.2 0.2 0.3 0.5 0.1 0.7q-0.5 0.9-1.1 1.7-0.2 0.2-0.4 0.2zm-205.5-1.7q-0.3 0-0.4-0.2-0.6-0.9-1.1-1.7c-0.2-0.3-0.1-0.6 0.2-0.7 0.2-0.2 0.5-0.1 0.6 0.1q0.6 0.9 1.1 1.7c0.2 0.3 0.1 0.6-0.1 0.7q-0.2 0.1-0.3 0.1zm208.2-2.5q-0.2 0-0.3-0.1c-0.2-0.1-0.3-0.4-0.1-0.7q0.5-0.8 1-1.7c0.1-0.2 0.4-0.3 0.7-0.2 0.2 0.2 0.3 0.5 0.1 0.7q-0.5 0.9-1 1.8c-0.1 0.1-0.2 0.2-0.4 0.2zm-210.8-1.8c-0.2 0-0.4 0-0.5-0.2q-0.5-0.9-1-1.7c-0.1-0.3 0-0.6 0.2-0.7 0.3-0.2 0.6-0.1 0.7 0.2q0.5 0.8 1 1.7c0.1 0.2 0.1 0.5-0.2 0.7q-0.1 0-0.2 0zm213.3-2.5q-0.1 0-0.2-0.1c-0.3-0.1-0.4-0.4-0.2-0.7q0.5-0.9 0.9-1.7c0.2-0.3 0.5-0.4 0.7-0.2 0.2 0.1 0.3 0.4 0.2 0.6q-0.5 0.9-1 1.8c0 0.2-0.2 0.3-0.4 0.3zm-215.8-1.8c-0.2 0-0.3-0.1-0.4-0.3q-0.5-0.9-0.9-1.8c-0.2-0.2-0.1-0.5 0.2-0.6 0.2-0.2 0.5-0.1 0.6 0.2q0.5 0.9 1 1.8c0.1 0.2 0 0.5-0.2 0.6q-0.2 0.1-0.3 0.1zm218.2-2.7q-0.2 0-0.3 0c-0.2-0.2-0.3-0.5-0.2-0.7q0.5-0.9 0.9-1.8c0.1-0.2 0.4-0.3 0.7-0.2 0.2 0.1 0.3 0.4 0.2 0.6q-0.4 1-0.9 1.9c-0.1 0.1-0.3 0.2-0.4 0.2zm-220.4-1.8c-0.2 0-0.4-0.1-0.5-0.2q-0.4-0.9-0.8-1.9c-0.2-0.2-0.1-0.5 0.2-0.6 0.2-0.1 0.5 0 0.7 0.2q0.4 0.9 0.8 1.8c0.1 0.3 0 0.6-0.2 0.7q-0.1 0-0.2 0zm222.5-2.7q-0.1 0-0.2 0c-0.2-0.2-0.3-0.5-0.2-0.7q0.4-0.9 0.8-1.8c0.1-0.3 0.4-0.4 0.6-0.3 0.3 0.1 0.4 0.4 0.3 0.7q-0.4 0.9-0.8 1.8c-0.1 0.2-0.3 0.3-0.5 0.3zm-224.6-1.8c-0.2 0-0.4-0.1-0.5-0.3q-0.4-0.9-0.8-1.9c-0.1-0.2 0.1-0.5 0.3-0.6 0.3-0.1 0.6 0 0.7 0.3q0.3 0.9 0.7 1.8c0.1 0.3 0 0.5-0.2 0.7q-0.1 0-0.2 0zm226.6-2.8q-0.1 0-0.2-0.1c-0.2-0.1-0.4-0.4-0.3-0.6q0.4-0.9 0.8-1.9c0.1-0.2 0.4-0.4 0.6-0.3 0.3 0.1 0.4 0.4 0.3 0.7q-0.4 0.9-0.7 1.9c-0.1 0.2-0.3 0.3-0.5 0.3zm-228.5-1.8c-0.2 0-0.4-0.2-0.5-0.4q-0.3-0.9-0.7-1.8c-0.1-0.3 0-0.6 0.3-0.7 0.3-0.1 0.6 0.1 0.7 0.3q0.3 1 0.7 1.9c0.1 0.2-0.1 0.5-0.3 0.6q-0.1 0.1-0.2 0.1zm230.3-2.9q-0.1 0-0.2 0c-0.2-0.1-0.4-0.4-0.3-0.7q0.3-0.9 0.7-1.9c0.1-0.2 0.3-0.4 0.6-0.3 0.3 0.1 0.4 0.4 0.3 0.6q-0.3 1-0.6 1.9c-0.1 0.3-0.3 0.4-0.5 0.4zm-232-1.8c-0.2 0-0.4-0.2-0.5-0.4q-0.3-0.9-0.6-1.9c-0.1-0.3 0-0.5 0.3-0.6 0.3-0.1 0.5 0 0.6 0.3q0.3 1 0.7 1.9c0 0.3-0.1 0.5-0.4 0.6q0 0.1-0.1 0.1zm233.6-3q-0.1 0-0.2 0c-0.2-0.1-0.4-0.4-0.3-0.6q0.3-1 0.6-1.9c0.1-0.3 0.3-0.5 0.6-0.4 0.3 0.1 0.4 0.4 0.3 0.6q-0.2 1-0.5 2c-0.1 0.2-0.3 0.3-0.5 0.3zm-235.1-1.8c-0.2 0-0.4-0.2-0.5-0.4q-0.3-0.9-0.6-1.9c0-0.3 0.1-0.6 0.4-0.6 0.3-0.1 0.5 0.1 0.6 0.3q0.3 1 0.5 1.9c0.1 0.3 0 0.6-0.3 0.7q-0.1 0-0.1 0zm236.5-3q-0.1 0-0.2 0c-0.2-0.1-0.4-0.4-0.3-0.6q0.2-1 0.5-2c0-0.2 0.3-0.4 0.6-0.3 0.3 0 0.4 0.3 0.4 0.6q-0.3 1-0.6 1.9c0 0.3-0.2 0.4-0.4 0.4zm-237.8-1.9c-0.3 0-0.5-0.1-0.5-0.3q-0.3-1-0.5-2c-0.1-0.3 0.1-0.5 0.4-0.6 0.2 0 0.5 0.1 0.6 0.4q0.2 1 0.4 1.9c0.1 0.3-0.1 0.6-0.3 0.6q-0.1 0-0.1 0zm239-3q-0.1 0-0.2 0c-0.2 0-0.4-0.3-0.3-0.6q0.2-0.9 0.4-1.9c0-0.3 0.3-0.5 0.6-0.4 0.2 0 0.4 0.3 0.4 0.6q-0.2 1-0.5 1.9c0 0.3-0.2 0.4-0.4 0.4zm-240.2-1.8c-0.2 0-0.4-0.2-0.4-0.4q-0.3-1-0.4-2c-0.1-0.3 0.1-0.5 0.4-0.6 0.2 0 0.5 0.1 0.5 0.4q0.2 1 0.4 2c0.1 0.2-0.1 0.5-0.4 0.6q0 0-0.1 0zm241.1-3.1q0 0 0 0c-0.3 0-0.5-0.3-0.4-0.6q0.1-0.9 0.3-1.9c0-0.3 0.3-0.5 0.6-0.4 0.2 0 0.4 0.3 0.4 0.5q-0.2 1-0.4 2c0 0.3-0.2 0.4-0.5 0.4zm-242-1.9c-0.2 0-0.4-0.1-0.5-0.4q-0.1-1-0.3-2c0-0.2 0.2-0.5 0.4-0.5 0.3-0.1 0.6 0.1 0.6 0.4q0.2 1 0.3 2c0.1 0.2-0.1 0.5-0.4 0.5q0 0-0.1 0zm242.8-3q0 0 0 0c-0.3-0.1-0.5-0.3-0.5-0.6q0.2-1 0.3-2c0-0.2 0.3-0.4 0.6-0.4 0.2 0 0.4 0.3 0.4 0.6q-0.1 1-0.3 1.9c0 0.3-0.2 0.5-0.5 0.5zm-243.5-1.9c-0.2 0-0.4-0.2-0.5-0.5q-0.1-1-0.2-2c0-0.2 0.2-0.5 0.4-0.5 0.3 0 0.6 0.2 0.6 0.4q0.1 1 0.2 2c0 0.3-0.1 0.5-0.4 0.6q-0.1 0-0.1 0zm244.1-3.1q0 0 0 0c-0.3 0-0.5-0.3-0.5-0.5q0.1-1 0.2-2c0-0.3 0.3-0.5 0.5-0.5 0.3 0 0.5 0.3 0.5 0.5q-0.1 1.1-0.2 2.1c0 0.2-0.2 0.4-0.5 0.4zm-244.6-1.9c-0.2 0-0.5-0.2-0.5-0.5q-0.1-1-0.1-2c0-0.2 0.2-0.5 0.4-0.5 0.3 0 0.5 0.2 0.6 0.5q0 1 0.1 2c0 0.2-0.2 0.5-0.4 0.5q-0.1 0-0.1 0zm245-3.1q0 0 0 0c-0.3 0-0.5-0.2-0.5-0.5q0.1-1 0.1-2c0-0.3 0.2-0.5 0.5-0.5 0.3 0 0.5 0.3 0.5 0.5q0 1-0.1 2c0 0.3-0.2 0.5-0.5 0.5zm-245.3-1.9c-0.3 0-0.5-0.2-0.5-0.5q0-1-0.1-2c0-0.3 0.3-0.5 0.5-0.5 0.4 0 0.5 0.2 0.5 0.5q0.1 1 0.1 2c0 0.3-0.2 0.5-0.5 0.5q0 0 0 0zm245.5-3.1q0 0 0 0c-0.3 0-0.5-0.2-0.5-0.5q0-1 0-2v-0.2c0-0.3 0.2-0.5 0.5-0.5 0.3 0 0.5 0.2 0.5 0.5v0.2q0 1 0 2c0 0.3-0.2 0.5-0.5 0.5zm-245.6-2c-0.3 0-0.5-0.1-0.5-0.4v-0.1q0-1 0-1.9c0-0.3 0.2-0.5 0.5-0.5q0 0 0 0c0.3 0 0.5 0.2 0.5 0.5q0 0.9 0 1.9c0 0.3-0.2 0.5-0.5 0.5zm245.6-3.2c-0.3 0-0.5-0.2-0.5-0.5q-0.1-1-0.1-2c0-0.3 0.2-0.5 0.5-0.5 0.3 0 0.5 0.2 0.5 0.5q0 1 0.1 2c0 0.3-0.3 0.5-0.5 0.5q0 0 0 0zm-245.5-1.7q0 0 0 0c-0.3 0-0.5-0.3-0.5-0.5q0-1 0.1-2c0-0.3 0.2-0.6 0.5-0.5 0.3 0 0.5 0.2 0.5 0.5q-0.1 1-0.1 2c0 0.3-0.2 0.5-0.5 0.5zm245.2-3.3c-0.2 0-0.5-0.2-0.5-0.5q0-1-0.1-2c0-0.2 0.2-0.5 0.4-0.5 0.3 0 0.6 0.2 0.6 0.5q0.1 1 0.1 2c0 0.2-0.2 0.5-0.4 0.5q-0.1 0-0.1 0zm-244.9-1.7q0 0 0 0c-0.3 0-0.5-0.3-0.5-0.6q0.1-1 0.2-2c0-0.2 0.3-0.4 0.5-0.4 0.3 0 0.5 0.3 0.5 0.5q-0.1 1-0.2 2c0 0.3-0.2 0.5-0.5 0.5zm244.5-3.3c-0.3 0-0.5-0.2-0.5-0.4q-0.1-1-0.2-2c-0.1-0.3 0.1-0.5 0.4-0.6 0.3 0 0.5 0.2 0.6 0.5q0.1 1 0.2 2c0 0.2-0.2 0.5-0.4 0.5q-0.1 0-0.1 0zm-244-1.7q0 0-0.1 0c-0.2 0-0.4-0.3-0.4-0.6q0.1-1 0.3-2c0-0.2 0.2-0.4 0.5-0.4 0.3 0.1 0.5 0.3 0.4 0.6q-0.1 1-0.2 2c0 0.2-0.3 0.4-0.5 0.4zm243.4-3.3c-0.3 0-0.5-0.1-0.5-0.4q-0.2-1-0.3-2c-0.1-0.2 0.1-0.5 0.4-0.5 0.2-0.1 0.5 0.1 0.5 0.4q0.2 1 0.4 2c0 0.2-0.2 0.5-0.5 0.5q0 0 0 0zm-242.7-1.7q0 0-0.1 0c-0.3 0-0.4-0.3-0.4-0.5q0.2-1 0.3-2c0.1-0.3 0.4-0.5 0.6-0.4 0.3 0 0.5 0.3 0.4 0.6q-0.1 0.9-0.3 1.9c0 0.3-0.3 0.4-0.5 0.4zm241.8-3.2c-0.2 0-0.4-0.2-0.5-0.4q-0.1-1-0.4-2c0-0.2 0.2-0.5 0.4-0.6 0.3 0 0.6 0.2 0.6 0.4q0.2 1 0.4 2c0.1 0.3-0.1 0.5-0.4 0.6q0 0-0.1 0zm-240.9-1.7q0 0-0.1 0c-0.3 0-0.4-0.3-0.4-0.6q0.2-1 0.4-2c0.1-0.2 0.4-0.4 0.6-0.3 0.3 0 0.5 0.3 0.4 0.6q-0.2 0.9-0.4 1.9c-0.1 0.3-0.3 0.4-0.5 0.4zm239.9-3.2c-0.2 0-0.4-0.2-0.5-0.4q-0.2-1-0.5-1.9c0-0.3 0.1-0.6 0.4-0.6 0.3-0.1 0.5 0.1 0.6 0.3q0.2 1 0.5 2c0 0.3-0.1 0.5-0.4 0.6q-0.1 0-0.1 0zm-238.8-1.7q0 0-0.1 0c-0.3-0.1-0.4-0.3-0.4-0.6q0.3-1 0.5-1.9c0.1-0.3 0.4-0.5 0.6-0.4 0.3 0.1 0.5 0.4 0.4 0.6q-0.3 1-0.5 2c-0.1 0.2-0.3 0.3-0.5 0.3zm237.6-3.2c-0.3 0-0.5-0.1-0.5-0.3q-0.3-1-0.6-1.9c-0.1-0.3 0.1-0.6 0.4-0.7 0.2 0 0.5 0.1 0.6 0.4q0.3 0.9 0.5 1.9c0.1 0.3 0 0.6-0.3 0.6q-0.1 0-0.1 0zm-236.3-1.6q-0.1 0-0.1 0c-0.3-0.1-0.4-0.4-0.4-0.6q0.3-1 0.6-2c0.1-0.2 0.4-0.4 0.6-0.3 0.3 0.1 0.5 0.4 0.4 0.6q-0.3 1-0.6 1.9c-0.1 0.3-0.3 0.4-0.5 0.4zm234.8-3.2c-0.2 0-0.4-0.1-0.5-0.3q-0.3-0.9-0.6-1.9c-0.1-0.3 0.1-0.5 0.3-0.6 0.3-0.1 0.6 0 0.7 0.3q0.3 0.9 0.6 1.9c0.1 0.3-0.1 0.5-0.3 0.6q-0.1 0-0.2 0zm-233.3-1.6q-0.1 0-0.1 0c-0.3-0.1-0.4-0.4-0.4-0.7q0.4-0.9 0.7-1.9c0.1-0.2 0.4-0.4 0.6-0.3 0.3 0.1 0.4 0.4 0.4 0.7q-0.4 0.9-0.7 1.9c-0.1 0.2-0.3 0.3-0.5 0.3zm231.7-3.1c-0.2 0-0.4-0.1-0.5-0.3q-0.3-1-0.7-1.9c-0.1-0.2 0-0.5 0.3-0.6 0.3-0.1 0.5 0 0.6 0.3q0.4 0.9 0.8 1.8c0.1 0.3-0.1 0.6-0.3 0.7q-0.1 0-0.2 0zm-230-1.6q-0.1 0-0.2-0.1c-0.2-0.1-0.3-0.3-0.2-0.6q0.3-0.9 0.7-1.9c0.1-0.2 0.4-0.4 0.7-0.3 0.2 0.1 0.3 0.4 0.2 0.7q-0.3 0.9-0.7 1.9c-0.1 0.2-0.3 0.3-0.5 0.3zm228.2-3c-0.2 0-0.4-0.2-0.5-0.4q-0.4-0.9-0.8-1.8c-0.1-0.2 0-0.5 0.3-0.6 0.2-0.1 0.5 0 0.6 0.2q0.4 0.9 0.8 1.9c0.1 0.2 0 0.5-0.2 0.6q-0.1 0.1-0.2 0.1zm-226.3-1.7q-0.1 0-0.2 0c-0.2-0.1-0.3-0.4-0.2-0.7q0.4-0.9 0.8-1.8c0.1-0.3 0.4-0.4 0.6-0.3 0.3 0.1 0.4 0.4 0.3 0.7q-0.4 0.9-0.8 1.8c-0.1 0.2-0.3 0.3-0.5 0.3zm224.3-2.9c-0.2 0-0.4-0.1-0.5-0.3q-0.4-0.9-0.8-1.8c-0.2-0.2-0.1-0.5 0.2-0.7 0.2-0.1 0.5 0 0.7 0.3q0.4 0.9 0.8 1.8c0.1 0.2 0 0.5-0.2 0.6q-0.1 0.1-0.2 0.1zm-222.2-1.6q-0.1 0-0.2-0.1c-0.3-0.1-0.4-0.4-0.2-0.7q0.4-0.9 0.9-1.8c0.1-0.2 0.4-0.3 0.6-0.2 0.3 0.1 0.4 0.4 0.2 0.7q-0.4 0.9-0.8 1.8c-0.1 0.2-0.3 0.3-0.5 0.3zm220-2.9c-0.2 0-0.4-0.1-0.5-0.3q-0.4-0.9-0.9-1.7c-0.1-0.3 0-0.6 0.2-0.7 0.2-0.1 0.5 0 0.7 0.2q0.4 0.9 0.9 1.8c0.1 0.2 0 0.5-0.2 0.6q-0.1 0.1-0.2 0.1zm-217.7-1.6q-0.1 0-0.3-0.1c-0.2-0.1-0.3-0.4-0.2-0.7q0.5-0.8 1-1.7c0.1-0.3 0.4-0.4 0.7-0.2 0.2 0.1 0.3 0.4 0.2 0.7q-0.5 0.8-1 1.7c-0.1 0.2-0.2 0.3-0.4 0.3zm215.3-2.8c-0.2 0-0.4-0.1-0.4-0.2q-0.5-0.9-1-1.8c-0.2-0.2-0.1-0.5 0.1-0.7 0.3-0.1 0.6 0 0.7 0.2q0.5 0.9 1 1.8c0.2 0.2 0.1 0.5-0.2 0.6q-0.1 0.1-0.2 0.1zm-212.9-1.6q-0.1 0-0.2-0.1c-0.3-0.1-0.3-0.4-0.2-0.7q0.5-0.8 1-1.7c0.2-0.2 0.5-0.3 0.7-0.1 0.3 0.1 0.3 0.4 0.2 0.6q-0.5 0.9-1 1.8c-0.1 0.1-0.3 0.2-0.5 0.2zm210.3-2.7c-0.1 0-0.3-0.1-0.4-0.2q-0.5-0.9-1.1-1.7c-0.1-0.2 0-0.6 0.2-0.7 0.2-0.2 0.5-0.1 0.7 0.1q0.5 0.9 1.1 1.7c0.1 0.3 0 0.6-0.2 0.7q-0.1 0.1-0.3 0.1zm-207.6-1.6q-0.2 0-0.3-0.1c-0.2-0.1-0.3-0.4-0.2-0.6q0.6-0.9 1.1-1.7c0.2-0.3 0.5-0.3 0.7-0.2 0.3 0.2 0.3 0.5 0.2 0.7q-0.6 0.9-1.1 1.7-0.2 0.2-0.4 0.2zm204.9-2.6q-0.2 0-0.4-0.2-0.6-0.8-1.1-1.6c-0.2-0.3-0.1-0.6 0.1-0.7 0.2-0.2 0.5-0.1 0.7 0.1q0.6 0.8 1.1 1.6c0.2 0.3 0.1 0.6-0.1 0.7q-0.1 0.1-0.3 0.1zm-202.1-1.5q-0.2 0-0.3-0.1c-0.2-0.2-0.3-0.5-0.1-0.7q0.5-0.8 1.1-1.7c0.2-0.2 0.5-0.2 0.7-0.1 0.2 0.2 0.3 0.5 0.1 0.7q-0.6 0.8-1.1 1.7-0.2 0.2-0.4 0.2zm199.2-2.6q-0.2 0-0.4-0.2-0.6-0.8-1.2-1.6c-0.2-0.2-0.1-0.5 0.1-0.7 0.2-0.1 0.5-0.1 0.7 0.1q0.6 0.8 1.2 1.6c0.2 0.3 0.1 0.6-0.1 0.7q-0.1 0.1-0.3 0.1zm-196.3-1.5q-0.1 0-0.3-0.1c-0.2-0.1-0.2-0.5-0.1-0.7q0.6-0.8 1.3-1.6c0.1-0.2 0.5-0.2 0.7 0 0.2 0.1 0.2 0.4 0.1 0.7q-0.7 0.7-1.3 1.5-0.1 0.2-0.4 0.2zm193.3-2.4q-0.3 0-0.4-0.2-0.7-0.8-1.3-1.5c-0.2-0.3-0.2-0.6 0.1-0.8 0.2-0.1 0.5-0.1 0.7 0.1q0.6 0.8 1.2 1.6c0.2 0.2 0.2 0.5 0 0.7q-0.2 0.1-0.3 0.1zm-190.1-1.5q-0.2 0-0.4-0.1c-0.2-0.2-0.2-0.5 0-0.7q0.6-0.8 1.3-1.5c0.2-0.3 0.5-0.3 0.7-0.1 0.2 0.2 0.2 0.5 0 0.7q-0.6 0.8-1.3 1.5-0.1 0.2-0.3 0.2zm186.8-2.4q-0.2 0-0.3-0.1-0.7-0.8-1.4-1.5c-0.2-0.2-0.1-0.5 0.1-0.7 0.2-0.2 0.5-0.2 0.7 0q0.6 0.8 1.3 1.5c0.2 0.2 0.2 0.5 0 0.7q-0.2 0.1-0.4 0.1zm-183.6-1.4q-0.1 0-0.3-0.1c-0.2-0.2-0.2-0.5 0-0.7q0.6-0.8 1.3-1.5c0.2-0.2 0.5-0.2 0.7 0 0.2 0.2 0.2 0.5 0.1 0.7q-0.7 0.7-1.4 1.5-0.1 0.1-0.4 0.1zm180.3-2.2q-0.2 0-0.4-0.2-0.7-0.7-1.4-1.4c-0.2-0.2-0.2-0.6 0-0.7 0.2-0.2 0.5-0.2 0.7 0q0.7 0.7 1.4 1.4c0.2 0.2 0.2 0.5 0 0.7q-0.2 0.2-0.3 0.2zm-176.8-1.4q-0.2 0-0.4-0.2c-0.2-0.2-0.2-0.5 0-0.7q0.7-0.7 1.4-1.4c0.2-0.2 0.5-0.2 0.7 0 0.2 0.2 0.2 0.5 0 0.7q-0.7 0.7-1.4 1.4-0.1 0.2-0.3 0.2zm173.2-2.2q-0.2 0-0.3-0.2-0.7-0.6-1.5-1.3c-0.2-0.2-0.2-0.5 0-0.7 0.2-0.2 0.5-0.2 0.7-0.1q0.8 0.7 1.5 1.4c0.2 0.2 0.2 0.5 0 0.7q-0.2 0.2-0.4 0.2zm-169.7-1.3q-0.2 0-0.3-0.2c-0.2-0.2-0.2-0.5 0-0.7q0.7-0.7 1.5-1.4c0.2-0.1 0.5-0.1 0.7 0.1 0.2 0.2 0.2 0.5 0 0.7q-0.8 0.6-1.5 1.3-0.2 0.2-0.4 0.2zm166.1-2.1q-0.2 0-0.4-0.2-0.7-0.6-1.5-1.3c-0.2-0.2-0.2-0.5 0-0.7 0.2-0.2 0.5-0.2 0.7 0q0.8 0.6 1.5 1.3c0.2 0.2 0.2 0.5 0 0.7q-0.1 0.2-0.3 0.2zm-162.3-1.3q-0.3 0-0.4-0.2c-0.2-0.2-0.2-0.5 0-0.7q0.8-0.6 1.6-1.3c0.2-0.1 0.5-0.1 0.7 0.1 0.1 0.2 0.1 0.5-0.1 0.7q-0.8 0.6-1.5 1.3-0.2 0.1-0.3 0.1zm158.5-2q-0.2 0-0.3-0.1-0.8-0.6-1.6-1.3c-0.2-0.1-0.2-0.5-0.1-0.7 0.2-0.2 0.5-0.2 0.7 0q0.8 0.6 1.6 1.2c0.2 0.2 0.2 0.5 0.1 0.7q-0.2 0.2-0.4 0.2zm-154.7-1.2q-0.2 0-0.4-0.2c-0.2-0.2-0.1-0.5 0.1-0.7q0.8-0.6 1.6-1.2c0.2-0.2 0.5-0.2 0.7 0.1 0.1 0.2 0.1 0.5-0.1 0.7q-0.8 0.6-1.6 1.2-0.1 0.1-0.3 0.1zm150.7-1.9q-0.1 0-0.3-0.1-0.8-0.6-1.6-1.2c-0.2-0.2-0.2-0.5-0.1-0.7 0.2-0.2 0.5-0.3 0.7-0.1q0.8 0.6 1.6 1.2c0.3 0.2 0.3 0.5 0.1 0.7q-0.1 0.2-0.4 0.2zm-146.7-1.1q-0.3 0-0.4-0.2c-0.2-0.3-0.1-0.6 0.1-0.7q0.8-0.6 1.6-1.2c0.2-0.2 0.5-0.1 0.7 0.1 0.2 0.2 0.1 0.5-0.1 0.7q-0.8 0.6-1.6 1.2-0.2 0.1-0.3 0.1zm142.7-1.8q-0.2 0-0.3-0.1-0.8-0.6-1.7-1.2c-0.2-0.1-0.2-0.4-0.1-0.7 0.2-0.2 0.5-0.3 0.7-0.1q0.8 0.6 1.7 1.1c0.2 0.2 0.3 0.5 0.1 0.7q-0.2 0.2-0.4 0.3zm-138.6-1.1q-0.3 0-0.4-0.2c-0.2-0.3-0.1-0.6 0.1-0.7q0.8-0.6 1.7-1.1c0.2-0.2 0.5-0.1 0.7 0.1 0.1 0.2 0 0.6-0.2 0.7q-0.8 0.5-1.6 1.1-0.2 0.1-0.3 0.1zm134.4-1.7q-0.1 0-0.3-0.1-0.8-0.5-1.7-1.1c-0.2-0.1-0.3-0.4-0.1-0.7 0.1-0.2 0.4-0.3 0.7-0.1q0.8 0.5 1.7 1c0.2 0.2 0.3 0.5 0.1 0.7-0.1 0.2-0.2 0.3-0.4 0.3zm-130.2-1c-0.2 0-0.4-0.1-0.5-0.3-0.1-0.2 0-0.5 0.2-0.6q0.9-0.6 1.7-1.1c0.3-0.1 0.6-0.1 0.7 0.2 0.2 0.2 0.1 0.5-0.2 0.7q-0.8 0.5-1.7 1-0.1 0.1-0.2 0.1zm125.9-1.6q-0.1 0-0.2-0.1-0.9-0.5-1.8-1c-0.2-0.1-0.3-0.4-0.2-0.7 0.2-0.2 0.5-0.3 0.7-0.2q0.9 0.5 1.8 1c0.2 0.2 0.3 0.5 0.2 0.7-0.1 0.2-0.3 0.3-0.5 0.3zm-121.6-1c-0.2 0-0.4 0-0.5-0.2-0.1-0.3 0-0.6 0.2-0.7q0.9-0.5 1.8-1c0.2-0.1 0.5 0 0.7 0.2 0.1 0.3 0 0.6-0.2 0.7q-0.9 0.5-1.8 1-0.1 0-0.2 0zm117.2-1.5q-0.1 0-0.2 0-0.9-0.5-1.8-1c-0.2-0.1-0.3-0.4-0.2-0.6 0.1-0.3 0.4-0.4 0.7-0.2q0.9 0.4 1.8 0.9c0.2 0.1 0.3 0.4 0.2 0.7-0.1 0.1-0.3 0.2-0.5 0.2zm-112.8-0.8c-0.2 0-0.4-0.1-0.5-0.3-0.1-0.2 0-0.5 0.3-0.7q0.9-0.4 1.8-0.9c0.2-0.1 0.5 0 0.6 0.3 0.1 0.2 0 0.5-0.2 0.6q-0.9 0.5-1.8 0.9-0.1 0.1-0.2 0.1zm108.3-1.4q-0.1 0-0.2-0.1-0.9-0.4-1.8-0.8c-0.2-0.1-0.3-0.4-0.2-0.7 0.1-0.2 0.4-0.3 0.6-0.2q1 0.4 1.9 0.8c0.2 0.1 0.3 0.4 0.2 0.7-0.1 0.2-0.3 0.3-0.5 0.3zm-103.8-0.8c-0.2 0-0.4-0.1-0.5-0.3-0.1-0.2 0-0.5 0.3-0.6q0.9-0.5 1.8-0.9c0.3-0.1 0.6 0 0.7 0.3 0.1 0.2 0 0.5-0.3 0.7q-0.9 0.4-1.8 0.8-0.1 0-0.2 0zm99.3-1.3q-0.1 0-0.2 0-0.9-0.4-1.9-0.8c-0.2-0.1-0.3-0.4-0.2-0.7 0.1-0.2 0.4-0.3 0.6-0.2q0.9 0.4 1.9 0.7c0.2 0.2 0.3 0.5 0.2 0.7 0 0.2-0.2 0.3-0.4 0.3zm-94.7-0.7c-0.2 0-0.4-0.1-0.5-0.3-0.1-0.2 0-0.5 0.3-0.6q0.9-0.4 1.8-0.8c0.3-0.1 0.6 0 0.7 0.3 0.1 0.3 0 0.5-0.3 0.6q-0.9 0.4-1.8 0.8-0.1 0-0.2 0zm90-1.2q-0.1 0-0.2 0-0.9-0.4-1.8-0.7c-0.3-0.1-0.4-0.4-0.3-0.6 0-0.3 0.3-0.4 0.6-0.3q0.9 0.3 1.9 0.7c0.2 0.1 0.4 0.4 0.3 0.6-0.1 0.2-0.3 0.3-0.5 0.3zm-85.4-0.6c-0.2 0-0.4-0.1-0.4-0.3-0.1-0.3 0-0.6 0.3-0.6q0.9-0.4 1.9-0.7c0.2-0.1 0.5 0 0.6 0.3 0.1 0.3-0.1 0.5-0.3 0.6q-1 0.4-1.9 0.7-0.1 0-0.2 0zm80.7-1.1q-0.1 0-0.2 0-0.9-0.3-1.9-0.6c-0.3-0.1-0.4-0.4-0.3-0.6 0.1-0.3 0.3-0.4 0.6-0.3q1 0.3 1.9 0.6c0.3 0.1 0.4 0.3 0.3 0.6 0 0.2-0.2 0.3-0.4 0.3zm-75.9-0.5c-0.2 0-0.4-0.1-0.5-0.3-0.1-0.3 0.1-0.6 0.3-0.7q1-0.3 1.9-0.6c0.3 0 0.6 0.1 0.7 0.4 0.1 0.2-0.1 0.5-0.4 0.6q-0.9 0.3-1.9 0.6 0 0-0.1 0zm71.1-0.9q-0.1 0-0.2-0.1-0.9-0.2-1.9-0.5c-0.2-0.1-0.4-0.3-0.3-0.6 0-0.3 0.3-0.4 0.6-0.4q1 0.3 1.9 0.6c0.3 0.1 0.4 0.3 0.4 0.6-0.1 0.2-0.3 0.4-0.5 0.4zm-66.3-0.5c-0.2 0-0.4-0.1-0.5-0.4-0.1-0.2 0.1-0.5 0.4-0.6q0.9-0.3 1.9-0.5c0.3-0.1 0.5 0.1 0.6 0.4 0.1 0.2-0.1 0.5-0.4 0.6q-0.9 0.2-1.9 0.5-0.1 0-0.1 0zm61.4-0.8q0 0-0.1 0-0.9-0.3-1.9-0.5c-0.3-0.1-0.5-0.3-0.4-0.6 0.1-0.3 0.3-0.4 0.6-0.4q1 0.3 2 0.5c0.2 0.1 0.4 0.3 0.3 0.6 0 0.2-0.2 0.4-0.5 0.4zm-56.6-0.4c-0.2 0-0.4-0.2-0.4-0.4-0.1-0.3 0.1-0.5 0.3-0.6q1-0.2 2-0.4c0.3-0.1 0.5 0.1 0.6 0.3 0 0.3-0.1 0.6-0.4 0.6q-1 0.2-1.9 0.5-0.1 0-0.2 0zm51.8-0.7q-0.1 0-0.1 0-1-0.2-2-0.4c-0.3 0-0.5-0.3-0.4-0.6 0-0.2 0.3-0.4 0.6-0.4q1 0.2 1.9 0.4c0.3 0.1 0.5 0.3 0.4 0.6 0 0.2-0.2 0.4-0.4 0.4zm-46.9-0.3c-0.2 0-0.4-0.2-0.4-0.4-0.1-0.3 0.1-0.6 0.4-0.6q0.9-0.2 1.9-0.4c0.3 0 0.6 0.2 0.6 0.4 0.1 0.3-0.1 0.6-0.4 0.6q-1 0.2-2 0.4 0 0-0.1 0zm41.9-0.6q0 0-0.1 0-0.9-0.2-1.9-0.3c-0.3 0-0.5-0.3-0.5-0.6 0.1-0.2 0.3-0.4 0.6-0.4q1 0.2 2 0.3c0.3 0.1 0.5 0.3 0.4 0.6 0 0.2-0.2 0.4-0.5 0.4zm-36.9-0.2c-0.3 0-0.5-0.2-0.5-0.5 0-0.2 0.1-0.5 0.4-0.5q1-0.2 2-0.3c0.3 0 0.5 0.1 0.6 0.4 0 0.3-0.2 0.5-0.5 0.6q-1 0.1-1.9 0.2-0.1 0.1-0.1 0.1zm32-0.5q-0.1 0-0.1 0-1-0.1-2-0.2c-0.3 0-0.5-0.3-0.4-0.5 0-0.3 0.2-0.5 0.5-0.5q1 0.1 2 0.2c0.3 0.1 0.5 0.3 0.5 0.6-0.1 0.2-0.3 0.4-0.5 0.4zm-27-0.2c-0.3 0-0.5-0.1-0.5-0.4-0.1-0.3 0.1-0.5 0.4-0.6q1-0.1 2-0.1c0.3-0.1 0.5 0.1 0.6 0.4 0 0.3-0.2 0.5-0.5 0.6q-1 0-2 0.1 0 0 0 0zm22-0.2q0 0-0.1 0-1-0.1-2-0.2c-0.2 0-0.4-0.2-0.4-0.5 0-0.3 0.2-0.5 0.5-0.5q1 0.1 2 0.2c0.3 0 0.5 0.2 0.5 0.5-0.1 0.3-0.3 0.5-0.5 0.5zm-17-0.2c-0.3 0-0.5-0.2-0.5-0.4-0.1-0.3 0.1-0.5 0.4-0.6q1 0 2-0.1c0.3 0 0.5 0.2 0.6 0.5 0 0.3-0.2 0.5-0.5 0.5q-1 0.1-2 0.1 0 0 0 0zm12-0.1q0 0 0 0-1-0.1-2-0.1c-0.3 0-0.5-0.2-0.5-0.5 0-0.3 0.2-0.5 0.5-0.5q1 0 2 0.1c0.3 0 0.5 0.2 0.5 0.5 0 0.3-0.3 0.5-0.5 0.5zm-7-0.1c-0.3 0-0.5-0.2-0.5-0.5 0-0.2 0.2-0.5 0.4-0.5q1.1 0 2.1 0 0 0 0 0c0.2 0 0.5 0.2 0.5 0.5 0 0.3-0.3 0.5-0.5 0.5q-1 0-2 0 0 0 0 0z"/><path class="b" d="m292.5 127.1c0 23.4-19 42.5-42.5 42.5-23.5 0-42.5-19.1-42.5-42.5"/><path class="a" d="m250 170c-23.7 0-43-19.2-43-42.9h1c0 23.1 18.8 41.9 42 41.9 23.2 0 42-18.8 42-41.9h1c0 23.7-19.3 42.9-43 42.9z"/><path fill-rule="evenodd" class="b" d="m250 162.9c-19.8 0-35.8-16-35.8-35.8 0-19.8 16-35.8 35.8-35.8 19.8 0 35.8 16 35.8 35.8 0 19.8-16 35.8-35.8 35.8z"/><path class="a" d="m250 163.4c-20 0-36.3-16.3-36.3-36.3 0-20 16.3-36.3 36.3-36.3 20 0 36.3 16.3 36.3 36.3 0 20-16.3 36.3-36.3 36.3zm0-71.6c-19.5 0-35.3 15.8-35.3 35.3 0 19.4 15.8 35.3 35.3 35.3 19.5 0 35.3-15.9 35.3-35.3 0-19.5-15.8-35.3-35.3-35.3z"/><path class="b" d="m290.6 127.1c0 1 0.8 1.9 1.9 1.9 1 0 1.9-0.9 1.9-1.9 0-1.1-0.9-1.9-1.9-1.9-1.1 0-1.9 0.8-1.9 1.9z"/><path class="a" d="m292.5 129.5c-1.3 0-2.4-1.1-2.4-2.4 0-1.4 1.1-2.4 2.4-2.4 1.3 0 2.4 1 2.4 2.4 0 1.3-1.1 2.4-2.4 2.4zm0-3.8c-0.8 0-1.4 0.6-1.4 1.4 0 0.7 0.6 1.4 1.4 1.4 0.8 0 1.4-0.7 1.4-1.4 0-0.8-0.6-1.4-1.4-1.4z"/><path class="b" d="m205.6 127.1c0 1 0.9 1.9 1.9 1.9 1.1 0 1.9-0.9 1.9-1.9 0-1.1-0.8-1.9-1.9-1.9-1 0-1.9 0.8-1.9 1.9z"/><path class="a" d="m207.5 129.5c-1.3 0-2.4-1.1-2.4-2.4 0-1.4 1.1-2.4 2.4-2.4 1.3 0 2.4 1 2.4 2.4 0 1.3-1.1 2.4-2.4 2.4zm0-3.8c-0.8 0-1.4 0.6-1.4 1.4 0 0.7 0.6 1.4 1.4 1.4 0.8 0 1.4-0.7 1.4-1.4 0-0.8-0.6-1.4-1.4-1.4z"/><path fill-rule="evenodd" class="a" d="m249.5 169.5h1v6h-1z"/><path fill-rule="evenodd" class="b" d="m248.3 173.9h3.4v3.3h-3.4z"/><path class="a" d="m252.2 177.7h-4.4v-4.3h4.4zm-3.4-1h2.4v-2.4h-2.4z"/><path fill-rule="evenodd" class="b" d="m248.3 180.4h3.4v3.3h-3.4z"/><path class="a" d="m252.2 184.2h-4.4v-4.3h4.4zm-3.4-1h2.4v-2.4h-2.4z"/><path class="b" d="m175.4 140.4c16.6 16.6 16.6 43.5 0 60.1-16.6 16.6-43.5 16.6-60.1 0"/><path class="a" d="m145.3 213.4c-11 0-22-4.2-30.4-12.6l0.7-0.7c16.4 16.4 43 16.4 59.4 0 16.4-16.4 16.4-43 0-59.4l0.7-0.7c16.8 16.8 16.8 44.1 0 60.8-8.4 8.4-19.4 12.6-30.4 12.6z"/><path fill-rule="evenodd" class="b" d="m145.3 206.2c-19.8 0-35.8-16-35.8-35.8 0-19.8 16-35.8 35.8-35.8 19.8 0 35.8 16 35.8 35.8 0 19.8-16 35.8-35.8 35.8z"/><path class="a" d="m145.3 206.7c-9.3 0-18.6-3.5-25.6-10.6-14.2-14.2-14.2-37.2 0-51.3 6.8-6.9 15.9-10.7 25.6-10.7 9.7 0 18.8 3.8 25.7 10.7 14.1 14.1 14.1 37.1 0 51.3-7.1 7.1-16.4 10.6-25.7 10.6zm0-71.6c-9.4 0-18.3 3.7-24.9 10.4-13.8 13.7-13.8 36.1 0 49.9 13.7 13.7 36.1 13.7 49.9 0 13.7-13.8 13.7-36.2 0-49.9-6.7-6.7-15.5-10.4-25-10.4z"/><path class="b" d="m174 141.7c0.8 0.8 2 0.8 2.7 0 0.8-0.7 0.8-1.9 0-2.7-0.7-0.7-1.9-0.7-2.7 0-0.7 0.8-0.7 2 0 2.7z"/><path class="a" d="m175.4 142.8c-0.6 0-1.3-0.3-1.7-0.7-1-1-1-2.5 0-3.4 0.9-1 2.4-1 3.4 0 0.9 0.9 0.9 2.4 0 3.4-0.5 0.4-1.1 0.7-1.7 0.7zm0-3.8c-0.4 0-0.8 0.1-1 0.4-0.6 0.5-0.6 1.4 0 2 0.5 0.5 1.4 0.5 2 0 0.5-0.6 0.5-1.5 0-2-0.3-0.3-0.7-0.4-1-0.4z"/><path class="b" d="m113.9 201.8c0.8 0.7 2 0.7 2.7 0 0.8-0.7 0.8-1.9 0-2.7-0.7-0.7-1.9-0.7-2.7 0-0.7 0.8-0.7 2 0 2.7z"/><path class="a" d="m115.3 202.9c-0.7 0-1.3-0.3-1.7-0.7-0.5-0.5-0.7-1.1-0.7-1.7 0-0.7 0.2-1.3 0.7-1.7 0.9-0.9 2.5-0.9 3.4 0 0.4 0.4 0.7 1 0.7 1.7 0 0.6-0.3 1.2-0.7 1.7-0.5 0.4-1.1 0.7-1.7 0.7zm0-3.8c-0.4 0-0.7 0.1-1 0.4-0.3 0.2-0.4 0.6-0.4 1 0 0.3 0.1 0.7 0.4 1 0.5 0.5 1.4 0.5 2 0 0.2-0.3 0.4-0.7 0.4-1 0-0.4-0.2-0.8-0.4-1-0.3-0.3-0.6-0.4-1-0.4z"/><path fill-rule="evenodd" class="a" d="m175 200.8l0.7-0.7 4.3 4.2-0.8 0.8z"/><path fill-rule="evenodd" class="b" d="m177.2 204.7l2.4-2.4 2.4 2.4-2.4 2.4z"/><path class="a" d="m179.6 207.8l-3.1-3.1 3.1-3.1 3.1 3.1zm-1.7-3.1l1.7 1.7 1.6-1.7-1.6-1.6z"/><path fill-rule="evenodd" class="b" d="m181.8 209.3l2.4-2.4 2.3 2.4-2.3 2.3z"/><path class="a" d="m184.2 212.4l-3.1-3.1 3.1-3.1 3.1 3.1zm-1.7-3.1l1.7 1.7 1.6-1.7-1.6-1.6z"/><path class="b" d="m102 232.6c23.4 0 42.5 19 42.5 42.5 0 23.5-19.1 42.5-42.5 42.5"/><path class="a" d="m102 318.1v-1c23.1 0 42-18.9 42-42 0-23.2-18.9-42-42-42v-1c23.7 0 43 19.3 43 43 0 23.7-19.3 43-43 43z"/><path fill-rule="evenodd" class="b" d="m102 310.9c-19.8 0-35.8-16-35.8-35.8 0-19.8 16-35.8 35.8-35.8 19.8 0 35.8 16 35.8 35.8 0 19.8-16 35.8-35.8 35.8z"/><path class="a" d="m102 311.4c-20 0-36.3-16.3-36.3-36.3 0-20 16.3-36.3 36.3-36.3 20 0 36.3 16.3 36.3 36.3 0 20-16.3 36.3-36.3 36.3zm0-71.6c-19.5 0-35.3 15.8-35.3 35.3 0 19.5 15.8 35.3 35.3 35.3 19.4 0 35.3-15.8 35.3-35.3 0-19.5-15.9-35.3-35.3-35.3z"/><path class="b" d="m102 234.5c1 0 1.9-0.8 1.9-1.9 0-1-0.9-1.9-1.9-1.9-1.1 0-1.9 0.9-1.9 1.9 0 1.1 0.8 1.9 1.9 1.9z"/><path class="a" d="m102 235c-1.4 0-2.4-1.1-2.4-2.4 0-1.3 1-2.4 2.4-2.4 1.3 0 2.4 1.1 2.4 2.4 0 1.3-1.1 2.4-2.4 2.4zm0-3.8c-0.8 0-1.4 0.6-1.4 1.4 0 0.8 0.6 1.4 1.4 1.4 0.7 0 1.4-0.6 1.4-1.4 0-0.8-0.7-1.4-1.4-1.4z"/><path fill-rule="evenodd" class="b" d="m102 319.5c-1.1 0-1.9-0.9-1.9-1.9 0-1.1 0.8-1.9 1.9-1.9 1 0 1.9 0.8 1.9 1.9 0 1-0.9 1.9-1.9 1.9z"/><path class="a" d="m102 320c-1.4 0-2.4-1.1-2.4-2.4 0-1.3 1-2.4 2.4-2.4 1.3 0 2.4 1.1 2.4 2.4 0 1.3-1.1 2.4-2.4 2.4zm0-3.8c-0.8 0-1.4 0.6-1.4 1.4 0 0.8 0.6 1.4 1.4 1.4 0.7 0 1.4-0.6 1.4-1.4 0-0.8-0.7-1.4-1.4-1.4z"/><path fill-rule="evenodd" class="a" d="m144.4 274.6h6v1h-6z"/><path fill-rule="evenodd" class="b" d="m148.8 276.8v-3.4h3.3v3.4z"/><path class="a" d="m152.6 277.3h-4.3v-4.4h4.3zm-3.3-1h2.3v-2.3h-2.3z"/><path fill-rule="evenodd" class="b" d="m155.3 276.8v-3.4h3.3v3.4z"/><path class="a" d="m159.1 277.3h-4.3v-4.4h4.3zm-3.3-1h2.3v-2.3h-2.3z"/><path class="b" d="m115.3 349.7c16.6-16.6 43.5-16.6 60.1 0 16.6 16.6 16.6 43.5 0 60.1"/><path class="a" d="m175.7 410.2l-0.7-0.7c16.4-16.4 16.4-43 0-59.4-7.9-7.9-18.5-12.3-29.7-12.3-11.2 0-21.7 4.4-29.7 12.3l-0.7-0.7c8.1-8.1 18.9-12.6 30.4-12.6 11.5 0 22.3 4.5 30.4 12.6 16.8 16.7 16.8 44 0 60.8z"/><path fill-rule="evenodd" class="b" d="m145.3 415.6c-19.8 0-35.8-16-35.8-35.8 0-19.8 16-35.8 35.8-35.8 19.8 0 35.8 16 35.8 35.8 0 19.8-16 35.8-35.8 35.8z"/><path class="a" d="m145.3 416c-9.3 0-18.6-3.5-25.6-10.6-14.2-14.1-14.2-37.1 0-51.3 6.8-6.8 15.9-10.6 25.6-10.6 9.7 0 18.8 3.8 25.7 10.6 14.1 14.2 14.1 37.2 0 51.3-7.1 7.1-16.4 10.6-25.7 10.6zm0-71.5c-9.4 0-18.3 3.7-24.9 10.3-13.8 13.8-13.8 36.2 0 49.9 13.7 13.8 36.1 13.8 49.9 0 13.7-13.7 13.7-36.1 0-49.9-6.7-6.6-15.5-10.3-25-10.3z"/><path class="b" d="m116.6 351.1c0.8-0.8 0.8-2 0-2.7-0.7-0.8-1.9-0.8-2.7 0-0.7 0.7-0.7 1.9 0 2.7 0.8 0.7 2 0.7 2.7 0z"/><path class="a" d="m115.3 352.1c-0.6 0-1.2-0.2-1.7-0.7-0.9-0.9-0.9-2.4 0-3.4 0.9-0.9 2.4-0.9 3.4 0 0.9 1 0.9 2.5 0 3.4-0.5 0.5-1.1 0.7-1.7 0.7zm0-3.8c-0.4 0-0.7 0.2-1 0.4-0.6 0.6-0.6 1.5 0 2 0.5 0.6 1.4 0.6 2 0 0.5-0.5 0.5-1.4 0-2-0.3-0.2-0.7-0.4-1-0.4z"/><path class="b" d="m176.7 411.2c0.8-0.8 0.8-2 0-2.7-0.7-0.8-1.9-0.8-2.7 0-0.7 0.7-0.7 1.9 0 2.7 0.8 0.7 2 0.7 2.7 0z"/><path class="a" d="m175.4 412.2c-0.7 0-1.3-0.2-1.7-0.7-0.5-0.4-0.7-1-0.7-1.7 0-0.6 0.2-1.2 0.7-1.7 0.9-0.9 2.4-0.9 3.4 0 0.4 0.5 0.7 1.1 0.7 1.7 0 0.7-0.3 1.3-0.7 1.7-0.5 0.5-1.1 0.7-1.7 0.7zm0-3.8c-0.4 0-0.8 0.2-1 0.4-0.3 0.3-0.4 0.6-0.4 1 0 0.4 0.1 0.7 0.4 1 0.5 0.5 1.4 0.5 2 0 0.2-0.3 0.4-0.6 0.4-1 0-0.4-0.2-0.7-0.4-1-0.3-0.2-0.7-0.4-1-0.4z"/><path fill-rule="evenodd" class="a" d="m175 349.4l4.2-4.3 0.8 0.7-4.3 4.3z"/><path fill-rule="evenodd" class="b" d="m179.6 347.9l-2.4-2.4 2.4-2.4 2.4 2.4z"/><path class="a" d="m179.6 348.6l-3.1-3.1 3.1-3.1 3.1 3.1zm-1.7-3.1l1.7 1.7 1.6-1.7-1.6-1.6z"/><path fill-rule="evenodd" class="b" d="m184.2 343.3l-2.3-2.4 2.3-2.3 2.4 2.3z"/><path class="a" d="m184.2 344l-3.1-3.1 3.1-3.1 3.1 3.1zm-1.7-3.1l1.7 1.7 1.6-1.7-1.6-1.6z"/><path class="b" d="m207.5 423.1c0-23.4 19-42.5 42.5-42.5 23.5 0 42.5 19.1 42.5 42.5"/><path class="a" d="m293 423.1h-1c0-23.1-18.8-42-42-42-23.2 0-42 18.9-42 42h-1c0-23.7 19.3-43 43-43 23.7 0 43 19.3 43 43z"/><path fill-rule="evenodd" class="b" d="m250 458.9c-19.8 0-35.8-16-35.8-35.8 0-19.8 16-35.8 35.8-35.8 19.8 0 35.8 16 35.8 35.8 0 19.8-16 35.8-35.8 35.8z"/><path class="a" d="m250 459.4c-20 0-36.3-16.3-36.3-36.3 0-20 16.3-36.3 36.3-36.3 20 0 36.3 16.3 36.3 36.3 0 20-16.3 36.3-36.3 36.3zm0-71.6c-19.5 0-35.3 15.9-35.3 35.3 0 19.5 15.8 35.3 35.3 35.3 19.5 0 35.3-15.8 35.3-35.3 0-19.4-15.8-35.3-35.3-35.3z"/><path class="b" d="m209.4 423.1c0-1-0.8-1.9-1.9-1.9-1 0-1.9 0.9-1.9 1.9 0 1.1 0.9 1.9 1.9 1.9 1.1 0 1.9-0.8 1.9-1.9z"/><path class="a" d="m207.5 425.5c-1.3 0-2.4-1-2.4-2.4 0-1.3 1.1-2.4 2.4-2.4 1.3 0 2.4 1.1 2.4 2.4 0 1.4-1.1 2.4-2.4 2.4zm0-3.8c-0.8 0-1.4 0.7-1.4 1.4 0 0.8 0.6 1.4 1.4 1.4 0.8 0 1.4-0.6 1.4-1.4 0-0.7-0.6-1.4-1.4-1.4z"/><path class="b" d="m294.4 423.1c0-1-0.9-1.9-1.9-1.9-1.1 0-1.9 0.9-1.9 1.9 0 1.1 0.8 1.9 1.9 1.9 1 0 1.9-0.8 1.9-1.9z"/><path class="a" d="m292.5 425.5c-1.3 0-2.4-1-2.4-2.4 0-1.3 1.1-2.4 2.4-2.4 1.3 0 2.4 1.1 2.4 2.4 0 1.4-1.1 2.4-2.4 2.4zm0-3.8c-0.8 0-1.4 0.7-1.4 1.4 0 0.8 0.6 1.4 1.4 1.4 0.8 0 1.4-0.6 1.4-1.4 0-0.7-0.6-1.4-1.4-1.4z"/><path fill-rule="evenodd" class="a" d="m249.5 374.7h1v6h-1z"/><path fill-rule="evenodd" class="b" d="m251.7 376.3h-3.4v-3.3h3.4z"/><path class="a" d="m252.2 376.8h-4.4v-4.3h4.4zm-3.4-1h2.4v-2.3h-2.4z"/><path fill-rule="evenodd" class="b" d="m251.7 369.8h-3.4v-3.3h3.4z"/><path class="a" d="m252.2 370.3h-4.4v-4.3h4.4zm-3.4-1h2.4v-2.3h-2.4z"/><path class="b" d="m324.6 409.8c-16.6-16.6-16.6-43.5 0-60.1 16.6-16.6 43.5-16.6 60.1 0"/><path class="a" d="m324.3 410.2c-16.8-16.8-16.8-44.1 0-60.8 8.1-8.1 18.9-12.6 30.4-12.6 11.5 0 22.3 4.5 30.4 12.6l-0.7 0.7c-8-7.9-18.5-12.3-29.7-12.3-11.2 0-21.8 4.4-29.7 12.3-16.4 16.4-16.4 43 0 59.4z"/><path fill-rule="evenodd" class="b" d="m354.7 415.6c-19.8 0-35.8-16-35.8-35.8 0-19.8 16-35.8 35.8-35.8 19.8 0 35.8 16 35.8 35.8 0 19.8-16 35.8-35.8 35.8z"/><path class="a" d="m354.7 416c-9.3 0-18.6-3.5-25.7-10.6-14.1-14.1-14.1-37.1 0-51.3 6.9-6.8 16-10.6 25.7-10.6 9.7 0 18.8 3.8 25.6 10.6 14.2 14.2 14.2 37.2 0 51.3-7 7.1-16.3 10.6-25.6 10.6zm-25-11.3c13.8 13.8 36.2 13.8 49.9 0 13.8-13.7 13.8-36.1 0-49.9-6.6-6.6-15.5-10.3-24.9-10.3-9.5 0-18.3 3.7-25 10.3-13.7 13.8-13.7 36.2 0 49.9z"/><path class="b" d="m326 408.5c-0.8-0.8-2-0.8-2.7 0-0.8 0.7-0.8 1.9 0 2.7 0.7 0.7 1.9 0.7 2.7 0 0.7-0.8 0.7-2 0-2.7z"/><path class="a" d="m324.6 412.2c-0.6 0-1.2-0.2-1.7-0.7-0.4-0.4-0.7-1-0.7-1.7 0-0.6 0.3-1.2 0.7-1.7 1-0.9 2.5-0.9 3.4 0 0.5 0.5 0.7 1.1 0.7 1.7 0 0.7-0.2 1.3-0.7 1.7-0.4 0.5-1 0.7-1.7 0.7zm0-3.8c-0.3 0-0.7 0.2-1 0.4-0.2 0.3-0.4 0.6-0.4 1 0 0.4 0.2 0.7 0.4 1 0.6 0.5 1.5 0.5 2 0 0.3-0.3 0.4-0.6 0.4-1 0-0.4-0.1-0.7-0.4-1-0.2-0.2-0.6-0.4-1-0.4z"/><path class="b" d="m386.1 348.4c-0.8-0.8-2-0.8-2.7 0-0.8 0.7-0.8 1.9 0 2.7 0.7 0.7 1.9 0.7 2.7 0 0.7-0.8 0.7-2 0-2.7z"/><path class="a" d="m384.7 352.1c-0.6 0-1.2-0.2-1.7-0.7-0.9-0.9-0.9-2.4 0-3.4 1-0.9 2.5-0.9 3.4 0 0.9 1 0.9 2.5 0 3.4-0.5 0.5-1.1 0.7-1.7 0.7zm0-3.8c-0.3 0-0.7 0.2-1 0.4-0.5 0.6-0.5 1.5 0 2 0.6 0.6 1.5 0.6 2 0 0.6-0.5 0.6-1.4 0-2-0.3-0.2-0.6-0.4-1-0.4z"/><path fill-rule="evenodd" class="a" d="m320 345.9l0.7-0.7 4.3 4.2-0.7 0.7z"/><path fill-rule="evenodd" class="b" d="m322.8 345.5l-2.4 2.3-2.4-2.3 2.4-2.4z"/><path class="a" d="m320.4 348.6l-3.1-3.1 3.1-3.1 3.1 3.1zm-1.7-3.1l1.7 1.7 1.6-1.7-1.6-1.6z"/><path fill-rule="evenodd" class="b" d="m318.2 340.9l-2.4 2.4-2.3-2.4 2.3-2.3z"/><path class="a" d="m315.8 344l-3.1-3.1 3.1-3.1 3.1 3.1zm-1.7-3.1l1.7 1.7 1.6-1.7-1.6-1.6z"/><path class="b" d="m398 317.6c-23.4 0-42.5-19-42.5-42.5 0-23.5 19.1-42.5 42.5-42.5"/><path class="a" d="m398 318.1c-23.7 0-43-19.3-43-43 0-23.7 19.3-43 43-43v1c-23.1 0-42 18.8-42 42 0 23.1 18.9 42 42 42z"/><path fill-rule="evenodd" class="b" d="m398 310.9c-19.8 0-35.8-16-35.8-35.8 0-19.8 16-35.8 35.8-35.8 19.8 0 35.8 16 35.8 35.8 0 19.8-16 35.8-35.8 35.8z"/><path class="a" d="m398 311.4c-20 0-36.3-16.3-36.3-36.3 0-20 16.3-36.3 36.3-36.3 20 0 36.3 16.3 36.3 36.3 0 20-16.3 36.3-36.3 36.3zm0-71.6c-19.4 0-35.3 15.8-35.3 35.3 0 19.5 15.9 35.3 35.3 35.3 19.5 0 35.3-15.8 35.3-35.3 0-19.5-15.8-35.3-35.3-35.3z"/><path fill-rule="evenodd" class="b" d="m398 319.5c-1 0-1.9-0.9-1.9-1.9 0-1.1 0.9-1.9 1.9-1.9 1.1 0 1.9 0.8 1.9 1.9 0 1-0.8 1.9-1.9 1.9z"/><path class="a" d="m398 320c-1.3 0-2.4-1.1-2.4-2.4 0-1.3 1.1-2.4 2.4-2.4 1.4 0 2.4 1.1 2.4 2.4 0 1.3-1 2.4-2.4 2.4zm0-3.8c-0.7 0-1.4 0.6-1.4 1.4 0 0.8 0.7 1.4 1.4 1.4 0.8 0 1.4-0.6 1.4-1.4 0-0.8-0.6-1.4-1.4-1.4z"/><path class="b" d="m398 230.7c-1 0-1.9 0.9-1.9 1.9 0 1.1 0.9 1.9 1.9 1.9 1.1 0 1.9-0.8 1.9-1.9 0-1-0.8-1.9-1.9-1.9z"/><path class="a" d="m398 235c-1.3 0-2.4-1.1-2.4-2.4 0-1.3 1.1-2.4 2.4-2.4 1.4 0 2.4 1.1 2.4 2.4 0 1.3-1 2.4-2.4 2.4zm0-3.8c-0.7 0-1.4 0.6-1.4 1.4 0 0.8 0.7 1.4 1.4 1.4 0.8 0 1.4-0.6 1.4-1.4 0-0.8-0.6-1.4-1.4-1.4z"/><path fill-rule="evenodd" class="a" d="m349.6 274.6h6v1h-6z"/><path fill-rule="evenodd" class="b" d="m351.2 273.4v3.4h-3.3v-3.4z"/><path class="a" d="m351.7 277.3h-4.3v-4.4h4.3zm-3.3-1h2.3v-2.3h-2.3z"/><path fill-rule="evenodd" class="b" d="m344.7 273.4v3.4h-3.3v-3.4z"/><path class="a" d="m345.2 277.3h-4.3v-4.4h4.3zm-3.3-1h2.3v-2.3h-2.3z"/><path class="b" d="m384.7 200.5c-16.6 16.6-43.5 16.6-60.1 0-16.6-16.6-16.6-43.5 0-60.1"/><path class="a" d="m354.7 213.4c-11 0-22-4.2-30.4-12.6-16.8-16.7-16.8-44 0-60.8l0.7 0.7c-16.4 16.4-16.4 43 0 59.4 16.4 16.4 43 16.4 59.4 0l0.7 0.7c-8.4 8.4-19.4 12.6-30.4 12.6z"/><path fill-rule="evenodd" class="b" d="m354.7 206.2c-19.8 0-35.8-16-35.8-35.8 0-19.8 16-35.8 35.8-35.8 19.8 0 35.8 16 35.8 35.8 0 19.8-16 35.8-35.8 35.8z"/><path class="a" d="m354.7 206.7c-9.3 0-18.6-3.5-25.7-10.6-14.1-14.2-14.1-37.2 0-51.3 6.9-6.9 16-10.7 25.7-10.7 9.7 0 18.8 3.8 25.6 10.7 14.2 14.1 14.2 37.1 0 51.3-7 7.1-16.3 10.6-25.6 10.6zm0-71.6c-9.5 0-18.3 3.7-25 10.4-13.7 13.7-13.7 36.1 0 49.9 13.8 13.7 36.2 13.7 49.9 0 13.8-13.8 13.8-36.2 0-49.9-6.6-6.7-15.5-10.4-24.9-10.4z"/><path fill-rule="evenodd" class="b" d="m384.7 202.4c-1 0-1.9-0.9-1.9-1.9 0-1.1 0.9-1.9 1.9-1.9 1.1 0 1.9 0.8 1.9 1.9 0 1-0.8 1.9-1.9 1.9z"/><path class="a" d="m384.7 202.9c-0.6 0-1.2-0.3-1.7-0.7-0.9-1-0.9-2.5 0-3.4 1-1 2.5-1 3.4 0 1 0.9 1 2.4 0 3.4-0.5 0.4-1.1 0.7-1.7 0.7zm0-3.8c-0.3 0-0.7 0.1-1 0.4-0.5 0.5-0.5 1.4 0 2 0.6 0.5 1.5 0.5 2 0 0.6-0.6 0.6-1.5 0-2-0.3-0.3-0.6-0.4-1-0.4z"/><path class="b" d="m323.3 139c-0.8 0.8-0.8 2 0 2.7 0.7 0.8 1.9 0.8 2.7 0 0.7-0.7 0.7-1.9 0-2.7-0.8-0.7-2-0.7-2.7 0z"/><path class="a" d="m324.6 142.8c-0.6 0-1.2-0.3-1.7-0.7-0.9-1-0.9-2.5 0-3.4 1-1 2.5-1 3.4 0 1 0.9 1 2.4 0 3.4-0.4 0.4-1.1 0.7-1.7 0.7zm0-3.8c-0.3 0-0.7 0.1-1 0.4-0.5 0.5-0.5 1.4 0 2 0.6 0.5 1.5 0.5 2 0 0.6-0.6 0.6-1.5 0-2-0.2-0.3-0.6-0.4-1-0.4z"/><path fill-rule="evenodd" class="a" d="m320.1 204.3l4.2-4.2 0.7 0.7-4.2 4.2z"/><path fill-rule="evenodd" class="b" d="m320.4 202.3l2.4 2.4-2.4 2.3-2.4-2.3z"/><path class="a" d="m320.4 207.8l-3.1-3.1 3.1-3.1 3.1 3.1zm-1.7-3.1l1.7 1.7 1.6-1.7-1.6-1.6z"/><path fill-rule="evenodd" class="b" d="m315.8 206.9l2.4 2.4-2.4 2.3-2.4-2.3z"/><path class="a" d="m315.8 212.4l-3.1-3.1 3.1-3.1 3.1 3.1zm-1.7-3.1l1.7 1.7 1.6-1.7-1.6-1.6z"/><path fill-rule="evenodd" class="b" d="m415.6 314.2l-3.5-1.8-3.5 1.8v-70.2h7z"/><path class="c" d="m415.6 315.2q-0.2 0-0.5-0.1l-3-1.5-3.1 1.5c-0.3 0.1-0.7 0.1-1-0.1-0.3-0.1-0.4-0.5-0.4-0.8v-70.2c0-0.6 0.4-1 1-1h7c0.5 0 1 0.4 1 1v70.2c0 0.3-0.2 0.7-0.5 0.8q-0.2 0.2-0.5 0.2zm-3.5-3.8q0.2 0 0.4 0.1l2.1 1.1v-67.6h-5v67.6l2-1.1q0.2-0.1 0.5-0.1z"/><path class="d" d="m415.6 307.2h-38.6v-63.2h38.6c1.9 0 3.5 1.5 3.5 3.5v56.2c0 1.9-1.6 3.5-3.5 3.5z"/><path class="c" d="m415.6 308.2h-38.6c-0.6 0-1-0.5-1-1v-63.2c0-0.6 0.4-1 1-1h38.6c2.5 0 4.5 2 4.5 4.5v56.2c0 2.4-2 4.5-4.5 4.5zm-37.6-2h37.6c1.4 0 2.5-1.2 2.5-2.5v-56.2c0-1.4-1.1-2.5-2.5-2.5h-37.6z"/><path class="b" d="m411.2 252.7h-26.3c-0.5 0-0.9-0.4-0.9-0.8 0-0.5 0.4-0.9 0.9-0.9h26.3c0.5 0 0.9 0.4 0.9 0.9 0 0.4-0.4 0.8-0.9 0.8z"/><path class="b" d="m411.2 256.3l-26.3-0.1c-0.5 0-0.9-0.3-0.9-0.8 0-0.5 0.4-0.9 0.9-0.9h26.3c0.5 0 0.9 0.4 0.9 0.9 0 0.5-0.4 0.8-0.9 0.8z"/><path fill-rule="evenodd" class="b" d="m384 293.1h28.1v7h-28.1z"/><path class="c" d="m412.1 301.1h-28.1c-0.6 0-1-0.4-1-1v-7c0-0.5 0.4-1 1-1h28.1c0.5 0 1 0.5 1 1v7c0 0.6-0.5 1-1 1zm-27.1-2h26.1v-5h-26.1z"/><path class="e" d="m169.1 159.2c0-14-12.1-25.2-26.5-23.6-10.8 1.2-19.5 9.8-20.9 20.6-1.1 9.2 3 17.5 9.7 22.3 5 3.6 8 9.4 8 15.5v0.9h11.9v-0.9c0-6.2 3.1-11.9 8.1-15.6 5.9-4.4 9.7-11.3 9.7-19.2z"/><path class="c" d="m152.3 195.9h-13.9v-1.9c0-5.8-2.8-11.3-7.6-14.7-7.3-5.3-11.2-14.2-10.1-23.2 1.4-11.2 10.6-20.2 21.8-21.5 7.2-0.8 14 1.4 19.3 6.2 5.3 4.7 8.3 11.4 8.3 18.4 0 7.9-3.8 15.3-10.1 20-4.9 3.6-7.7 9-7.7 14.8zm-11.9-2h9.9c0-6.4 3.1-12.3 8.5-16.3 5.8-4.3 9.3-11.1 9.3-18.3 0-6.5-2.8-12.7-7.6-17-4.9-4.4-11.2-6.4-17.8-5.7-10.3 1.2-18.7 9.5-20 19.8-1 8.3 2.6 16.5 9.3 21.3 5.2 3.8 8.3 9.8 8.4 16.2z"/><path class="c" d="m145.3 132.5c-0.5 0-1-0.4-1-1v-4c0-0.5 0.5-1 1-1 0.6 0 1 0.5 1 1v4c0 0.6-0.4 1-1 1z"/><path class="c" d="m134.7 134.6c-0.4 0-0.8-0.2-0.9-0.6l-1.5-3.7c-0.2-0.5 0-1.1 0.5-1.3 0.5-0.2 1.1 0.1 1.3 0.6l1.5 3.6c0.2 0.5 0 1.1-0.5 1.3q-0.2 0.1-0.4 0.1z"/><path class="c" d="m125.7 140.6q-0.4 0-0.7-0.3l-2.8-2.8c-0.4-0.4-0.4-1 0-1.4 0.4-0.4 1-0.4 1.4 0l2.8 2.8c0.4 0.4 0.4 1 0 1.4q-0.3 0.3-0.7 0.3z"/><path class="c" d="m119.7 149.6q-0.2 0-0.4-0.1l-3.6-1.5c-0.6-0.2-0.8-0.8-0.6-1.3 0.2-0.5 0.8-0.7 1.3-0.5l3.7 1.5c0.5 0.2 0.7 0.8 0.5 1.3-0.1 0.4-0.5 0.6-0.9 0.6z"/><path class="c" d="m117.6 160.2h-4c-0.5 0-1-0.4-1-1 0-0.5 0.5-1 1-1h4c0.5 0 1 0.5 1 1 0 0.6-0.5 1-1 1z"/><path class="c" d="m116 172.4c-0.4 0-0.7-0.3-0.9-0.7-0.2-0.5 0-1 0.6-1.3l3.6-1.5c0.5-0.2 1.1 0.1 1.3 0.6 0.2 0.5 0 1.1-0.5 1.3l-3.7 1.5q-0.2 0.1-0.4 0.1z"/><path class="c" d="m122.9 182.6q-0.4 0-0.7-0.2c-0.4-0.4-0.4-1.1 0-1.5l2.8-2.8c0.4-0.4 1-0.4 1.4 0 0.4 0.4 0.4 1.1 0 1.5l-2.8 2.8q-0.3 0.2-0.7 0.2z"/><path class="c" d="m167.7 182.6q-0.4 0-0.7-0.2l-2.8-2.8c-0.4-0.4-0.4-1.1 0-1.5 0.4-0.4 1.1-0.4 1.4 0l2.8 2.8c0.4 0.4 0.4 1.1 0 1.5q-0.3 0.2-0.7 0.2z"/><path class="c" d="m174.6 172.4q-0.2 0-0.4-0.1l-3.6-1.5c-0.5-0.2-0.8-0.8-0.6-1.3 0.2-0.5 0.8-0.8 1.3-0.6l3.7 1.5c0.5 0.3 0.7 0.8 0.5 1.3-0.1 0.4-0.5 0.7-0.9 0.7z"/><path class="c" d="m177 160.2h-3.9c-0.6 0-1-0.4-1-1 0-0.5 0.4-1 1-1h3.9c0.6 0 1 0.5 1 1 0 0.6-0.4 1-1 1z"/><path class="c" d="m170.9 149.6c-0.3 0-0.7-0.2-0.9-0.6-0.2-0.5 0.1-1.1 0.6-1.3l3.6-1.5c0.5-0.2 1.1 0 1.3 0.5 0.2 0.5 0 1.1-0.5 1.3l-3.7 1.5q-0.2 0.1-0.4 0.1z"/><path class="c" d="m164.9 140.6q-0.4 0-0.7-0.3c-0.4-0.4-0.4-1 0-1.4l2.8-2.8c0.4-0.4 1.1-0.4 1.4 0 0.4 0.4 0.4 1 0 1.4l-2.8 2.8q-0.3 0.3-0.7 0.3z"/><path class="c" d="m155.9 134.6q-0.2 0-0.3-0.1c-0.6-0.2-0.8-0.8-0.6-1.3l1.5-3.6c0.2-0.5 0.8-0.8 1.3-0.6 0.5 0.2 0.8 0.8 0.6 1.3l-1.5 3.7c-0.2 0.4-0.6 0.6-1 0.6z"/><path class="d" d="m145.3 195.9c-0.4 0-0.8-0.3-0.9-0.7l-9.9-33.7c-0.2-0.4 0-0.8 0.3-1.1 0.3-0.2 0.8-0.3 1.1 0l9.4 5.6 9.4-5.6c0.4-0.3 0.8-0.2 1.1 0 0.4 0.3 0.5 0.7 0.4 1.1l-9.9 33.7c-0.1 0.4-0.5 0.7-1 0.7zm-8.2-32.5l8.2 27.9 8.2-27.9-7.7 4.6c-0.3 0.2-0.7 0.2-1 0z"/><path class="c" d="m149.3 206.8h-7.9c-1.1 0-2-0.9-2-2v-9.9h11.9v9.9c0 1.1-0.9 2-2 2z"/><path class="c" d="m149.3 207.8h-7.9c-1.7 0-3-1.4-3-3v-10.9h13.9v10.9c0 1.6-1.4 3-3 3zm-8.9-11.9v8.9c0 0.5 0.4 1 1 1h7.9c0.5 0 1-0.5 1-1v-8.9z"/><path fill-rule="evenodd" class="f" d="m137.4 198.9h15.8v1.9h-15.8z"/><path fill-rule="evenodd" class="f" d="m137.4 194.9h15.8v2h-15.8z"/><path fill-rule="evenodd" class="f" d="m137.4 202.8h15.8v2h-15.8z"/><path fill-rule="evenodd" class="e" d="m122.8 358.1h37.5v52.6h-37.5z"/><path fill-rule="evenodd" class="e" d="m130.3 350.6v7.5h30v45.1h7.5v-52.6z"/><path fill-rule="evenodd" class="d" d="m148.9 399.3c-1 4-5 6.5-9.1 5.5-4-0.9-6.5-4.9-5.5-9 0.9-4 4.9-6.5 9-5.6 4 1 6.5 5 5.6 9.1z"/><path class="c" d="m160.3 411.7h-37.5c-0.5 0-1-0.5-1-1v-52.6c0-0.5 0.5-1 1-1h37.5c0.6 0 1 0.5 1 1v52.6c0 0.5-0.4 1-1 1zm-36.5-2h35.5v-50.6h-35.5z"/><path class="c" d="m167.8 404.2h-7.5c-0.5 0-1-0.5-1-1v-44.1h-29c-0.5 0-1-0.4-1-1v-7.5c0-0.5 0.5-1 1-1h37.5c0.6 0 1 0.5 1 1v52.6c0 0.5-0.4 1-1 1zm-6.5-2h5.5v-50.6h-35.5v5.5h29c0.6 0 1 0.5 1 1z"/><path fill-rule="evenodd" class="c" d="m126.6 365.6h30v1.9h-30z"/><path fill-rule="evenodd" class="c" d="m126.6 371.3h30v1.9h-30z"/><path fill-rule="evenodd" class="c" d="m126.6 376.9h30v1.9h-30z"/><path fill-rule="evenodd" class="c" d="m126.6 382.5h22.5v1.9h-22.5z"/><path fill-rule="evenodd" class="c" d="m140.2 401.1l-3.3-3.4 1.4-1.4 1.9 1.9 4.6-4.6 1.5 1.4z"/><path class="e" d="m383.7 191.3h-58c-2.3 0-4.2-1.8-4.2-4.1v-33.2c0-2.3 1.9-4.1 4.2-4.1h58c2.3 0 4.1 1.8 4.1 4.1v33.2c0 2.3-1.8 4.1-4.1 4.1z"/><path fill-rule="evenodd" class="c" d="m329.8 181h24.9v4.1h-24.9z"/><path class="d" d="m373.3 172.7q-0.3 0-0.7 0c1.7 1.5 2.8 3.7 2.8 6.2 0 2.5-1.1 4.7-2.8 6.2q0.4 0 0.7 0c3.5 0 6.3-2.8 6.3-6.2 0-3.4-2.8-6.2-6.3-6.2z"/><path class="d" d="m373.3 178.9c0 3.4-2.8 6.2-6.2 6.2-3.4 0-6.2-2.8-6.2-6.2 0-3.4 2.8-6.2 6.2-6.2 3.4 0 6.2 2.8 6.2 6.2z"/><path fill-rule="evenodd" class="c" d="m321.5 158.2h66.3v8.3h-66.3z"/><path class="c" d="m383.7 192.3h-58c-2.9 0-5.2-2.3-5.2-5.1v-33.2c0-2.8 2.3-5.1 5.2-5.1h58c2.8 0 5.1 2.3 5.1 5.1v33.2c0 2.8-2.3 5.1-5.1 5.1zm-58-41.4c-1.8 0-3.2 1.4-3.2 3.1v33.2c0 1.7 1.4 3.1 3.2 3.1h58c1.7 0 3.1-1.4 3.1-3.1v-33.2c0-1.7-1.4-3.1-3.1-3.1z"/><path class="c" d="m238.1 460.9c-0.4 0-0.7-0.2-0.9-0.5l-4.8-8.9-9.7 2.7c-0.4 0.1-0.8 0-1.1-0.3-0.2-0.3-0.3-0.7-0.1-1l11.9-28.3c0.2-0.5 0.8-0.7 1.3-0.5l15.7 6.6q0.4 0.2 0.5 0.6 0.2 0.4 0 0.7l-11.9 28.3c-0.1 0.3-0.5 0.6-0.9 0.6q0 0 0 0zm-5.2-11.6c0.3 0 0.7 0.2 0.9 0.5l4.2 7.8 10.7-25.4-13.9-5.9-10.7 25.4 8.5-2.4q0.1 0 0.3 0z"/><path class="c" d="m261.9 460.9q0 0 0 0c-0.4 0-0.8-0.3-0.9-0.6l-11.9-28.3q-0.2-0.3 0-0.7 0.1-0.4 0.5-0.6l15.7-6.6c0.5-0.2 1.1 0 1.3 0.5l11.9 28.3c0.2 0.3 0.1 0.7-0.1 1-0.3 0.3-0.7 0.4-1.1 0.3l-9.7-2.7-4.8 8.9c-0.2 0.3-0.5 0.5-0.9 0.5zm-10.6-28.7l10.7 25.4 4.2-7.8c0.3-0.4 0.7-0.6 1.2-0.5l8.5 2.4-10.7-25.4z"/><path fill-rule="evenodd" class="e" d="m276.7 416.7l-4.9 5.9 1.3 7.5-7.1 2.6-2.6 7.2-7.5-1.3-5.9 4.8-5.9-4.8-7.5 1.3-2.6-7.2-7.1-2.6 1.3-7.5-4.9-5.9 4.9-5.8-1.3-7.5 7.1-2.6 2.6-7.2 7.6 1.3 5.8-4.9 5.9 4.9 7.5-1.3 2.6 7.2 7.1 2.6-1.3 7.5z"/><path class="c" d="m250 444.4q-0.4 0-0.6-0.2l-5.5-4.6-7.1 1.2c-0.5 0.1-0.9-0.1-1.1-0.6l-2.5-6.7-6.7-2.5c-0.4-0.1-0.7-0.6-0.6-1.1l1.2-7-4.6-5.5c-0.3-0.4-0.3-0.9 0-1.3l4.6-5.5-1.2-7c-0.1-0.5 0.2-1 0.6-1.2l6.7-2.4 2.5-6.7c0.2-0.5 0.6-0.8 1.1-0.7l7.1 1.2 5.5-4.5c0.3-0.3 0.9-0.3 1.2 0l5.5 4.5 7.1-1.2c0.5-0.1 0.9 0.2 1.1 0.7l2.5 6.7 6.7 2.4c0.4 0.2 0.7 0.7 0.6 1.2l-1.2 7 4.6 5.5c0.3 0.4 0.3 0.9 0 1.3l-4.6 5.5 1.2 7c0.1 0.5-0.2 1-0.6 1.1l-6.7 2.5-2.5 6.7c-0.2 0.5-0.6 0.7-1.1 0.6l-7.1-1.2-5.5 4.6q-0.2 0.2-0.6 0.2zm-5.9-6.8q0.4 0 0.7 0.2l5.2 4.3 5.2-4.3c0.2-0.2 0.5-0.3 0.8-0.2l6.7 1.1 2.3-6.3c0.1-0.3 0.4-0.5 0.6-0.6l6.4-2.4-1.2-6.6c0-0.3 0.1-0.6 0.3-0.9l4.3-5.2-4.3-5.2c-0.2-0.2-0.3-0.5-0.3-0.8l1.2-6.7-6.4-2.3c-0.2-0.1-0.5-0.3-0.6-0.6l-2.3-6.4-6.7 1.2c-0.3 0-0.6 0-0.8-0.2l-5.2-4.4-5.2 4.4c-0.2 0.2-0.5 0.2-0.8 0.2l-6.7-1.2-2.3 6.4c-0.1 0.3-0.4 0.5-0.6 0.6l-6.4 2.3 1.2 6.7c0 0.3-0.1 0.6-0.3 0.8l-4.3 5.2 4.3 5.2c0.2 0.3 0.3 0.6 0.3 0.9l-1.2 6.6 6.4 2.4c0.2 0.1 0.5 0.3 0.6 0.6l2.3 6.3 6.7-1.1q0.1 0 0.1 0z"/><path class="c" d="m250 436.2c-10.7 0-19.5-8.7-19.5-19.5 0-10.7 8.8-19.4 19.5-19.4 10.7 0 19.5 8.7 19.5 19.4 0 10.8-8.8 19.5-19.5 19.5zm0-36.9c-9.6 0-17.5 7.8-17.5 17.4 0 9.7 7.9 17.5 17.5 17.5 9.6 0 17.5-7.8 17.5-17.5 0-9.6-7.9-17.4-17.5-17.4z"/><path fill-rule="evenodd" class="d" d="m250 404.8l3.5 7.1 7.8 1.2-5.6 5.5 1.3 7.8-7-3.7-7 3.7 1.3-7.8-5.6-5.5 7.8-1.2z"/><path fill-rule="evenodd" class="e" d="m386.9 358.3v39.1l-19.6-19.5z"/><path class="e" d="m386.9 358.3l-19.6 19.6-9 8.9c-1.5 1.6-4 1.6-5.5 0l-9-8.9-19.6-19.6z"/><path class="e" d="m386.9 397.4l-62.7 0.1 19.6-19.6 9 8.9c1.5 1.6 4 1.6 5.5 0l9-8.9z"/><path fill-rule="evenodd" class="e" d="m343.8 377.9l-19.6 19.6v-39.2z"/><path fill-rule="evenodd" class="b" d="m341.8 375.9l-17.6 17.6v4l19.6-19.6z"/><path fill-rule="evenodd" class="b" d="m369.3 375.9l17.6 17.6v4l-19.6-19.6z"/><path class="c" d="m386.9 398.4l-62.7 0.1c-0.5 0-1-0.5-1-1v-39.2c0-0.6 0.5-1 1-1h62.7c0.5 0 1 0.4 1 1v39.2c0 0.5-0.5 1-1 1zm-61.7-2h60.7v-37.2h-60.7z"/><path class="c" d="m355.5 389c-1.3 0-2.5-0.5-3.4-1.5l-28.6-28.5 1.4-1.4 28.6 28.5c1.1 1.1 3 1.1 4.1 0l28.6-28.5 1.4 1.4-28.6 28.5c-0.9 1-2.1 1.5-3.5 1.5z"/><path fill-rule="evenodd" class="c" d="m366.6 378.6l1.4-1.4 19.6 19.5-1.4 1.5z"/><path fill-rule="evenodd" class="c" d="m323.5 396.8l19.6-19.6 1.4 1.4-19.6 19.6z"/><path class="e" d="m279.2 99.9h-58.4c-2.3 0-4.2 1.9-4.2 4.2v33.4c0 2.3 1.9 4.2 4.2 4.2h58.4c2.3 0 4.2-1.9 4.2-4.2v-33.4c0-2.3-1.9-4.2-4.2-4.2z"/><path class="b" d="m279.2 99.9h-58.4c-2.3 0-4.2 1.9-4.2 4.2v33.4c0 2.3 1.9 4.2 4.2 4.2h58.4c2.3 0 4.2-1.9 4.2-4.2v-33.4c0-2.3-1.9-4.2-4.2-4.2z"/><path class="e" d="m220.8 139.6c-1.2 0-2.1-1-2.1-2.1v-33.4c0-1.1 0.9-2.1 2.1-2.1h58.4c1.2 0 2.1 1 2.1 2.1v33.4c0 1.1-0.9 2.1-2.1 2.1z"/><path class="d" d="m220.8 131.2v-25c0-1.1 0.9-2.1 2.1-2.1h54.2c1.2 0 2.1 1 2.1 2.1v25c0 1.2-0.9 2.1-2.1 2.1h-54.2c-1.2 0-2.1-0.9-2.1-2.1z"/><path class="c" d="m279.2 142.7h-58.4c-2.9 0-5.2-2.4-5.2-5.2v-33.4c0-2.8 2.3-5.2 5.2-5.2h58.4c2.9 0 5.2 2.4 5.2 5.2v33.4c0 2.8-2.3 5.2-5.2 5.2zm-58.4-41.8c-1.8 0-3.2 1.5-3.2 3.2v33.4c0 1.7 1.4 3.2 3.2 3.2h58.4c1.8 0 3.2-1.5 3.2-3.2v-33.4c0-1.7-1.4-3.2-3.2-3.2z"/><path fill-rule="evenodd" class="e" d="m245.8 141.7h8.4v8.3h-8.4z"/><path fill-rule="evenodd" class="b" d="m245.8 141.7h4.2v8.3h-4.2z"/><path class="e" d="m260.4 154.2h-20.8c-1.2 0-2.1-0.9-2.1-2.1 0-1.2 0.9-2.1 2.1-2.1h20.8c1.2 0 2.1 0.9 2.1 2.1 0 1.2-0.9 2.1-2.1 2.1z"/><path class="b" d="m262.5 152.1h-25c0-1.2 0.9-2.1 2.1-2.1h20.8c1.2 0 2.1 0.9 2.1 2.1z"/><path class="c" d="m255.2 151h-10.4v-10.3h10.4zm-8.4-2h6.4v-6.4h-6.4z"/><path class="c" d="m260.4 155.2h-20.8c-1.7 0-3.1-1.4-3.1-3.1 0-1.7 1.4-3.1 3.1-3.1h20.8c1.7 0 3.1 1.4 3.1 3.1 0 1.7-1.4 3.1-3.1 3.1zm-20.8-4.2c-0.6 0-1.1 0.5-1.1 1.1 0 0.6 0.5 1.1 1.1 1.1h20.8c0.6 0 1.1-0.5 1.1-1.1 0-0.6-0.5-1.1-1.1-1.1z"/><path fill-rule="evenodd" class="c" d="m250 139.6c-1.2 0-2.1-1-2.1-2.1 0-1.2 0.9-2.1 2.1-2.1 1.2 0 2.1 0.9 2.1 2.1 0 1.1-0.9 2.1-2.1 2.1z"/><path fill-rule="evenodd" class="c" d="m229.1 127.1h33.4v2.1h-33.4z"/><path fill-rule="evenodd" class="b" d="m229.1 108.3h41.8v8.3h-41.8z"/><path fill-rule="evenodd" class="c" d="m216.6 153.2h66.8v2h-66.8z"/><path class="e" d="m109.9 271.8v-39.6h-15.9v39.6l-19.6 29.5c-1.8 2.7 0.1 6.2 3.3 6.2h48.6c3.1 0 5-3.5 3.3-6.2z"/><path class="c" d="m126.3 308.5h-48.6c-1.9 0-3.5-1-4.4-2.6-0.9-1.7-0.8-3.6 0.2-5.1l19.5-29.3v-40.3h17.9v40.3l19.5 29.3c1 1.5 1.1 3.4 0.2 5.1-0.8 1.6-2.5 2.6-4.3 2.6zm-31.3-75.3v38.9l-19.8 29.8c-0.6 0.9-0.7 2-0.1 3 0.5 1 1.5 1.6 2.6 1.6h48.6c1.1 0 2-0.6 2.6-1.6 0.5-1 0.4-2.1-0.2-3l-19.8-29.8v-38.9z"/><path class="e" d="m109.9 228.2h-15.9c-1.1 0-1.9 0.9-1.9 2 0 1.1 0.8 2 1.9 2h15.9c1.1 0 2-0.9 2-2 0-1.1-0.9-2-2-2z"/><path class="c" d="m109.9 233.2h-15.9c-1.6 0-2.9-1.3-2.9-3 0-1.6 1.3-3 2.9-3h15.9c1.6 0 3 1.4 3 3 0 1.7-1.4 3-3 3zm-15.9-4c-0.5 0-0.9 0.5-0.9 1 0 0.6 0.4 1 0.9 1h15.9c0.5 0 1-0.4 1-1 0-0.5-0.5-1-1-1z"/><path fill-rule="evenodd" class="d" d="m88.2 287.7l-10.5 15.8h48.6l-10.6-15.8z"/><path fill-rule="evenodd" class="b" d="m108.9 295.6c-0.5 0-1-0.4-1-1 0-0.5 0.5-1 1-1 0.5 0 1 0.5 1 1 0 0.6-0.5 1-1 1z"/><path class="b" d="m115.8 297.6c0 1.1-0.9 2-1.9 2-1.1 0-2-0.9-2-2 0-1.1 0.9-2 2-2 1 0 1.9 0.9 1.9 2z"/><path class="b" d="m94 298.6c0 0.5-0.4 1-0.9 1-0.6 0-1-0.5-1-1 0-0.6 0.4-1 1-1 0.5 0 0.9 0.4 0.9 1z"/><path class="b" d="m98 292.6c0 0.6-0.4 1-1 1-0.5 0-1-0.4-1-1 0-0.5 0.5-1 1-1 0.6 0 1 0.5 1 1z"/><path class="b" d="m103.9 299.6c0 1.1-0.8 1.9-1.9 1.9-1.1 0-2-0.8-2-1.9 0-1.1 0.9-2 2-2 1.1 0 1.9 0.9 1.9 2z"/><path class="g" d="m284.8 354.3h-69.6c-3.8 0-7-3.1-7-7v-144.4c0-3.9 3.2-7 7-7h69.6c3.8 0 7 3.1 7 7v144.4c0 3.9-3.2 7-7 7z"/><path fill-rule="evenodd" class="d" d="m289.6 207.2v135.8h-79.2v-135.8z"/><path class="b" d="m257.6 203h-15.2c-0.5 0-1-0.4-1-0.9 0-0.5 0.5-0.9 1-0.9h15.2c0.5 0 1 0.4 1 0.9 0 0.5-0.5 0.9-1 0.9z"/><path fill-rule="evenodd" class="b" d="m210.4 329.7h79.2v13.3h-79.2z"/><path fill-rule="evenodd" class="b" d="m210.4 207.2h79.2v5.7h-79.2z"/><path fill-rule="evenodd" class="b" d="m214.8 225.4h70.4v70.3h-70.4z"/><path fill-rule="evenodd" class="b" d="m216.6 227.1h66.8v67h-66.8z"/><path class="a" d="m283.4 227.1h-66.8v67h66.8zm-0.8 0.7v65.5h-65.2v-65.5z"/><path fill-rule="evenodd" class="a" d="m216.6 276.5h66.8v17.6h-66.8z"/><path fill-rule="evenodd" class="h" d="m217.5 282.6h64.9v10.5h-64.9z"/><path fill-rule="evenodd" class="g" d="m214.8 301.5h29v2h-29z"/><path fill-rule="evenodd" class="g" d="m214.8 307.1h70.4v1h-70.4z"/><path fill-rule="evenodd" class="g" d="m214.8 310.4h70.4v1h-70.4z"/><path fill-rule="evenodd" class="g" d="m214.8 313.7h70.4v1h-70.4z"/><path fill-rule="evenodd" class="g" d="m214.8 317h50.3v1h-50.3z"/><path fill-rule="evenodd" class="b" d="m273.1 217.8h12.1v1.5h-12.1z"/><path fill-rule="evenodd" class="h" d="m242.4 248.9l24.7 27.6h-49.3z"/><path fill-rule="evenodd" class="h" d="m270.1 264.4l12.1 12.1h-24.1z"/><path class="h" d="m268.6 240.9c0 2.8-2.3 5.1-5.1 5.1-2.8 0-5.1-2.3-5.1-5.1 0-2.8 2.3-5.1 5.1-5.1 2.8 0 5.1 2.3 5.1 5.1z"/><path class="h" d="m225.8 336.3c0 2.4-1.9 4.3-4.2 4.3-2.4 0-4.3-1.9-4.3-4.3 0-2.3 1.9-4.2 4.3-4.2 2.3 0 4.2 1.9 4.2 4.2z"/><path fill-rule="evenodd" class="h" d="m236.8 332.6h7.5v7.5h-7.5z"/><path fill-rule="evenodd" class="h" d="m274.2 336.3l4.2-4.2 4.3 4.2-4.3 4.3z"/><path fill-rule="evenodd" class="h" d="m259.5 332.6l4.3 7.5h-8.7z"/><path fill-rule="evenodd" class="b" d="m217.2 221.6l-3.1-3 3.1-3.1 0.7 0.7-2.4 2.4 2.4 2.3z"/><path fill-rule="evenodd" class="g" d="m244.4 209.6h11.2v1h-11.2z"/><path fill-rule="evenodd" class="g" d="m282.8 209.6h5.2v1h-5.2z"/><path fill-rule="evenodd" class="g" d="m279.1 209.6h2.2v1h-2.2z"/><path fill-rule="evenodd" class="g" d="m212.6 209.4h1.3v1.3h-1.3z"/><path fill-rule="evenodd" class="g" d="m214.9 209.4h1.3v1.3h-1.3z"/><path fill-rule="evenodd" class="g" d="m217.2 209.4h1.3v1.3h-1.3z"/><path fill-rule="evenodd" class="g" d="m219.5 209.4h1.3v1.3h-1.3z"/><path class="b" d="m252.5 351.4h-5c-1.7 0-3.1-1.4-3.1-3 0-1.7 1.4-3.1 3.1-3.1h5c1.7 0 3.1 1.4 3.1 3.1 0 1.6-1.4 3-3.1 3zm-5-5.1c-1.2 0-2.1 0.9-2.1 2.1 0 1.1 0.9 2 2.1 2h5c1.2 0 2.1-0.9 2.1-2 0-1.2-0.9-2.1-2.1-2.1z"/></svg>